G04 #@! TF.GenerationSoftware,KiCad,Pcbnew,(5.1.6)-1*
G04 #@! TF.CreationDate,2021-02-15T16:03:39+00:00*
G04 #@! TF.ProjectId,DC_Power_Monitor,44435f50-6f77-4657-925f-4d6f6e69746f,rev?*
G04 #@! TF.SameCoordinates,PX2455c20PY82ce540*
G04 #@! TF.FileFunction,Copper,L1,Top*
G04 #@! TF.FilePolarity,Positive*
%FSLAX46Y46*%
G04 Gerber Fmt 4.6, Leading zero omitted, Abs format (unit mm)*
G04 Created by KiCad (PCBNEW (5.1.6)-1) date 2021-02-15 16:03:39*
%MOMM*%
%LPD*%
G01*
G04 APERTURE LIST*
G04 #@! TA.AperFunction,EtchedComponent*
%ADD10C,0.010000*%
G04 #@! TD*
G04 #@! TA.AperFunction,ComponentPad*
%ADD11C,1.500000*%
G04 #@! TD*
G04 #@! TA.AperFunction,ComponentPad*
%ADD12R,1.500000X1.500000*%
G04 #@! TD*
G04 #@! TA.AperFunction,ComponentPad*
%ADD13R,3.000000X3.000000*%
G04 #@! TD*
G04 #@! TA.AperFunction,ComponentPad*
%ADD14C,3.000000*%
G04 #@! TD*
G04 #@! TA.AperFunction,ComponentPad*
%ADD15R,2.540000X6.350000*%
G04 #@! TD*
G04 #@! TA.AperFunction,ComponentPad*
%ADD16R,2.540000X2.540000*%
G04 #@! TD*
G04 #@! TA.AperFunction,SMDPad,CuDef*
%ADD17R,1.500000X1.300000*%
G04 #@! TD*
G04 #@! TA.AperFunction,SMDPad,CuDef*
%ADD18R,1.700000X0.900000*%
G04 #@! TD*
G04 #@! TA.AperFunction,SMDPad,CuDef*
%ADD19R,1.300000X1.500000*%
G04 #@! TD*
G04 #@! TA.AperFunction,SMDPad,CuDef*
%ADD20R,1.400000X0.290000*%
G04 #@! TD*
G04 #@! TA.AperFunction,ComponentPad*
%ADD21C,2.864946*%
G04 #@! TD*
G04 #@! TA.AperFunction,Conductor*
%ADD22R,1.000000X9.000000*%
G04 #@! TD*
G04 #@! TA.AperFunction,SMDPad,CuDef*
%ADD23R,2.000000X2.000000*%
G04 #@! TD*
G04 #@! TA.AperFunction,ViaPad*
%ADD24C,0.889000*%
G04 #@! TD*
G04 #@! TA.AperFunction,Conductor*
%ADD25C,0.381000*%
G04 #@! TD*
G04 #@! TA.AperFunction,Conductor*
%ADD26C,1.000000*%
G04 #@! TD*
G04 #@! TA.AperFunction,Conductor*
%ADD27C,0.254000*%
G04 #@! TD*
G04 APERTURE END LIST*
D10*
G36*
X43819334Y14041842D02*
G01*
X44251958Y13934217D01*
X44659114Y13833980D01*
X45033571Y13742841D01*
X45368102Y13662508D01*
X45655475Y13594691D01*
X45888463Y13541097D01*
X46059836Y13503437D01*
X46162364Y13483419D01*
X46190000Y13481431D01*
X46174545Y13528591D01*
X46131366Y13641879D01*
X46065239Y13809241D01*
X45980943Y14018628D01*
X45883256Y14257985D01*
X45852982Y14331580D01*
X45753185Y14575879D01*
X45666421Y14792370D01*
X45597236Y14969364D01*
X45550175Y15095174D01*
X45529785Y15158115D01*
X45529575Y15163019D01*
X45571272Y15151135D01*
X45686681Y15110596D01*
X45870581Y15043373D01*
X46117749Y14951436D01*
X46422966Y14836756D01*
X46781009Y14701304D01*
X47186657Y14547050D01*
X47634688Y14375966D01*
X48119880Y14190021D01*
X48637013Y13991187D01*
X48761750Y13943135D01*
X48834043Y13921214D01*
X48857000Y13923362D01*
X48822539Y13949377D01*
X48726053Y14012787D01*
X48577884Y14107040D01*
X48388376Y14225586D01*
X48167872Y14361875D01*
X48063250Y14426049D01*
X47450778Y14800615D01*
X46907104Y15132548D01*
X46429026Y15423760D01*
X46013341Y15676165D01*
X45656847Y15891675D01*
X45356341Y16072203D01*
X45108621Y16219661D01*
X44910485Y16335963D01*
X44758729Y16423021D01*
X44650152Y16482749D01*
X44581551Y16517058D01*
X44549723Y16527861D01*
X44546674Y16526433D01*
X44553854Y16477265D01*
X44581185Y16358164D01*
X44625721Y16180650D01*
X44684516Y15956247D01*
X44754626Y15696475D01*
X44812237Y15487612D01*
X44888720Y15210788D01*
X44956268Y14962478D01*
X45011938Y14753819D01*
X45052786Y14595948D01*
X45075869Y14500002D01*
X45079729Y14475357D01*
X45043803Y14496944D01*
X44944959Y14562479D01*
X44789732Y14667482D01*
X44584656Y14807477D01*
X44336263Y14977986D01*
X44051088Y15174530D01*
X43735665Y15392632D01*
X43396527Y15627814D01*
X43279526Y15709101D01*
X42933538Y15949311D01*
X42608786Y16174242D01*
X42311852Y16379372D01*
X42049319Y16560181D01*
X41827767Y16712147D01*
X41653780Y16830747D01*
X41533938Y16911462D01*
X41474824Y16949769D01*
X41469776Y16952333D01*
X41464251Y16911806D01*
X41459266Y16797444D01*
X41455018Y16620081D01*
X41451705Y16390549D01*
X41449524Y16119680D01*
X41448672Y15818306D01*
X41448667Y15793453D01*
X41448667Y14634573D01*
X43819334Y14041842D01*
G37*
X43819334Y14041842D02*
X44251958Y13934217D01*
X44659114Y13833980D01*
X45033571Y13742841D01*
X45368102Y13662508D01*
X45655475Y13594691D01*
X45888463Y13541097D01*
X46059836Y13503437D01*
X46162364Y13483419D01*
X46190000Y13481431D01*
X46174545Y13528591D01*
X46131366Y13641879D01*
X46065239Y13809241D01*
X45980943Y14018628D01*
X45883256Y14257985D01*
X45852982Y14331580D01*
X45753185Y14575879D01*
X45666421Y14792370D01*
X45597236Y14969364D01*
X45550175Y15095174D01*
X45529785Y15158115D01*
X45529575Y15163019D01*
X45571272Y15151135D01*
X45686681Y15110596D01*
X45870581Y15043373D01*
X46117749Y14951436D01*
X46422966Y14836756D01*
X46781009Y14701304D01*
X47186657Y14547050D01*
X47634688Y14375966D01*
X48119880Y14190021D01*
X48637013Y13991187D01*
X48761750Y13943135D01*
X48834043Y13921214D01*
X48857000Y13923362D01*
X48822539Y13949377D01*
X48726053Y14012787D01*
X48577884Y14107040D01*
X48388376Y14225586D01*
X48167872Y14361875D01*
X48063250Y14426049D01*
X47450778Y14800615D01*
X46907104Y15132548D01*
X46429026Y15423760D01*
X46013341Y15676165D01*
X45656847Y15891675D01*
X45356341Y16072203D01*
X45108621Y16219661D01*
X44910485Y16335963D01*
X44758729Y16423021D01*
X44650152Y16482749D01*
X44581551Y16517058D01*
X44549723Y16527861D01*
X44546674Y16526433D01*
X44553854Y16477265D01*
X44581185Y16358164D01*
X44625721Y16180650D01*
X44684516Y15956247D01*
X44754626Y15696475D01*
X44812237Y15487612D01*
X44888720Y15210788D01*
X44956268Y14962478D01*
X45011938Y14753819D01*
X45052786Y14595948D01*
X45075869Y14500002D01*
X45079729Y14475357D01*
X45043803Y14496944D01*
X44944959Y14562479D01*
X44789732Y14667482D01*
X44584656Y14807477D01*
X44336263Y14977986D01*
X44051088Y15174530D01*
X43735665Y15392632D01*
X43396527Y15627814D01*
X43279526Y15709101D01*
X42933538Y15949311D01*
X42608786Y16174242D01*
X42311852Y16379372D01*
X42049319Y16560181D01*
X41827767Y16712147D01*
X41653780Y16830747D01*
X41533938Y16911462D01*
X41474824Y16949769D01*
X41469776Y16952333D01*
X41464251Y16911806D01*
X41459266Y16797444D01*
X41455018Y16620081D01*
X41451705Y16390549D01*
X41449524Y16119680D01*
X41448672Y15818306D01*
X41448667Y15793453D01*
X41448667Y14634573D01*
X43819334Y14041842D01*
D11*
X23330000Y8861000D03*
X21330000Y8861000D03*
X19330000Y8861000D03*
D12*
X17330000Y8861000D03*
D13*
X23457000Y40405000D03*
D14*
X13932000Y40405000D03*
D13*
X42380000Y40405000D03*
D14*
X32855000Y40405000D03*
D15*
X28410000Y31515000D03*
D16*
X38570000Y31515000D03*
X36030000Y31515000D03*
D15*
X33490000Y31515000D03*
D16*
X41110000Y31515000D03*
D15*
X20790000Y31515000D03*
D17*
X34760000Y19445000D03*
X34760000Y17545000D03*
D18*
X29045000Y23260000D03*
X29045000Y26160000D03*
D19*
X20454800Y18815000D03*
X18554800Y18815000D03*
X20454800Y16275000D03*
X18554800Y16275000D03*
D17*
X20790000Y25795000D03*
X20790000Y23895000D03*
X23330000Y25800000D03*
X23330000Y23900000D03*
X32220000Y25795000D03*
X32220000Y23895000D03*
D20*
X26187500Y19196000D03*
X26187500Y18688000D03*
X26187500Y18180000D03*
X26187500Y17672000D03*
X26187500Y17164000D03*
X30632500Y17164000D03*
X30632500Y17672000D03*
X30632500Y18180000D03*
X30632500Y18688000D03*
X30632500Y19196000D03*
D18*
X18250000Y23535000D03*
X18250000Y26435000D03*
D17*
X25870000Y25795000D03*
X25870000Y23895000D03*
X34887000Y23844200D03*
X34887000Y25744200D03*
D21*
X3346451Y52434464D03*
X53296451Y52484464D03*
X53246452Y7534468D03*
X3346451Y7534464D03*
D11*
X37125000Y8861000D03*
X35125000Y8861000D03*
X33125000Y8861000D03*
D12*
X31125000Y8861000D03*
D22*
X216000Y23260000D03*
D23*
X724000Y27070000D03*
X724000Y24530000D03*
X724000Y19450000D03*
X2883000Y19450000D03*
X2883000Y21990000D03*
X2883000Y24530000D03*
X2883000Y27070000D03*
X724000Y21990000D03*
X6820000Y21990000D03*
X8979000Y27070000D03*
X8979000Y24530000D03*
X8979000Y21990000D03*
X8979000Y19450000D03*
X6820000Y19450000D03*
X6820000Y24530000D03*
X6820000Y27070000D03*
D22*
X6312000Y23260000D03*
D24*
X24727000Y27324000D03*
X29680000Y14243000D03*
X29680000Y41040000D03*
X29680000Y39770000D03*
X29680000Y38500000D03*
X30950000Y38500000D03*
X10630000Y41040000D03*
X10630000Y39770000D03*
X10630000Y38500000D03*
X10630000Y37230000D03*
X11900000Y37230000D03*
X13170000Y37230000D03*
X14440000Y37230000D03*
X15710000Y38500000D03*
X15710000Y37230000D03*
X16003000Y25419000D03*
X34760000Y38500000D03*
X36030000Y39770000D03*
X36030000Y41040000D03*
X36030000Y42310000D03*
X29680000Y42310000D03*
X4788000Y16402000D03*
X12027000Y16402000D03*
X25870000Y43580000D03*
X23330000Y43580000D03*
X22060000Y43580000D03*
X20790000Y43580000D03*
X19520000Y43580000D03*
X19520000Y42310000D03*
X19520000Y41040000D03*
X19520000Y39770000D03*
X20790000Y39770000D03*
X20790000Y41040000D03*
X20790000Y42310000D03*
X24600000Y43580000D03*
X25870000Y41040000D03*
X25870000Y39770000D03*
X25870000Y42310000D03*
X23330000Y34690000D03*
X23330000Y33420000D03*
X23330000Y32150000D03*
X23330000Y29610000D03*
X23330000Y30880000D03*
X18250000Y33420000D03*
X18250000Y32150000D03*
X18250000Y30880000D03*
X18250000Y29610000D03*
X18250000Y29610000D03*
X18250000Y34690000D03*
X30950000Y33420000D03*
X30950000Y31785000D03*
X30950000Y29610000D03*
X37300000Y34690000D03*
X44920000Y34690000D03*
X36030000Y34690000D03*
X44920000Y35960000D03*
X44920000Y37230000D03*
X39840000Y38500000D03*
X39840000Y39770000D03*
X39840000Y41040000D03*
X39840000Y42310000D03*
X39840000Y42310000D03*
X44920000Y38500000D03*
X44920000Y39770000D03*
X44920000Y41040000D03*
X44920000Y42310000D03*
X44920000Y42310000D03*
X12408000Y24530000D03*
X5042000Y29991000D03*
X22441000Y17037000D03*
X11900000Y27070000D03*
X3264000Y31134000D03*
X11900000Y29610000D03*
X1105000Y32150000D03*
D25*
X32347000Y17672000D02*
X33236000Y18561000D01*
X33236000Y18561000D02*
X33236000Y19069000D01*
X33612000Y19445000D02*
X34760000Y19445000D01*
X33236000Y19069000D02*
X33612000Y19445000D01*
X35891000Y19445000D02*
X36665000Y20219000D01*
X34760000Y19445000D02*
X35891000Y19445000D01*
X36665000Y20219000D02*
X36665000Y25038000D01*
X35908000Y25795000D02*
X34760000Y25795000D01*
X36665000Y25038000D02*
X35908000Y25795000D01*
X15583000Y6623000D02*
X13614500Y8591500D01*
X21425000Y6623000D02*
X15583000Y6623000D01*
X25870000Y26831000D02*
X25377000Y27324000D01*
X25870000Y25800000D02*
X25870000Y26831000D01*
X25377000Y27324000D02*
X24727000Y27324000D01*
X13805000Y38283680D02*
X12412774Y36891454D01*
X13805000Y40405000D02*
X13805000Y38283680D01*
X32855000Y46755000D02*
X32855000Y40405000D01*
X13805000Y40405000D02*
X13805000Y46120000D01*
X16726000Y26435000D02*
X18250000Y26435000D01*
X15837000Y27324000D02*
X16726000Y26435000D01*
X37125000Y7718000D02*
X37125000Y8861000D01*
X36030000Y6623000D02*
X37125000Y7718000D01*
X28791000Y15132000D02*
X28791000Y16275000D01*
X29680000Y14243000D02*
X28791000Y15132000D01*
X21425000Y6623000D02*
X23330000Y6623000D01*
X23330000Y6623000D02*
X36030000Y6623000D01*
D26*
X13932000Y40405000D02*
X15710000Y42183000D01*
X15710000Y42183000D02*
X15710000Y43580000D01*
X29680000Y42310000D02*
X29680000Y41040000D01*
X29680000Y39770000D02*
X29680000Y38500000D01*
X10630000Y41040000D02*
X10630000Y39770000D01*
X10630000Y38500000D02*
X10630000Y37230000D01*
X14440000Y37230000D02*
X15710000Y37230000D01*
X15710000Y37230000D02*
X15710000Y38500000D01*
D25*
X2883000Y19450000D02*
X2883000Y18069000D01*
D26*
X12535000Y36595000D02*
X12535000Y37230000D01*
X12535000Y37230000D02*
X13170000Y37230000D01*
X11900000Y37230000D02*
X12535000Y37230000D01*
D25*
X7963000Y14243000D02*
X7963000Y16148000D01*
X8979000Y17164000D02*
X8979000Y19450000D01*
X7963000Y16148000D02*
X8979000Y17164000D01*
X2883000Y19450000D02*
X2883000Y15894000D01*
X6248500Y12528500D02*
X9677500Y12528500D01*
X2883000Y15894000D02*
X6248500Y12528500D01*
X7963000Y14243000D02*
X9677500Y12528500D01*
X9677500Y12528500D02*
X13614500Y8591500D01*
X17019000Y26435000D02*
X16003000Y25419000D01*
X18250000Y26435000D02*
X17019000Y26435000D01*
D26*
X13932000Y39008000D02*
X15710000Y37230000D01*
X13932000Y40405000D02*
X13932000Y39008000D01*
X15710000Y29229000D02*
X15837000Y29102000D01*
X15710000Y37230000D02*
X15710000Y29229000D01*
D25*
X15837000Y29102000D02*
X15837000Y27324000D01*
D26*
X32855000Y40405000D02*
X32855000Y47517000D01*
X32855000Y47517000D02*
X30696000Y49676000D01*
X17361000Y49676000D02*
X13932000Y46247000D01*
X30696000Y49676000D02*
X17361000Y49676000D01*
D25*
X13805000Y46120000D02*
X13932000Y46247000D01*
D26*
X13932000Y46247000D02*
X14313000Y46628000D01*
X13932000Y40405000D02*
X13932000Y46247000D01*
D25*
X14313000Y46628000D02*
X16980000Y49295000D01*
D26*
X32855000Y40405000D02*
X34760000Y38500000D01*
X34760000Y38500000D02*
X36030000Y39770000D01*
X23330000Y8861000D02*
X23330000Y6750000D01*
D25*
X23330000Y6750000D02*
X23330000Y6623000D01*
D26*
X15511500Y6313500D02*
X15075000Y6750000D01*
X21623500Y6313500D02*
X22060000Y6750000D01*
X15511500Y6313500D02*
X21623500Y6313500D01*
X23330000Y6750000D02*
X22060000Y6750000D01*
D27*
X30632500Y17672000D02*
X32347000Y17672000D01*
X27902000Y18180000D02*
X28410000Y17672000D01*
X26187500Y18180000D02*
X27902000Y18180000D01*
X28410000Y17672000D02*
X29172000Y17672000D01*
X29426000Y17672000D02*
X29172000Y17672000D01*
X30632500Y17672000D02*
X29426000Y17672000D01*
X28918000Y17672000D02*
X28918000Y17037000D01*
X28918000Y17672000D02*
X28410000Y17672000D01*
X29426000Y17672000D02*
X28918000Y17672000D01*
D25*
X20785000Y23900000D02*
X20790000Y23895000D01*
X20790000Y22864000D02*
X20790000Y23895000D01*
X28537000Y19577000D02*
X25616000Y22498000D01*
X25616000Y22498000D02*
X21156000Y22498000D01*
X21156000Y22498000D02*
X20790000Y22864000D01*
X18250000Y23535000D02*
X19287000Y23535000D01*
X19647000Y23895000D02*
X20790000Y23895000D01*
X19287000Y23535000D02*
X19647000Y23895000D01*
D27*
X29045000Y18180000D02*
X28537000Y18688000D01*
X30632500Y18180000D02*
X29045000Y18180000D01*
X28537000Y18688000D02*
X28537000Y19577000D01*
D25*
X32485592Y17164000D02*
X32866592Y17545000D01*
X32866592Y17545000D02*
X34760000Y17545000D01*
X32093000Y17164000D02*
X32485592Y17164000D01*
X32485592Y13596408D02*
X32485592Y17164000D01*
X35125000Y10957000D02*
X33172500Y12909500D01*
X35125000Y8861000D02*
X35125000Y10957000D01*
X33172500Y12909500D02*
X32485592Y13596408D01*
X18554800Y16275000D02*
X18554800Y18815000D01*
X11900000Y21990000D02*
X13805000Y21990000D01*
X16980000Y18815000D02*
X18554800Y18815000D01*
X11900000Y21990000D02*
X8979000Y21990000D01*
X4264000Y21990000D02*
X4788000Y21466000D01*
X2883000Y21990000D02*
X4264000Y21990000D01*
X4788000Y21466000D02*
X4788000Y16402000D01*
X12027000Y17291000D02*
X15265500Y20529500D01*
X12027000Y16402000D02*
X12027000Y17291000D01*
X13805000Y21990000D02*
X15265500Y20529500D01*
X15265500Y20529500D02*
X16980000Y18815000D01*
X12027000Y11068000D02*
X12027000Y16402000D01*
X20536000Y7385000D02*
X15710000Y7385000D01*
X21330000Y8179000D02*
X20536000Y7385000D01*
X15710000Y7385000D02*
X12027000Y11068000D01*
X21330000Y8861000D02*
X21330000Y8179000D01*
D27*
X30632500Y17164000D02*
X32093000Y17164000D01*
D25*
X23330000Y23900000D02*
X25870000Y23900000D01*
X27641000Y23260000D02*
X29045000Y23260000D01*
X25870000Y23900000D02*
X27001000Y23900000D01*
X27001000Y23900000D02*
X27641000Y23260000D01*
X29045000Y23260000D02*
X29045000Y22244000D01*
X29045000Y22244000D02*
X30632500Y20656500D01*
D27*
X30632500Y19196000D02*
X30632500Y20656500D01*
D25*
X32220000Y22864000D02*
X32220000Y23895000D01*
X32220000Y19194500D02*
X32220000Y22864000D01*
X34760000Y23895000D02*
X32220000Y23895000D01*
X31089000Y23895000D02*
X32220000Y23895000D01*
X30479000Y23895000D02*
X31089000Y23895000D01*
X29045000Y25329000D02*
X30479000Y23895000D01*
X29045000Y26160000D02*
X29045000Y25329000D01*
D27*
X31713500Y18688000D02*
X32220000Y19194500D01*
X30632500Y18688000D02*
X31713500Y18688000D01*
D25*
X23325000Y25795000D02*
X23330000Y25800000D01*
X20790000Y25795000D02*
X23325000Y25795000D01*
X20790000Y25795000D02*
X20790000Y31515000D01*
D26*
X23457000Y42905000D02*
X24132000Y43580000D01*
X23457000Y40405000D02*
X23457000Y42905000D01*
X24132000Y43580000D02*
X25870000Y43580000D01*
X23330000Y43580000D02*
X22060000Y43580000D01*
X20790000Y43580000D02*
X19520000Y43580000D01*
X19520000Y42310000D02*
X19520000Y41040000D01*
X19520000Y39770000D02*
X19520000Y38500000D01*
X19520000Y37230000D02*
X19520000Y35960000D01*
X20790000Y35960000D02*
X20790000Y37230000D01*
X20790000Y38500000D02*
X20790000Y39770000D01*
X20790000Y41040000D02*
X20790000Y42310000D01*
X25870000Y43580000D02*
X25870000Y42310000D01*
X25870000Y42310000D02*
X25870000Y41040000D01*
X25870000Y39770000D02*
X25870000Y38500000D01*
X24600000Y37230000D02*
X23330000Y35960000D01*
X22060000Y35960000D02*
X22060000Y37230000D01*
X23330000Y29610000D02*
X23330000Y30880000D01*
X19520000Y35960000D02*
X18250000Y34690000D01*
X18250000Y32150000D02*
X18250000Y30880000D01*
X18250000Y33420000D02*
X18250000Y34690000D01*
D25*
X30061000Y31515000D02*
X33490000Y31515000D01*
X28410000Y31515000D02*
X30061000Y31515000D01*
X33490000Y31515000D02*
X36030000Y31515000D01*
X36030000Y31515000D02*
X38570000Y31515000D01*
X38570000Y31515000D02*
X41110000Y31515000D01*
X35395000Y32150000D02*
X36030000Y31515000D01*
X33490000Y28213000D02*
X33490000Y31515000D01*
X33490000Y28096000D02*
X33490000Y28213000D01*
X32220000Y26826000D02*
X33490000Y28096000D01*
X32220000Y25795000D02*
X32220000Y26826000D01*
X42380000Y36595000D02*
X42380000Y40405000D01*
X41110000Y35325000D02*
X42380000Y36595000D01*
D26*
X30950000Y33420000D02*
X30950000Y31785000D01*
X37300000Y34690000D02*
X36030000Y34690000D01*
X36030000Y34690000D02*
X38570000Y34690000D01*
D25*
X41110000Y31515000D02*
X41110000Y34690000D01*
D26*
X43650000Y34690000D02*
X44920000Y34690000D01*
X37300000Y34690000D02*
X37300000Y35960000D01*
X37300000Y35960000D02*
X38570000Y35960000D01*
X44920000Y35960000D02*
X44920000Y37230000D01*
X38570000Y37230000D02*
X39840000Y38500000D01*
X39840000Y39770000D02*
X39840000Y41040000D01*
X44920000Y37230000D02*
X44920000Y38500000D01*
X44920000Y39770000D02*
X44920000Y41040000D01*
D25*
X31978660Y11068000D02*
X28791000Y11068000D01*
X33125000Y9921660D02*
X31978660Y11068000D01*
X33125000Y8861000D02*
X33125000Y9921660D01*
X27902000Y11068000D02*
X28791000Y11068000D01*
X19330000Y10497000D02*
X19330000Y8861000D01*
X27902000Y11068000D02*
X19901000Y11068000D01*
X19901000Y11068000D02*
X19330000Y10497000D01*
X11265000Y24530000D02*
X8979000Y24530000D01*
X18176026Y20262790D02*
X13908816Y24530000D01*
X20138010Y20262790D02*
X18176026Y20262790D01*
X20454800Y18815000D02*
X20454800Y19946000D01*
X20454800Y19946000D02*
X20138010Y20262790D01*
X12408000Y24530000D02*
X11265000Y24530000D01*
X13908816Y24530000D02*
X12408000Y24530000D01*
X4264000Y24530000D02*
X2883000Y24530000D01*
X5042000Y25308000D02*
X4264000Y24530000D01*
X5042000Y29991000D02*
X5042000Y25308000D01*
D27*
X20454800Y18815000D02*
X23203000Y18815000D01*
X24346000Y17672000D02*
X26187500Y17672000D01*
X23203000Y18815000D02*
X24346000Y17672000D01*
X26187500Y17672000D02*
X27394000Y17672000D01*
X27394000Y17672000D02*
X28029000Y17037000D01*
X28029000Y11195000D02*
X27902000Y11068000D01*
X28029000Y17037000D02*
X28029000Y11195000D01*
D25*
X22441000Y16402000D02*
X22314000Y16275000D01*
X22441000Y17037000D02*
X22441000Y16402000D01*
X23076000Y16275000D02*
X22314000Y16275000D01*
X22314000Y16275000D02*
X20454800Y16275000D01*
X23076000Y16275000D02*
X23076000Y13862000D01*
X23076000Y13862000D02*
X21044000Y11830000D01*
X21044000Y11830000D02*
X18504000Y11830000D01*
X17330000Y10656000D02*
X17330000Y8861000D01*
X18504000Y11830000D02*
X17330000Y10656000D01*
X11900000Y27070000D02*
X8979000Y27070000D01*
X3264000Y27451000D02*
X2883000Y27070000D01*
X3264000Y31134000D02*
X3264000Y27451000D01*
D27*
X23965000Y17164000D02*
X23774500Y16973500D01*
X26187500Y17164000D02*
X23965000Y17164000D01*
D25*
X23774500Y16973500D02*
X23076000Y16275000D01*
X13170000Y29610000D02*
X11900000Y29610000D01*
X13932000Y28848000D02*
X13170000Y29610000D01*
X13932000Y25153408D02*
X13932000Y28848000D01*
X23074500Y20720000D02*
X18377000Y20720000D01*
X18377000Y20720000D02*
X17310209Y21786791D01*
X17310209Y21786791D02*
X17298617Y21786791D01*
X17298617Y21786791D02*
X13932000Y25153408D01*
X724000Y24530000D02*
X724000Y23768000D01*
X724000Y23768000D02*
X724000Y27070000D01*
X216000Y23260000D02*
X724000Y23768000D01*
X724000Y19450000D02*
X724000Y21990000D01*
X724000Y22752000D02*
X216000Y23260000D01*
X724000Y21990000D02*
X724000Y22752000D01*
X1105000Y27451000D02*
X724000Y27070000D01*
X1105000Y32150000D02*
X1105000Y27451000D01*
D27*
X25106500Y18688000D02*
X23074500Y20720000D01*
X26187500Y18688000D02*
X25106500Y18688000D01*
D25*
X14389210Y25342790D02*
X14389210Y30168790D01*
X18443842Y21299750D02*
X17499592Y22244000D01*
X14389210Y30168790D02*
X13297000Y31261000D01*
X17499592Y22244000D02*
X17487999Y22244001D01*
X17487999Y22244001D02*
X14389210Y25342790D01*
X6820000Y19450000D02*
X6820000Y22752000D01*
X6820000Y22752000D02*
X6312000Y23260000D01*
X6820000Y21990000D02*
X6820000Y22752000D01*
X6820000Y24530000D02*
X6820000Y21990000D01*
X6820000Y23768000D02*
X6820000Y27070000D01*
X6312000Y23260000D02*
X6820000Y23768000D01*
X11011000Y31261000D02*
X8471000Y31261000D01*
X11011000Y31261000D02*
X10376000Y31261000D01*
X13297000Y31261000D02*
X11011000Y31261000D01*
X6820000Y28451000D02*
X6820000Y27070000D01*
X6820000Y29610000D02*
X6820000Y28451000D01*
X8471000Y31261000D02*
X6820000Y29610000D01*
D27*
X26187500Y19196000D02*
X25235000Y19196000D01*
X23131250Y21299750D02*
X22750250Y21299750D01*
X25235000Y19196000D02*
X23131250Y21299750D01*
D25*
X22750250Y21299750D02*
X18443842Y21299750D01*
D27*
G36*
X27648000Y37301907D02*
G01*
X24534659Y35433902D01*
X24514669Y35419062D01*
X24497958Y35400607D01*
X24485168Y35379247D01*
X24476792Y35355802D01*
X24473000Y35325000D01*
X24473000Y28467927D01*
X24468338Y28467000D01*
X17742000Y28467000D01*
X17742000Y44162394D01*
X18937606Y45358000D01*
X27648000Y45358000D01*
X27648000Y37301907D01*
G37*
X27648000Y37301907D02*
X24534659Y35433902D01*
X24514669Y35419062D01*
X24497958Y35400607D01*
X24485168Y35379247D01*
X24476792Y35355802D01*
X24473000Y35325000D01*
X24473000Y28467927D01*
X24468338Y28467000D01*
X17742000Y28467000D01*
X17742000Y44162394D01*
X18937606Y45358000D01*
X27648000Y45358000D01*
X27648000Y37301907D01*
G36*
X46063000Y30932606D02*
G01*
X43597394Y28467000D01*
X27267000Y28467000D01*
X27267000Y34611510D01*
X30979980Y36468000D01*
X36030000Y36468000D01*
X36054776Y36470440D01*
X36078601Y36477667D01*
X36100447Y36489330D01*
X38005447Y37759330D01*
X38024709Y37775104D01*
X38040523Y37794332D01*
X38052282Y37816276D01*
X38059534Y37840093D01*
X38062000Y37865000D01*
X38062000Y45358000D01*
X46063000Y45358000D01*
X46063000Y30932606D01*
G37*
X46063000Y30932606D02*
X43597394Y28467000D01*
X27267000Y28467000D01*
X27267000Y34611510D01*
X30979980Y36468000D01*
X36030000Y36468000D01*
X36054776Y36470440D01*
X36078601Y36477667D01*
X36100447Y36489330D01*
X38005447Y37759330D01*
X38024709Y37775104D01*
X38040523Y37794332D01*
X38052282Y37816276D01*
X38059534Y37840093D01*
X38062000Y37865000D01*
X38062000Y45358000D01*
X46063000Y45358000D01*
X46063000Y30932606D01*
G36*
X36538000Y39187606D02*
G01*
X35342394Y37992000D01*
X29172000Y37992000D01*
X29172000Y45485000D01*
X29169560Y45509776D01*
X29158592Y45541796D01*
X28523592Y46811796D01*
X28510329Y46832866D01*
X28493211Y46850943D01*
X28472894Y46865333D01*
X28450161Y46875483D01*
X28425884Y46881003D01*
X28410000Y46882000D01*
X18250000Y46882000D01*
X18225224Y46879560D01*
X18201399Y46872333D01*
X18179443Y46860597D01*
X18160197Y46844803D01*
X16255197Y44939803D01*
X16239403Y44920557D01*
X16227667Y44898601D01*
X16220440Y44874776D01*
X16218000Y44850000D01*
X16218000Y35452000D01*
X9487000Y35452000D01*
X9487000Y50512394D01*
X11952606Y52978000D01*
X36538000Y52978000D01*
X36538000Y39187606D01*
G37*
X36538000Y39187606D02*
X35342394Y37992000D01*
X29172000Y37992000D01*
X29172000Y45485000D01*
X29169560Y45509776D01*
X29158592Y45541796D01*
X28523592Y46811796D01*
X28510329Y46832866D01*
X28493211Y46850943D01*
X28472894Y46865333D01*
X28450161Y46875483D01*
X28425884Y46881003D01*
X28410000Y46882000D01*
X18250000Y46882000D01*
X18225224Y46879560D01*
X18201399Y46872333D01*
X18179443Y46860597D01*
X18160197Y46844803D01*
X16255197Y44939803D01*
X16239403Y44920557D01*
X16227667Y44898601D01*
X16220440Y44874776D01*
X16218000Y44850000D01*
X16218000Y35452000D01*
X9487000Y35452000D01*
X9487000Y50512394D01*
X11952606Y52978000D01*
X36538000Y52978000D01*
X36538000Y39187606D01*
G36*
X37173000Y13100000D02*
G01*
X37175440Y13075224D01*
X37182667Y13051399D01*
X37194403Y13029443D01*
X37210197Y13010197D01*
X37223800Y12998400D01*
X39712308Y11132019D01*
X39650880Y5480561D01*
X11309338Y5606804D01*
X-673000Y15066544D01*
X-673000Y17837865D01*
X-555557Y17775090D01*
X-418517Y17733520D01*
X-276000Y17719483D01*
X1724000Y17719483D01*
X1866517Y17733520D01*
X2003557Y17775090D01*
X2074013Y17812750D01*
X2597250Y17815000D01*
X2756000Y17973750D01*
X2756000Y19323000D01*
X2736000Y19323000D01*
X2736000Y19577000D01*
X2756000Y19577000D01*
X2756000Y19597000D01*
X3010000Y19597000D01*
X3010000Y19577000D01*
X3030000Y19577000D01*
X3030000Y19323000D01*
X3010000Y19323000D01*
X3010000Y17973750D01*
X3168750Y17815000D01*
X3870501Y17811982D01*
X3870501Y17137508D01*
X3749831Y16956913D01*
X3661520Y16743714D01*
X3616500Y16517383D01*
X3616500Y16286617D01*
X3661520Y16060286D01*
X3749831Y15847087D01*
X3878037Y15655213D01*
X4041213Y15492037D01*
X4233087Y15363831D01*
X4446286Y15275520D01*
X4672617Y15230500D01*
X4903383Y15230500D01*
X5129714Y15275520D01*
X5342913Y15363831D01*
X5534787Y15492037D01*
X5697963Y15655213D01*
X5826169Y15847087D01*
X5914480Y16060286D01*
X5959500Y16286617D01*
X5959500Y16517383D01*
X5914480Y16743714D01*
X5826169Y16956913D01*
X5705500Y17137507D01*
X5705500Y17730761D01*
X5820000Y17719483D01*
X7820000Y17719483D01*
X7962517Y17733520D01*
X8099557Y17775090D01*
X8170013Y17812750D01*
X8693250Y17815000D01*
X8852000Y17973750D01*
X8852000Y19323000D01*
X9106000Y19323000D01*
X9106000Y17973750D01*
X9264750Y17815000D01*
X9979000Y17811928D01*
X10103482Y17824188D01*
X10223180Y17860498D01*
X10333494Y17919463D01*
X10430185Y17998815D01*
X10509537Y18095506D01*
X10568502Y18205820D01*
X10604812Y18325518D01*
X10617072Y18450000D01*
X10614000Y19164250D01*
X10455250Y19323000D01*
X9106000Y19323000D01*
X8852000Y19323000D01*
X8832000Y19323000D01*
X8832000Y19577000D01*
X8852000Y19577000D01*
X8852000Y19597000D01*
X9106000Y19597000D01*
X9106000Y19577000D01*
X10455250Y19577000D01*
X10614000Y19735750D01*
X10617072Y20450000D01*
X10604812Y20574482D01*
X10596277Y20602619D01*
X10653910Y20710443D01*
X10695480Y20847483D01*
X10709517Y20990000D01*
X10709517Y21072500D01*
X13424960Y21072500D01*
X13967959Y20529500D01*
X11410097Y17971637D01*
X11375092Y17942909D01*
X11346364Y17907904D01*
X11346361Y17907901D01*
X11322350Y17878643D01*
X11260437Y17803202D01*
X11248517Y17780901D01*
X11175239Y17643810D01*
X11122776Y17470861D01*
X11115797Y17400000D01*
X11109500Y17336069D01*
X11109500Y17336062D01*
X11105062Y17291000D01*
X11109500Y17245938D01*
X11109500Y17137507D01*
X10988831Y16956913D01*
X10900520Y16743714D01*
X10855500Y16517383D01*
X10855500Y16286617D01*
X10900520Y16060286D01*
X10988831Y15847087D01*
X11109501Y15666492D01*
X11109500Y11113062D01*
X11105062Y11068000D01*
X11109500Y11022938D01*
X11109500Y11022932D01*
X11110891Y11008811D01*
X11122776Y10888139D01*
X11129308Y10866607D01*
X11175239Y10715190D01*
X11260436Y10555799D01*
X11375091Y10416091D01*
X11410101Y10387359D01*
X15029363Y6768096D01*
X15058091Y6733091D01*
X15197798Y6618436D01*
X15357189Y6533239D01*
X15530139Y6480776D01*
X15664931Y6467500D01*
X15664938Y6467500D01*
X15710000Y6463062D01*
X15755062Y6467500D01*
X20490938Y6467500D01*
X20536000Y6463062D01*
X20581062Y6467500D01*
X20581069Y6467500D01*
X20715861Y6480776D01*
X20888811Y6533239D01*
X21048202Y6618436D01*
X21187909Y6733091D01*
X21216641Y6768101D01*
X21946904Y7498363D01*
X21981909Y7527091D01*
X21988430Y7535037D01*
X22029622Y7552099D01*
X22271533Y7713739D01*
X22390750Y7832956D01*
X22436157Y7787549D01*
X22552613Y7904005D01*
X22618137Y7665140D01*
X22865116Y7549240D01*
X23129960Y7483750D01*
X23402492Y7471188D01*
X23672238Y7512035D01*
X23928832Y7604723D01*
X24041863Y7665140D01*
X24107388Y7904007D01*
X23330000Y8681395D01*
X23315858Y8667252D01*
X23136253Y8846857D01*
X23150395Y8861000D01*
X23509605Y8861000D01*
X24286993Y8083612D01*
X24525860Y8149137D01*
X24641760Y8396116D01*
X24707250Y8660960D01*
X24719812Y8933492D01*
X24678965Y9203238D01*
X24586277Y9459832D01*
X24525860Y9572863D01*
X24286993Y9638388D01*
X23509605Y8861000D01*
X23150395Y8861000D01*
X23136253Y8875142D01*
X23315858Y9054747D01*
X23330000Y9040605D01*
X24107388Y9817993D01*
X24041863Y10056860D01*
X23842319Y10150500D01*
X29886406Y10150500D01*
X29858446Y10127554D01*
X29767597Y10016853D01*
X29700090Y9890557D01*
X29658520Y9753517D01*
X29644483Y9611000D01*
X29644483Y8111000D01*
X29658520Y7968483D01*
X29700090Y7831443D01*
X29767597Y7705147D01*
X29858446Y7594446D01*
X29969147Y7503597D01*
X30095443Y7436090D01*
X30232483Y7394520D01*
X30375000Y7380483D01*
X31875000Y7380483D01*
X32017517Y7394520D01*
X32154557Y7436090D01*
X32280853Y7503597D01*
X32378291Y7583562D01*
X32425378Y7552099D01*
X32694175Y7440760D01*
X32979528Y7384000D01*
X33270472Y7384000D01*
X33555825Y7440760D01*
X33824622Y7552099D01*
X34066533Y7713739D01*
X34125000Y7772206D01*
X34183467Y7713739D01*
X34425378Y7552099D01*
X34694175Y7440760D01*
X34979528Y7384000D01*
X35270472Y7384000D01*
X35555825Y7440760D01*
X35824622Y7552099D01*
X36066533Y7713739D01*
X36185750Y7832956D01*
X36231157Y7787549D01*
X36347613Y7904005D01*
X36413137Y7665140D01*
X36660116Y7549240D01*
X36924960Y7483750D01*
X37197492Y7471188D01*
X37467238Y7512035D01*
X37723832Y7604723D01*
X37836863Y7665140D01*
X37902388Y7904007D01*
X37125000Y8681395D01*
X37110858Y8667252D01*
X36931253Y8846857D01*
X36945395Y8861000D01*
X37304605Y8861000D01*
X38081993Y8083612D01*
X38320860Y8149137D01*
X38436760Y8396116D01*
X38502250Y8660960D01*
X38514812Y8933492D01*
X38473965Y9203238D01*
X38381277Y9459832D01*
X38320860Y9572863D01*
X38081993Y9638388D01*
X37304605Y8861000D01*
X36945395Y8861000D01*
X36931253Y8875142D01*
X37110858Y9054747D01*
X37125000Y9040605D01*
X37902388Y9817993D01*
X37836863Y10056860D01*
X37589884Y10172760D01*
X37325040Y10238250D01*
X37052508Y10250812D01*
X36782762Y10209965D01*
X36526168Y10117277D01*
X36413137Y10056860D01*
X36347613Y9817995D01*
X36231157Y9934451D01*
X36185750Y9889044D01*
X36066533Y10008261D01*
X36042500Y10024319D01*
X36042500Y10911938D01*
X36046938Y10957000D01*
X36042500Y11002062D01*
X36042500Y11002069D01*
X36029224Y11136861D01*
X36025570Y11148909D01*
X35976761Y11309811D01*
X35972491Y11317799D01*
X35891564Y11469202D01*
X35776909Y11608909D01*
X35741904Y11637637D01*
X33853143Y13526397D01*
X33853139Y13526402D01*
X33403092Y13976448D01*
X33403092Y16488544D01*
X33493446Y16378446D01*
X33604147Y16287597D01*
X33730443Y16220090D01*
X33867483Y16178520D01*
X34010000Y16164483D01*
X35510000Y16164483D01*
X35652517Y16178520D01*
X35789557Y16220090D01*
X35915853Y16287597D01*
X36026554Y16378446D01*
X36117403Y16489147D01*
X36184910Y16615443D01*
X36226480Y16752483D01*
X36240517Y16895000D01*
X36240517Y18195000D01*
X36226480Y18337517D01*
X36184910Y18474557D01*
X36117403Y18600853D01*
X36115414Y18603276D01*
X36135812Y18670518D01*
X36148072Y18795000D01*
X36145000Y19159250D01*
X35986250Y19318000D01*
X34887000Y19318000D01*
X34887000Y19298000D01*
X34633000Y19298000D01*
X34633000Y19318000D01*
X33533750Y19318000D01*
X33375000Y19159250D01*
X33371928Y18795000D01*
X33384188Y18670518D01*
X33404586Y18603276D01*
X33402597Y18600853D01*
X33335090Y18474557D01*
X33331433Y18462500D01*
X32911650Y18462500D01*
X32866591Y18466938D01*
X32821532Y18462500D01*
X32821523Y18462500D01*
X32767880Y18457217D01*
X32871909Y18542591D01*
X32986564Y18682298D01*
X33071761Y18841689D01*
X33124224Y19014639D01*
X33137500Y19149431D01*
X33137500Y20095000D01*
X33371928Y20095000D01*
X33375000Y19730750D01*
X33533750Y19572000D01*
X34633000Y19572000D01*
X34633000Y20571250D01*
X34887000Y20571250D01*
X34887000Y19572000D01*
X35986250Y19572000D01*
X36145000Y19730750D01*
X36148072Y20095000D01*
X36135812Y20219482D01*
X36099502Y20339180D01*
X36040537Y20449494D01*
X35961185Y20546185D01*
X35864494Y20625537D01*
X35754180Y20684502D01*
X35634482Y20720812D01*
X35510000Y20733072D01*
X35045750Y20730000D01*
X34887000Y20571250D01*
X34633000Y20571250D01*
X34474250Y20730000D01*
X34010000Y20733072D01*
X33885518Y20720812D01*
X33765820Y20684502D01*
X33655506Y20625537D01*
X33558815Y20546185D01*
X33479463Y20449494D01*
X33420498Y20339180D01*
X33384188Y20219482D01*
X33371928Y20095000D01*
X33137500Y20095000D01*
X33137500Y22536098D01*
X33249557Y22570090D01*
X33375853Y22637597D01*
X33486554Y22728446D01*
X33532655Y22784621D01*
X33620446Y22677646D01*
X33731147Y22586797D01*
X33857443Y22519290D01*
X33994483Y22477720D01*
X34137000Y22463683D01*
X35637000Y22463683D01*
X35779517Y22477720D01*
X35916557Y22519290D01*
X36042853Y22586797D01*
X36153554Y22677646D01*
X36244403Y22788347D01*
X36311910Y22914643D01*
X36353480Y23051683D01*
X36367517Y23194200D01*
X36367517Y24494200D01*
X36353480Y24636717D01*
X36311910Y24773757D01*
X36244403Y24900053D01*
X36242414Y24902476D01*
X36262812Y24969718D01*
X36275072Y25094200D01*
X36272000Y25458450D01*
X36113250Y25617200D01*
X35014000Y25617200D01*
X35014000Y25597200D01*
X34760000Y25597200D01*
X34760000Y25617200D01*
X34740000Y25617200D01*
X34740000Y25871200D01*
X34760000Y25871200D01*
X34760000Y25891200D01*
X35014000Y25891200D01*
X35014000Y25871200D01*
X36113250Y25871200D01*
X36272000Y26029950D01*
X36275072Y26394200D01*
X36262812Y26518682D01*
X36226502Y26638380D01*
X36167537Y26748694D01*
X36088185Y26845385D01*
X35991494Y26924737D01*
X35957327Y26943000D01*
X37173000Y26943000D01*
X37173000Y13100000D01*
G37*
X37173000Y13100000D02*
X37175440Y13075224D01*
X37182667Y13051399D01*
X37194403Y13029443D01*
X37210197Y13010197D01*
X37223800Y12998400D01*
X39712308Y11132019D01*
X39650880Y5480561D01*
X11309338Y5606804D01*
X-673000Y15066544D01*
X-673000Y17837865D01*
X-555557Y17775090D01*
X-418517Y17733520D01*
X-276000Y17719483D01*
X1724000Y17719483D01*
X1866517Y17733520D01*
X2003557Y17775090D01*
X2074013Y17812750D01*
X2597250Y17815000D01*
X2756000Y17973750D01*
X2756000Y19323000D01*
X2736000Y19323000D01*
X2736000Y19577000D01*
X2756000Y19577000D01*
X2756000Y19597000D01*
X3010000Y19597000D01*
X3010000Y19577000D01*
X3030000Y19577000D01*
X3030000Y19323000D01*
X3010000Y19323000D01*
X3010000Y17973750D01*
X3168750Y17815000D01*
X3870501Y17811982D01*
X3870501Y17137508D01*
X3749831Y16956913D01*
X3661520Y16743714D01*
X3616500Y16517383D01*
X3616500Y16286617D01*
X3661520Y16060286D01*
X3749831Y15847087D01*
X3878037Y15655213D01*
X4041213Y15492037D01*
X4233087Y15363831D01*
X4446286Y15275520D01*
X4672617Y15230500D01*
X4903383Y15230500D01*
X5129714Y15275520D01*
X5342913Y15363831D01*
X5534787Y15492037D01*
X5697963Y15655213D01*
X5826169Y15847087D01*
X5914480Y16060286D01*
X5959500Y16286617D01*
X5959500Y16517383D01*
X5914480Y16743714D01*
X5826169Y16956913D01*
X5705500Y17137507D01*
X5705500Y17730761D01*
X5820000Y17719483D01*
X7820000Y17719483D01*
X7962517Y17733520D01*
X8099557Y17775090D01*
X8170013Y17812750D01*
X8693250Y17815000D01*
X8852000Y17973750D01*
X8852000Y19323000D01*
X9106000Y19323000D01*
X9106000Y17973750D01*
X9264750Y17815000D01*
X9979000Y17811928D01*
X10103482Y17824188D01*
X10223180Y17860498D01*
X10333494Y17919463D01*
X10430185Y17998815D01*
X10509537Y18095506D01*
X10568502Y18205820D01*
X10604812Y18325518D01*
X10617072Y18450000D01*
X10614000Y19164250D01*
X10455250Y19323000D01*
X9106000Y19323000D01*
X8852000Y19323000D01*
X8832000Y19323000D01*
X8832000Y19577000D01*
X8852000Y19577000D01*
X8852000Y19597000D01*
X9106000Y19597000D01*
X9106000Y19577000D01*
X10455250Y19577000D01*
X10614000Y19735750D01*
X10617072Y20450000D01*
X10604812Y20574482D01*
X10596277Y20602619D01*
X10653910Y20710443D01*
X10695480Y20847483D01*
X10709517Y20990000D01*
X10709517Y21072500D01*
X13424960Y21072500D01*
X13967959Y20529500D01*
X11410097Y17971637D01*
X11375092Y17942909D01*
X11346364Y17907904D01*
X11346361Y17907901D01*
X11322350Y17878643D01*
X11260437Y17803202D01*
X11248517Y17780901D01*
X11175239Y17643810D01*
X11122776Y17470861D01*
X11115797Y17400000D01*
X11109500Y17336069D01*
X11109500Y17336062D01*
X11105062Y17291000D01*
X11109500Y17245938D01*
X11109500Y17137507D01*
X10988831Y16956913D01*
X10900520Y16743714D01*
X10855500Y16517383D01*
X10855500Y16286617D01*
X10900520Y16060286D01*
X10988831Y15847087D01*
X11109501Y15666492D01*
X11109500Y11113062D01*
X11105062Y11068000D01*
X11109500Y11022938D01*
X11109500Y11022932D01*
X11110891Y11008811D01*
X11122776Y10888139D01*
X11129308Y10866607D01*
X11175239Y10715190D01*
X11260436Y10555799D01*
X11375091Y10416091D01*
X11410101Y10387359D01*
X15029363Y6768096D01*
X15058091Y6733091D01*
X15197798Y6618436D01*
X15357189Y6533239D01*
X15530139Y6480776D01*
X15664931Y6467500D01*
X15664938Y6467500D01*
X15710000Y6463062D01*
X15755062Y6467500D01*
X20490938Y6467500D01*
X20536000Y6463062D01*
X20581062Y6467500D01*
X20581069Y6467500D01*
X20715861Y6480776D01*
X20888811Y6533239D01*
X21048202Y6618436D01*
X21187909Y6733091D01*
X21216641Y6768101D01*
X21946904Y7498363D01*
X21981909Y7527091D01*
X21988430Y7535037D01*
X22029622Y7552099D01*
X22271533Y7713739D01*
X22390750Y7832956D01*
X22436157Y7787549D01*
X22552613Y7904005D01*
X22618137Y7665140D01*
X22865116Y7549240D01*
X23129960Y7483750D01*
X23402492Y7471188D01*
X23672238Y7512035D01*
X23928832Y7604723D01*
X24041863Y7665140D01*
X24107388Y7904007D01*
X23330000Y8681395D01*
X23315858Y8667252D01*
X23136253Y8846857D01*
X23150395Y8861000D01*
X23509605Y8861000D01*
X24286993Y8083612D01*
X24525860Y8149137D01*
X24641760Y8396116D01*
X24707250Y8660960D01*
X24719812Y8933492D01*
X24678965Y9203238D01*
X24586277Y9459832D01*
X24525860Y9572863D01*
X24286993Y9638388D01*
X23509605Y8861000D01*
X23150395Y8861000D01*
X23136253Y8875142D01*
X23315858Y9054747D01*
X23330000Y9040605D01*
X24107388Y9817993D01*
X24041863Y10056860D01*
X23842319Y10150500D01*
X29886406Y10150500D01*
X29858446Y10127554D01*
X29767597Y10016853D01*
X29700090Y9890557D01*
X29658520Y9753517D01*
X29644483Y9611000D01*
X29644483Y8111000D01*
X29658520Y7968483D01*
X29700090Y7831443D01*
X29767597Y7705147D01*
X29858446Y7594446D01*
X29969147Y7503597D01*
X30095443Y7436090D01*
X30232483Y7394520D01*
X30375000Y7380483D01*
X31875000Y7380483D01*
X32017517Y7394520D01*
X32154557Y7436090D01*
X32280853Y7503597D01*
X32378291Y7583562D01*
X32425378Y7552099D01*
X32694175Y7440760D01*
X32979528Y7384000D01*
X33270472Y7384000D01*
X33555825Y7440760D01*
X33824622Y7552099D01*
X34066533Y7713739D01*
X34125000Y7772206D01*
X34183467Y7713739D01*
X34425378Y7552099D01*
X34694175Y7440760D01*
X34979528Y7384000D01*
X35270472Y7384000D01*
X35555825Y7440760D01*
X35824622Y7552099D01*
X36066533Y7713739D01*
X36185750Y7832956D01*
X36231157Y7787549D01*
X36347613Y7904005D01*
X36413137Y7665140D01*
X36660116Y7549240D01*
X36924960Y7483750D01*
X37197492Y7471188D01*
X37467238Y7512035D01*
X37723832Y7604723D01*
X37836863Y7665140D01*
X37902388Y7904007D01*
X37125000Y8681395D01*
X37110858Y8667252D01*
X36931253Y8846857D01*
X36945395Y8861000D01*
X37304605Y8861000D01*
X38081993Y8083612D01*
X38320860Y8149137D01*
X38436760Y8396116D01*
X38502250Y8660960D01*
X38514812Y8933492D01*
X38473965Y9203238D01*
X38381277Y9459832D01*
X38320860Y9572863D01*
X38081993Y9638388D01*
X37304605Y8861000D01*
X36945395Y8861000D01*
X36931253Y8875142D01*
X37110858Y9054747D01*
X37125000Y9040605D01*
X37902388Y9817993D01*
X37836863Y10056860D01*
X37589884Y10172760D01*
X37325040Y10238250D01*
X37052508Y10250812D01*
X36782762Y10209965D01*
X36526168Y10117277D01*
X36413137Y10056860D01*
X36347613Y9817995D01*
X36231157Y9934451D01*
X36185750Y9889044D01*
X36066533Y10008261D01*
X36042500Y10024319D01*
X36042500Y10911938D01*
X36046938Y10957000D01*
X36042500Y11002062D01*
X36042500Y11002069D01*
X36029224Y11136861D01*
X36025570Y11148909D01*
X35976761Y11309811D01*
X35972491Y11317799D01*
X35891564Y11469202D01*
X35776909Y11608909D01*
X35741904Y11637637D01*
X33853143Y13526397D01*
X33853139Y13526402D01*
X33403092Y13976448D01*
X33403092Y16488544D01*
X33493446Y16378446D01*
X33604147Y16287597D01*
X33730443Y16220090D01*
X33867483Y16178520D01*
X34010000Y16164483D01*
X35510000Y16164483D01*
X35652517Y16178520D01*
X35789557Y16220090D01*
X35915853Y16287597D01*
X36026554Y16378446D01*
X36117403Y16489147D01*
X36184910Y16615443D01*
X36226480Y16752483D01*
X36240517Y16895000D01*
X36240517Y18195000D01*
X36226480Y18337517D01*
X36184910Y18474557D01*
X36117403Y18600853D01*
X36115414Y18603276D01*
X36135812Y18670518D01*
X36148072Y18795000D01*
X36145000Y19159250D01*
X35986250Y19318000D01*
X34887000Y19318000D01*
X34887000Y19298000D01*
X34633000Y19298000D01*
X34633000Y19318000D01*
X33533750Y19318000D01*
X33375000Y19159250D01*
X33371928Y18795000D01*
X33384188Y18670518D01*
X33404586Y18603276D01*
X33402597Y18600853D01*
X33335090Y18474557D01*
X33331433Y18462500D01*
X32911650Y18462500D01*
X32866591Y18466938D01*
X32821532Y18462500D01*
X32821523Y18462500D01*
X32767880Y18457217D01*
X32871909Y18542591D01*
X32986564Y18682298D01*
X33071761Y18841689D01*
X33124224Y19014639D01*
X33137500Y19149431D01*
X33137500Y20095000D01*
X33371928Y20095000D01*
X33375000Y19730750D01*
X33533750Y19572000D01*
X34633000Y19572000D01*
X34633000Y20571250D01*
X34887000Y20571250D01*
X34887000Y19572000D01*
X35986250Y19572000D01*
X36145000Y19730750D01*
X36148072Y20095000D01*
X36135812Y20219482D01*
X36099502Y20339180D01*
X36040537Y20449494D01*
X35961185Y20546185D01*
X35864494Y20625537D01*
X35754180Y20684502D01*
X35634482Y20720812D01*
X35510000Y20733072D01*
X35045750Y20730000D01*
X34887000Y20571250D01*
X34633000Y20571250D01*
X34474250Y20730000D01*
X34010000Y20733072D01*
X33885518Y20720812D01*
X33765820Y20684502D01*
X33655506Y20625537D01*
X33558815Y20546185D01*
X33479463Y20449494D01*
X33420498Y20339180D01*
X33384188Y20219482D01*
X33371928Y20095000D01*
X33137500Y20095000D01*
X33137500Y22536098D01*
X33249557Y22570090D01*
X33375853Y22637597D01*
X33486554Y22728446D01*
X33532655Y22784621D01*
X33620446Y22677646D01*
X33731147Y22586797D01*
X33857443Y22519290D01*
X33994483Y22477720D01*
X34137000Y22463683D01*
X35637000Y22463683D01*
X35779517Y22477720D01*
X35916557Y22519290D01*
X36042853Y22586797D01*
X36153554Y22677646D01*
X36244403Y22788347D01*
X36311910Y22914643D01*
X36353480Y23051683D01*
X36367517Y23194200D01*
X36367517Y24494200D01*
X36353480Y24636717D01*
X36311910Y24773757D01*
X36244403Y24900053D01*
X36242414Y24902476D01*
X36262812Y24969718D01*
X36275072Y25094200D01*
X36272000Y25458450D01*
X36113250Y25617200D01*
X35014000Y25617200D01*
X35014000Y25597200D01*
X34760000Y25597200D01*
X34760000Y25617200D01*
X34740000Y25617200D01*
X34740000Y25871200D01*
X34760000Y25871200D01*
X34760000Y25891200D01*
X35014000Y25891200D01*
X35014000Y25871200D01*
X36113250Y25871200D01*
X36272000Y26029950D01*
X36275072Y26394200D01*
X36262812Y26518682D01*
X36226502Y26638380D01*
X36167537Y26748694D01*
X36088185Y26845385D01*
X35991494Y26924737D01*
X35957327Y26943000D01*
X37173000Y26943000D01*
X37173000Y13100000D01*
G36*
X28877586Y17338357D02*
G01*
X28894616Y17336680D01*
X29003048Y17326000D01*
X29003054Y17326000D01*
X29044999Y17321869D01*
X29086944Y17326000D01*
X29203657Y17326000D01*
X29201983Y17309000D01*
X29201983Y17019000D01*
X29216020Y16876483D01*
X29257590Y16739443D01*
X29325097Y16613147D01*
X29415946Y16502446D01*
X29526647Y16411597D01*
X29652943Y16344090D01*
X29789983Y16302520D01*
X29932500Y16288483D01*
X31332500Y16288483D01*
X31475017Y16302520D01*
X31499676Y16310000D01*
X31568093Y16310000D01*
X31568092Y13641470D01*
X31563654Y13596408D01*
X31568092Y13551346D01*
X31568092Y13551340D01*
X31581368Y13416548D01*
X31633831Y13243598D01*
X31719028Y13084207D01*
X31833683Y12944499D01*
X31868693Y12915767D01*
X32555598Y12228861D01*
X32555603Y12228857D01*
X34207501Y10576958D01*
X34207501Y10024320D01*
X34183467Y10008261D01*
X34125000Y9949794D01*
X34066533Y10008261D01*
X34036428Y10028376D01*
X34029224Y10101521D01*
X33976761Y10274471D01*
X33891564Y10433862D01*
X33856868Y10476139D01*
X33805639Y10538562D01*
X33805637Y10538564D01*
X33776909Y10573569D01*
X33741904Y10602297D01*
X32659301Y11684899D01*
X32630569Y11719909D01*
X32490862Y11834564D01*
X32331471Y11919761D01*
X32158521Y11972224D01*
X32023729Y11985500D01*
X32023722Y11985500D01*
X31978660Y11989938D01*
X31933598Y11985500D01*
X28883000Y11985500D01*
X28883000Y16995045D01*
X28887132Y17037000D01*
X28870644Y17204413D01*
X28825191Y17354251D01*
X28877586Y17338357D01*
G37*
X28877586Y17338357D02*
X28894616Y17336680D01*
X29003048Y17326000D01*
X29003054Y17326000D01*
X29044999Y17321869D01*
X29086944Y17326000D01*
X29203657Y17326000D01*
X29201983Y17309000D01*
X29201983Y17019000D01*
X29216020Y16876483D01*
X29257590Y16739443D01*
X29325097Y16613147D01*
X29415946Y16502446D01*
X29526647Y16411597D01*
X29652943Y16344090D01*
X29789983Y16302520D01*
X29932500Y16288483D01*
X31332500Y16288483D01*
X31475017Y16302520D01*
X31499676Y16310000D01*
X31568093Y16310000D01*
X31568092Y13641470D01*
X31563654Y13596408D01*
X31568092Y13551346D01*
X31568092Y13551340D01*
X31581368Y13416548D01*
X31633831Y13243598D01*
X31719028Y13084207D01*
X31833683Y12944499D01*
X31868693Y12915767D01*
X32555598Y12228861D01*
X32555603Y12228857D01*
X34207501Y10576958D01*
X34207501Y10024320D01*
X34183467Y10008261D01*
X34125000Y9949794D01*
X34066533Y10008261D01*
X34036428Y10028376D01*
X34029224Y10101521D01*
X33976761Y10274471D01*
X33891564Y10433862D01*
X33856868Y10476139D01*
X33805639Y10538562D01*
X33805637Y10538564D01*
X33776909Y10573569D01*
X33741904Y10602297D01*
X32659301Y11684899D01*
X32630569Y11719909D01*
X32490862Y11834564D01*
X32331471Y11919761D01*
X32158521Y11972224D01*
X32023729Y11985500D01*
X32023722Y11985500D01*
X31978660Y11989938D01*
X31933598Y11985500D01*
X28883000Y11985500D01*
X28883000Y16995045D01*
X28887132Y17037000D01*
X28870644Y17204413D01*
X28825191Y17354251D01*
X28877586Y17338357D01*
G36*
X16218000Y27070000D02*
G01*
X16220440Y27045224D01*
X16227667Y27021399D01*
X16239403Y26999443D01*
X16255197Y26980197D01*
X16274443Y26964403D01*
X16296399Y26952667D01*
X16320224Y26945440D01*
X16345000Y26943000D01*
X16767640Y26943000D01*
X16761928Y26885000D01*
X16765000Y26720750D01*
X16923750Y26562000D01*
X18123000Y26562000D01*
X18123000Y26582000D01*
X18377000Y26582000D01*
X18377000Y26562000D01*
X18397000Y26562000D01*
X18397000Y26308000D01*
X18377000Y26308000D01*
X18377000Y25508750D01*
X18535750Y25350000D01*
X19100000Y25346928D01*
X19224482Y25359188D01*
X19309483Y25384973D01*
X19309483Y25145000D01*
X19323520Y25002483D01*
X19365090Y24865443D01*
X19376017Y24845000D01*
X19365090Y24824557D01*
X19346285Y24762564D01*
X19294189Y24746761D01*
X19214616Y24704228D01*
X19100000Y24715517D01*
X17400000Y24715517D01*
X17257483Y24701480D01*
X17120443Y24659910D01*
X16994147Y24592403D01*
X16883446Y24501554D01*
X16792597Y24390853D01*
X16738986Y24290555D01*
X15306710Y25722830D01*
X15306710Y25985000D01*
X16761928Y25985000D01*
X16774188Y25860518D01*
X16810498Y25740820D01*
X16869463Y25630506D01*
X16948815Y25533815D01*
X17045506Y25454463D01*
X17155820Y25395498D01*
X17275518Y25359188D01*
X17400000Y25346928D01*
X17964250Y25350000D01*
X18123000Y25508750D01*
X18123000Y26308000D01*
X16923750Y26308000D01*
X16765000Y26149250D01*
X16761928Y25985000D01*
X15306710Y25985000D01*
X15306710Y30123732D01*
X15311148Y30168791D01*
X15306710Y30213850D01*
X15306710Y30213859D01*
X15293434Y30348651D01*
X15240971Y30521601D01*
X15155774Y30680992D01*
X15091056Y30759851D01*
X15069848Y30785693D01*
X15069847Y30785694D01*
X15041119Y30820699D01*
X15006114Y30849427D01*
X14467540Y31388000D01*
X16218000Y31388000D01*
X16218000Y27070000D01*
G37*
X16218000Y27070000D02*
X16220440Y27045224D01*
X16227667Y27021399D01*
X16239403Y26999443D01*
X16255197Y26980197D01*
X16274443Y26964403D01*
X16296399Y26952667D01*
X16320224Y26945440D01*
X16345000Y26943000D01*
X16767640Y26943000D01*
X16761928Y26885000D01*
X16765000Y26720750D01*
X16923750Y26562000D01*
X18123000Y26562000D01*
X18123000Y26582000D01*
X18377000Y26582000D01*
X18377000Y26562000D01*
X18397000Y26562000D01*
X18397000Y26308000D01*
X18377000Y26308000D01*
X18377000Y25508750D01*
X18535750Y25350000D01*
X19100000Y25346928D01*
X19224482Y25359188D01*
X19309483Y25384973D01*
X19309483Y25145000D01*
X19323520Y25002483D01*
X19365090Y24865443D01*
X19376017Y24845000D01*
X19365090Y24824557D01*
X19346285Y24762564D01*
X19294189Y24746761D01*
X19214616Y24704228D01*
X19100000Y24715517D01*
X17400000Y24715517D01*
X17257483Y24701480D01*
X17120443Y24659910D01*
X16994147Y24592403D01*
X16883446Y24501554D01*
X16792597Y24390853D01*
X16738986Y24290555D01*
X15306710Y25722830D01*
X15306710Y25985000D01*
X16761928Y25985000D01*
X16774188Y25860518D01*
X16810498Y25740820D01*
X16869463Y25630506D01*
X16948815Y25533815D01*
X17045506Y25454463D01*
X17155820Y25395498D01*
X17275518Y25359188D01*
X17400000Y25346928D01*
X17964250Y25350000D01*
X18123000Y25508750D01*
X18123000Y26308000D01*
X16923750Y26308000D01*
X16765000Y26149250D01*
X16761928Y25985000D01*
X15306710Y25985000D01*
X15306710Y30123732D01*
X15311148Y30168791D01*
X15306710Y30213850D01*
X15306710Y30213859D01*
X15293434Y30348651D01*
X15240971Y30521601D01*
X15155774Y30680992D01*
X15091056Y30759851D01*
X15069848Y30785693D01*
X15069847Y30785694D01*
X15041119Y30820699D01*
X15006114Y30849427D01*
X14467540Y31388000D01*
X16218000Y31388000D01*
X16218000Y27070000D01*
G36*
X27520090Y26889557D02*
G01*
X27478520Y26752517D01*
X27464483Y26610000D01*
X27464483Y25710000D01*
X27478520Y25567483D01*
X27520090Y25430443D01*
X27587597Y25304147D01*
X27678446Y25193446D01*
X27789147Y25102597D01*
X27915443Y25035090D01*
X28052483Y24993520D01*
X28192155Y24979763D01*
X28193239Y24976190D01*
X28204465Y24955188D01*
X28278437Y24816798D01*
X28313760Y24773757D01*
X28364361Y24712099D01*
X28364364Y24712096D01*
X28393092Y24677091D01*
X28428097Y24648363D01*
X28635943Y24440517D01*
X28195000Y24440517D01*
X28052483Y24426480D01*
X27915443Y24384910D01*
X27849095Y24349446D01*
X27681641Y24516899D01*
X27652909Y24551909D01*
X27513202Y24666564D01*
X27353811Y24751761D01*
X27313261Y24764062D01*
X27294910Y24824557D01*
X27227403Y24950853D01*
X27225414Y24953276D01*
X27245812Y25020518D01*
X27258072Y25145000D01*
X27255000Y25509250D01*
X27096250Y25668000D01*
X25997000Y25668000D01*
X25997000Y25648000D01*
X25743000Y25648000D01*
X25743000Y25668000D01*
X25723000Y25668000D01*
X25723000Y25922000D01*
X25743000Y25922000D01*
X25743000Y25942000D01*
X25997000Y25942000D01*
X25997000Y25922000D01*
X27096250Y25922000D01*
X27255000Y26080750D01*
X27258072Y26445000D01*
X27245812Y26569482D01*
X27209502Y26689180D01*
X27150537Y26799494D01*
X27071185Y26896185D01*
X27014141Y26943000D01*
X27548656Y26943000D01*
X27520090Y26889557D01*
G37*
X27520090Y26889557D02*
X27478520Y26752517D01*
X27464483Y26610000D01*
X27464483Y25710000D01*
X27478520Y25567483D01*
X27520090Y25430443D01*
X27587597Y25304147D01*
X27678446Y25193446D01*
X27789147Y25102597D01*
X27915443Y25035090D01*
X28052483Y24993520D01*
X28192155Y24979763D01*
X28193239Y24976190D01*
X28204465Y24955188D01*
X28278437Y24816798D01*
X28313760Y24773757D01*
X28364361Y24712099D01*
X28364364Y24712096D01*
X28393092Y24677091D01*
X28428097Y24648363D01*
X28635943Y24440517D01*
X28195000Y24440517D01*
X28052483Y24426480D01*
X27915443Y24384910D01*
X27849095Y24349446D01*
X27681641Y24516899D01*
X27652909Y24551909D01*
X27513202Y24666564D01*
X27353811Y24751761D01*
X27313261Y24764062D01*
X27294910Y24824557D01*
X27227403Y24950853D01*
X27225414Y24953276D01*
X27245812Y25020518D01*
X27258072Y25145000D01*
X27255000Y25509250D01*
X27096250Y25668000D01*
X25997000Y25668000D01*
X25997000Y25648000D01*
X25743000Y25648000D01*
X25743000Y25668000D01*
X25723000Y25668000D01*
X25723000Y25922000D01*
X25743000Y25922000D01*
X25743000Y25942000D01*
X25997000Y25942000D01*
X25997000Y25922000D01*
X27096250Y25922000D01*
X27255000Y26080750D01*
X27258072Y26445000D01*
X27245812Y26569482D01*
X27209502Y26689180D01*
X27150537Y26799494D01*
X27071185Y26896185D01*
X27014141Y26943000D01*
X27548656Y26943000D01*
X27520090Y26889557D01*
G36*
X37173000Y11830000D02*
G01*
X37175440Y11805224D01*
X37182667Y11781399D01*
X37194403Y11759443D01*
X37210197Y11740197D01*
X37223800Y11728400D01*
X39713000Y9861500D01*
X39713000Y5607000D01*
X15110178Y5607000D01*
X-673000Y15076907D01*
X-673000Y17837865D01*
X-555557Y17775090D01*
X-418517Y17733520D01*
X-276000Y17719483D01*
X1724000Y17719483D01*
X1866517Y17733520D01*
X2003557Y17775090D01*
X2074013Y17812750D01*
X2597250Y17815000D01*
X2756000Y17973750D01*
X2756000Y19323000D01*
X2736000Y19323000D01*
X2736000Y19577000D01*
X2756000Y19577000D01*
X2756000Y19597000D01*
X3010000Y19597000D01*
X3010000Y19577000D01*
X3030000Y19577000D01*
X3030000Y19323000D01*
X3010000Y19323000D01*
X3010000Y17973750D01*
X3168750Y17815000D01*
X3870501Y17811982D01*
X3870501Y17137508D01*
X3749831Y16956913D01*
X3661520Y16743714D01*
X3616500Y16517383D01*
X3616500Y16286617D01*
X3661520Y16060286D01*
X3749831Y15847087D01*
X3878037Y15655213D01*
X4041213Y15492037D01*
X4233087Y15363831D01*
X4446286Y15275520D01*
X4672617Y15230500D01*
X4903383Y15230500D01*
X5129714Y15275520D01*
X5342913Y15363831D01*
X5534787Y15492037D01*
X5697963Y15655213D01*
X5826169Y15847087D01*
X5914480Y16060286D01*
X5959500Y16286617D01*
X5959500Y16517383D01*
X5914480Y16743714D01*
X5826169Y16956913D01*
X5705500Y17137507D01*
X5705500Y17730761D01*
X5820000Y17719483D01*
X7820000Y17719483D01*
X7962517Y17733520D01*
X8099557Y17775090D01*
X8170013Y17812750D01*
X8693250Y17815000D01*
X8852000Y17973750D01*
X8852000Y19323000D01*
X9106000Y19323000D01*
X9106000Y17973750D01*
X9264750Y17815000D01*
X9979000Y17811928D01*
X10103482Y17824188D01*
X10223180Y17860498D01*
X10333494Y17919463D01*
X10430185Y17998815D01*
X10509537Y18095506D01*
X10568502Y18205820D01*
X10604812Y18325518D01*
X10617072Y18450000D01*
X10614000Y19164250D01*
X10455250Y19323000D01*
X9106000Y19323000D01*
X8852000Y19323000D01*
X8832000Y19323000D01*
X8832000Y19577000D01*
X8852000Y19577000D01*
X8852000Y19597000D01*
X9106000Y19597000D01*
X9106000Y19577000D01*
X10455250Y19577000D01*
X10614000Y19735750D01*
X10617072Y20450000D01*
X10604812Y20574482D01*
X10596277Y20602619D01*
X10653910Y20710443D01*
X10695480Y20847483D01*
X10709517Y20990000D01*
X10709517Y21072500D01*
X13424960Y21072500D01*
X13967959Y20529500D01*
X11410097Y17971637D01*
X11375092Y17942909D01*
X11346364Y17907904D01*
X11346361Y17907901D01*
X11322350Y17878643D01*
X11260437Y17803202D01*
X11248517Y17780901D01*
X11175239Y17643810D01*
X11122776Y17470861D01*
X11115797Y17400000D01*
X11109500Y17336069D01*
X11109500Y17336062D01*
X11105062Y17291000D01*
X11109500Y17245938D01*
X11109500Y17137507D01*
X10988831Y16956913D01*
X10900520Y16743714D01*
X10855500Y16517383D01*
X10855500Y16286617D01*
X10900520Y16060286D01*
X10988831Y15847087D01*
X11109501Y15666492D01*
X11109500Y11113062D01*
X11105062Y11068000D01*
X11109500Y11022938D01*
X11109500Y11022932D01*
X11110891Y11008811D01*
X11122776Y10888139D01*
X11129308Y10866607D01*
X11175239Y10715190D01*
X11260436Y10555799D01*
X11375091Y10416091D01*
X11410101Y10387359D01*
X15029363Y6768096D01*
X15058091Y6733091D01*
X15197798Y6618436D01*
X15357189Y6533239D01*
X15530139Y6480776D01*
X15664931Y6467500D01*
X15664938Y6467500D01*
X15710000Y6463062D01*
X15755062Y6467500D01*
X20490938Y6467500D01*
X20536000Y6463062D01*
X20581062Y6467500D01*
X20581069Y6467500D01*
X20715861Y6480776D01*
X20888811Y6533239D01*
X21048202Y6618436D01*
X21187909Y6733091D01*
X21216641Y6768101D01*
X21946904Y7498363D01*
X21981909Y7527091D01*
X21988430Y7535037D01*
X22029622Y7552099D01*
X22271533Y7713739D01*
X22390750Y7832956D01*
X22436157Y7787549D01*
X22552613Y7904005D01*
X22618137Y7665140D01*
X22865116Y7549240D01*
X23129960Y7483750D01*
X23402492Y7471188D01*
X23672238Y7512035D01*
X23928832Y7604723D01*
X24041863Y7665140D01*
X24107388Y7904007D01*
X23330000Y8681395D01*
X23315858Y8667252D01*
X23136253Y8846857D01*
X23150395Y8861000D01*
X23509605Y8861000D01*
X24286993Y8083612D01*
X24525860Y8149137D01*
X24641760Y8396116D01*
X24707250Y8660960D01*
X24719812Y8933492D01*
X24678965Y9203238D01*
X24586277Y9459832D01*
X24525860Y9572863D01*
X24286993Y9638388D01*
X23509605Y8861000D01*
X23150395Y8861000D01*
X23136253Y8875142D01*
X23315858Y9054747D01*
X23330000Y9040605D01*
X24107388Y9817993D01*
X24041863Y10056860D01*
X23842319Y10150500D01*
X29886406Y10150500D01*
X29858446Y10127554D01*
X29767597Y10016853D01*
X29700090Y9890557D01*
X29658520Y9753517D01*
X29644483Y9611000D01*
X29644483Y8111000D01*
X29658520Y7968483D01*
X29700090Y7831443D01*
X29767597Y7705147D01*
X29858446Y7594446D01*
X29969147Y7503597D01*
X30095443Y7436090D01*
X30232483Y7394520D01*
X30375000Y7380483D01*
X31875000Y7380483D01*
X32017517Y7394520D01*
X32154557Y7436090D01*
X32280853Y7503597D01*
X32378291Y7583562D01*
X32425378Y7552099D01*
X32694175Y7440760D01*
X32979528Y7384000D01*
X33270472Y7384000D01*
X33555825Y7440760D01*
X33824622Y7552099D01*
X34066533Y7713739D01*
X34125000Y7772206D01*
X34183467Y7713739D01*
X34425378Y7552099D01*
X34694175Y7440760D01*
X34979528Y7384000D01*
X35270472Y7384000D01*
X35555825Y7440760D01*
X35824622Y7552099D01*
X36066533Y7713739D01*
X36185750Y7832956D01*
X36231157Y7787549D01*
X36347613Y7904005D01*
X36413137Y7665140D01*
X36660116Y7549240D01*
X36924960Y7483750D01*
X37197492Y7471188D01*
X37467238Y7512035D01*
X37723832Y7604723D01*
X37836863Y7665140D01*
X37902388Y7904007D01*
X37125000Y8681395D01*
X37110858Y8667252D01*
X36931253Y8846857D01*
X36945395Y8861000D01*
X37304605Y8861000D01*
X38081993Y8083612D01*
X38320860Y8149137D01*
X38436760Y8396116D01*
X38502250Y8660960D01*
X38514812Y8933492D01*
X38473965Y9203238D01*
X38381277Y9459832D01*
X38320860Y9572863D01*
X38081993Y9638388D01*
X37304605Y8861000D01*
X36945395Y8861000D01*
X36931253Y8875142D01*
X37110858Y9054747D01*
X37125000Y9040605D01*
X37902388Y9817993D01*
X37836863Y10056860D01*
X37589884Y10172760D01*
X37325040Y10238250D01*
X37052508Y10250812D01*
X36782762Y10209965D01*
X36526168Y10117277D01*
X36413137Y10056860D01*
X36347613Y9817995D01*
X36231157Y9934451D01*
X36185750Y9889044D01*
X36066533Y10008261D01*
X36042500Y10024319D01*
X36042500Y10911938D01*
X36046938Y10957000D01*
X36042500Y11002062D01*
X36042500Y11002069D01*
X36029224Y11136861D01*
X36025570Y11148909D01*
X35976761Y11309811D01*
X35972491Y11317799D01*
X35891564Y11469202D01*
X35776909Y11608909D01*
X35741904Y11637637D01*
X33853143Y13526397D01*
X33853139Y13526402D01*
X33403092Y13976448D01*
X33403092Y16488544D01*
X33493446Y16378446D01*
X33604147Y16287597D01*
X33730443Y16220090D01*
X33867483Y16178520D01*
X34010000Y16164483D01*
X35510000Y16164483D01*
X35652517Y16178520D01*
X35789557Y16220090D01*
X35915853Y16287597D01*
X36026554Y16378446D01*
X36117403Y16489147D01*
X36184910Y16615443D01*
X36226480Y16752483D01*
X36240517Y16895000D01*
X36240517Y18195000D01*
X36226480Y18337517D01*
X36184910Y18474557D01*
X36117403Y18600853D01*
X36115414Y18603276D01*
X36135812Y18670518D01*
X36148072Y18795000D01*
X36145000Y19159250D01*
X35986250Y19318000D01*
X34887000Y19318000D01*
X34887000Y19298000D01*
X34633000Y19298000D01*
X34633000Y19318000D01*
X33533750Y19318000D01*
X33375000Y19159250D01*
X33371928Y18795000D01*
X33384188Y18670518D01*
X33404586Y18603276D01*
X33402597Y18600853D01*
X33335090Y18474557D01*
X33331433Y18462500D01*
X32911650Y18462500D01*
X32866591Y18466938D01*
X32821532Y18462500D01*
X32821523Y18462500D01*
X32767880Y18457217D01*
X32871909Y18542591D01*
X32986564Y18682298D01*
X33071761Y18841689D01*
X33124224Y19014639D01*
X33137500Y19149431D01*
X33137500Y20095000D01*
X33371928Y20095000D01*
X33375000Y19730750D01*
X33533750Y19572000D01*
X34633000Y19572000D01*
X34633000Y20571250D01*
X34887000Y20571250D01*
X34887000Y19572000D01*
X35986250Y19572000D01*
X36145000Y19730750D01*
X36148072Y20095000D01*
X36135812Y20219482D01*
X36099502Y20339180D01*
X36040537Y20449494D01*
X35961185Y20546185D01*
X35864494Y20625537D01*
X35754180Y20684502D01*
X35634482Y20720812D01*
X35510000Y20733072D01*
X35045750Y20730000D01*
X34887000Y20571250D01*
X34633000Y20571250D01*
X34474250Y20730000D01*
X34010000Y20733072D01*
X33885518Y20720812D01*
X33765820Y20684502D01*
X33655506Y20625537D01*
X33558815Y20546185D01*
X33479463Y20449494D01*
X33420498Y20339180D01*
X33384188Y20219482D01*
X33371928Y20095000D01*
X33137500Y20095000D01*
X33137500Y22536098D01*
X33249557Y22570090D01*
X33375853Y22637597D01*
X33486554Y22728446D01*
X33532655Y22784621D01*
X33620446Y22677646D01*
X33731147Y22586797D01*
X33857443Y22519290D01*
X33994483Y22477720D01*
X34137000Y22463683D01*
X35637000Y22463683D01*
X35779517Y22477720D01*
X35916557Y22519290D01*
X36042853Y22586797D01*
X36153554Y22677646D01*
X36244403Y22788347D01*
X36311910Y22914643D01*
X36353480Y23051683D01*
X36367517Y23194200D01*
X36367517Y24494200D01*
X36353480Y24636717D01*
X36311910Y24773757D01*
X36244403Y24900053D01*
X36242414Y24902476D01*
X36262812Y24969718D01*
X36275072Y25094200D01*
X36272000Y25458450D01*
X36113250Y25617200D01*
X35014000Y25617200D01*
X35014000Y25597200D01*
X34760000Y25597200D01*
X34760000Y25617200D01*
X34740000Y25617200D01*
X34740000Y25871200D01*
X34760000Y25871200D01*
X34760000Y25891200D01*
X35014000Y25891200D01*
X35014000Y25871200D01*
X36113250Y25871200D01*
X36272000Y26029950D01*
X36275072Y26394200D01*
X36262812Y26518682D01*
X36226502Y26638380D01*
X36167537Y26748694D01*
X36088185Y26845385D01*
X35991494Y26924737D01*
X35957327Y26943000D01*
X37173000Y26943000D01*
X37173000Y11830000D01*
G37*
X37173000Y11830000D02*
X37175440Y11805224D01*
X37182667Y11781399D01*
X37194403Y11759443D01*
X37210197Y11740197D01*
X37223800Y11728400D01*
X39713000Y9861500D01*
X39713000Y5607000D01*
X15110178Y5607000D01*
X-673000Y15076907D01*
X-673000Y17837865D01*
X-555557Y17775090D01*
X-418517Y17733520D01*
X-276000Y17719483D01*
X1724000Y17719483D01*
X1866517Y17733520D01*
X2003557Y17775090D01*
X2074013Y17812750D01*
X2597250Y17815000D01*
X2756000Y17973750D01*
X2756000Y19323000D01*
X2736000Y19323000D01*
X2736000Y19577000D01*
X2756000Y19577000D01*
X2756000Y19597000D01*
X3010000Y19597000D01*
X3010000Y19577000D01*
X3030000Y19577000D01*
X3030000Y19323000D01*
X3010000Y19323000D01*
X3010000Y17973750D01*
X3168750Y17815000D01*
X3870501Y17811982D01*
X3870501Y17137508D01*
X3749831Y16956913D01*
X3661520Y16743714D01*
X3616500Y16517383D01*
X3616500Y16286617D01*
X3661520Y16060286D01*
X3749831Y15847087D01*
X3878037Y15655213D01*
X4041213Y15492037D01*
X4233087Y15363831D01*
X4446286Y15275520D01*
X4672617Y15230500D01*
X4903383Y15230500D01*
X5129714Y15275520D01*
X5342913Y15363831D01*
X5534787Y15492037D01*
X5697963Y15655213D01*
X5826169Y15847087D01*
X5914480Y16060286D01*
X5959500Y16286617D01*
X5959500Y16517383D01*
X5914480Y16743714D01*
X5826169Y16956913D01*
X5705500Y17137507D01*
X5705500Y17730761D01*
X5820000Y17719483D01*
X7820000Y17719483D01*
X7962517Y17733520D01*
X8099557Y17775090D01*
X8170013Y17812750D01*
X8693250Y17815000D01*
X8852000Y17973750D01*
X8852000Y19323000D01*
X9106000Y19323000D01*
X9106000Y17973750D01*
X9264750Y17815000D01*
X9979000Y17811928D01*
X10103482Y17824188D01*
X10223180Y17860498D01*
X10333494Y17919463D01*
X10430185Y17998815D01*
X10509537Y18095506D01*
X10568502Y18205820D01*
X10604812Y18325518D01*
X10617072Y18450000D01*
X10614000Y19164250D01*
X10455250Y19323000D01*
X9106000Y19323000D01*
X8852000Y19323000D01*
X8832000Y19323000D01*
X8832000Y19577000D01*
X8852000Y19577000D01*
X8852000Y19597000D01*
X9106000Y19597000D01*
X9106000Y19577000D01*
X10455250Y19577000D01*
X10614000Y19735750D01*
X10617072Y20450000D01*
X10604812Y20574482D01*
X10596277Y20602619D01*
X10653910Y20710443D01*
X10695480Y20847483D01*
X10709517Y20990000D01*
X10709517Y21072500D01*
X13424960Y21072500D01*
X13967959Y20529500D01*
X11410097Y17971637D01*
X11375092Y17942909D01*
X11346364Y17907904D01*
X11346361Y17907901D01*
X11322350Y17878643D01*
X11260437Y17803202D01*
X11248517Y17780901D01*
X11175239Y17643810D01*
X11122776Y17470861D01*
X11115797Y17400000D01*
X11109500Y17336069D01*
X11109500Y17336062D01*
X11105062Y17291000D01*
X11109500Y17245938D01*
X11109500Y17137507D01*
X10988831Y16956913D01*
X10900520Y16743714D01*
X10855500Y16517383D01*
X10855500Y16286617D01*
X10900520Y16060286D01*
X10988831Y15847087D01*
X11109501Y15666492D01*
X11109500Y11113062D01*
X11105062Y11068000D01*
X11109500Y11022938D01*
X11109500Y11022932D01*
X11110891Y11008811D01*
X11122776Y10888139D01*
X11129308Y10866607D01*
X11175239Y10715190D01*
X11260436Y10555799D01*
X11375091Y10416091D01*
X11410101Y10387359D01*
X15029363Y6768096D01*
X15058091Y6733091D01*
X15197798Y6618436D01*
X15357189Y6533239D01*
X15530139Y6480776D01*
X15664931Y6467500D01*
X15664938Y6467500D01*
X15710000Y6463062D01*
X15755062Y6467500D01*
X20490938Y6467500D01*
X20536000Y6463062D01*
X20581062Y6467500D01*
X20581069Y6467500D01*
X20715861Y6480776D01*
X20888811Y6533239D01*
X21048202Y6618436D01*
X21187909Y6733091D01*
X21216641Y6768101D01*
X21946904Y7498363D01*
X21981909Y7527091D01*
X21988430Y7535037D01*
X22029622Y7552099D01*
X22271533Y7713739D01*
X22390750Y7832956D01*
X22436157Y7787549D01*
X22552613Y7904005D01*
X22618137Y7665140D01*
X22865116Y7549240D01*
X23129960Y7483750D01*
X23402492Y7471188D01*
X23672238Y7512035D01*
X23928832Y7604723D01*
X24041863Y7665140D01*
X24107388Y7904007D01*
X23330000Y8681395D01*
X23315858Y8667252D01*
X23136253Y8846857D01*
X23150395Y8861000D01*
X23509605Y8861000D01*
X24286993Y8083612D01*
X24525860Y8149137D01*
X24641760Y8396116D01*
X24707250Y8660960D01*
X24719812Y8933492D01*
X24678965Y9203238D01*
X24586277Y9459832D01*
X24525860Y9572863D01*
X24286993Y9638388D01*
X23509605Y8861000D01*
X23150395Y8861000D01*
X23136253Y8875142D01*
X23315858Y9054747D01*
X23330000Y9040605D01*
X24107388Y9817993D01*
X24041863Y10056860D01*
X23842319Y10150500D01*
X29886406Y10150500D01*
X29858446Y10127554D01*
X29767597Y10016853D01*
X29700090Y9890557D01*
X29658520Y9753517D01*
X29644483Y9611000D01*
X29644483Y8111000D01*
X29658520Y7968483D01*
X29700090Y7831443D01*
X29767597Y7705147D01*
X29858446Y7594446D01*
X29969147Y7503597D01*
X30095443Y7436090D01*
X30232483Y7394520D01*
X30375000Y7380483D01*
X31875000Y7380483D01*
X32017517Y7394520D01*
X32154557Y7436090D01*
X32280853Y7503597D01*
X32378291Y7583562D01*
X32425378Y7552099D01*
X32694175Y7440760D01*
X32979528Y7384000D01*
X33270472Y7384000D01*
X33555825Y7440760D01*
X33824622Y7552099D01*
X34066533Y7713739D01*
X34125000Y7772206D01*
X34183467Y7713739D01*
X34425378Y7552099D01*
X34694175Y7440760D01*
X34979528Y7384000D01*
X35270472Y7384000D01*
X35555825Y7440760D01*
X35824622Y7552099D01*
X36066533Y7713739D01*
X36185750Y7832956D01*
X36231157Y7787549D01*
X36347613Y7904005D01*
X36413137Y7665140D01*
X36660116Y7549240D01*
X36924960Y7483750D01*
X37197492Y7471188D01*
X37467238Y7512035D01*
X37723832Y7604723D01*
X37836863Y7665140D01*
X37902388Y7904007D01*
X37125000Y8681395D01*
X37110858Y8667252D01*
X36931253Y8846857D01*
X36945395Y8861000D01*
X37304605Y8861000D01*
X38081993Y8083612D01*
X38320860Y8149137D01*
X38436760Y8396116D01*
X38502250Y8660960D01*
X38514812Y8933492D01*
X38473965Y9203238D01*
X38381277Y9459832D01*
X38320860Y9572863D01*
X38081993Y9638388D01*
X37304605Y8861000D01*
X36945395Y8861000D01*
X36931253Y8875142D01*
X37110858Y9054747D01*
X37125000Y9040605D01*
X37902388Y9817993D01*
X37836863Y10056860D01*
X37589884Y10172760D01*
X37325040Y10238250D01*
X37052508Y10250812D01*
X36782762Y10209965D01*
X36526168Y10117277D01*
X36413137Y10056860D01*
X36347613Y9817995D01*
X36231157Y9934451D01*
X36185750Y9889044D01*
X36066533Y10008261D01*
X36042500Y10024319D01*
X36042500Y10911938D01*
X36046938Y10957000D01*
X36042500Y11002062D01*
X36042500Y11002069D01*
X36029224Y11136861D01*
X36025570Y11148909D01*
X35976761Y11309811D01*
X35972491Y11317799D01*
X35891564Y11469202D01*
X35776909Y11608909D01*
X35741904Y11637637D01*
X33853143Y13526397D01*
X33853139Y13526402D01*
X33403092Y13976448D01*
X33403092Y16488544D01*
X33493446Y16378446D01*
X33604147Y16287597D01*
X33730443Y16220090D01*
X33867483Y16178520D01*
X34010000Y16164483D01*
X35510000Y16164483D01*
X35652517Y16178520D01*
X35789557Y16220090D01*
X35915853Y16287597D01*
X36026554Y16378446D01*
X36117403Y16489147D01*
X36184910Y16615443D01*
X36226480Y16752483D01*
X36240517Y16895000D01*
X36240517Y18195000D01*
X36226480Y18337517D01*
X36184910Y18474557D01*
X36117403Y18600853D01*
X36115414Y18603276D01*
X36135812Y18670518D01*
X36148072Y18795000D01*
X36145000Y19159250D01*
X35986250Y19318000D01*
X34887000Y19318000D01*
X34887000Y19298000D01*
X34633000Y19298000D01*
X34633000Y19318000D01*
X33533750Y19318000D01*
X33375000Y19159250D01*
X33371928Y18795000D01*
X33384188Y18670518D01*
X33404586Y18603276D01*
X33402597Y18600853D01*
X33335090Y18474557D01*
X33331433Y18462500D01*
X32911650Y18462500D01*
X32866591Y18466938D01*
X32821532Y18462500D01*
X32821523Y18462500D01*
X32767880Y18457217D01*
X32871909Y18542591D01*
X32986564Y18682298D01*
X33071761Y18841689D01*
X33124224Y19014639D01*
X33137500Y19149431D01*
X33137500Y20095000D01*
X33371928Y20095000D01*
X33375000Y19730750D01*
X33533750Y19572000D01*
X34633000Y19572000D01*
X34633000Y20571250D01*
X34887000Y20571250D01*
X34887000Y19572000D01*
X35986250Y19572000D01*
X36145000Y19730750D01*
X36148072Y20095000D01*
X36135812Y20219482D01*
X36099502Y20339180D01*
X36040537Y20449494D01*
X35961185Y20546185D01*
X35864494Y20625537D01*
X35754180Y20684502D01*
X35634482Y20720812D01*
X35510000Y20733072D01*
X35045750Y20730000D01*
X34887000Y20571250D01*
X34633000Y20571250D01*
X34474250Y20730000D01*
X34010000Y20733072D01*
X33885518Y20720812D01*
X33765820Y20684502D01*
X33655506Y20625537D01*
X33558815Y20546185D01*
X33479463Y20449494D01*
X33420498Y20339180D01*
X33384188Y20219482D01*
X33371928Y20095000D01*
X33137500Y20095000D01*
X33137500Y22536098D01*
X33249557Y22570090D01*
X33375853Y22637597D01*
X33486554Y22728446D01*
X33532655Y22784621D01*
X33620446Y22677646D01*
X33731147Y22586797D01*
X33857443Y22519290D01*
X33994483Y22477720D01*
X34137000Y22463683D01*
X35637000Y22463683D01*
X35779517Y22477720D01*
X35916557Y22519290D01*
X36042853Y22586797D01*
X36153554Y22677646D01*
X36244403Y22788347D01*
X36311910Y22914643D01*
X36353480Y23051683D01*
X36367517Y23194200D01*
X36367517Y24494200D01*
X36353480Y24636717D01*
X36311910Y24773757D01*
X36244403Y24900053D01*
X36242414Y24902476D01*
X36262812Y24969718D01*
X36275072Y25094200D01*
X36272000Y25458450D01*
X36113250Y25617200D01*
X35014000Y25617200D01*
X35014000Y25597200D01*
X34760000Y25597200D01*
X34760000Y25617200D01*
X34740000Y25617200D01*
X34740000Y25871200D01*
X34760000Y25871200D01*
X34760000Y25891200D01*
X35014000Y25891200D01*
X35014000Y25871200D01*
X36113250Y25871200D01*
X36272000Y26029950D01*
X36275072Y26394200D01*
X36262812Y26518682D01*
X36226502Y26638380D01*
X36167537Y26748694D01*
X36088185Y26845385D01*
X35991494Y26924737D01*
X35957327Y26943000D01*
X37173000Y26943000D01*
X37173000Y11830000D01*
G36*
X28877586Y17338357D02*
G01*
X28894616Y17336680D01*
X29003048Y17326000D01*
X29003054Y17326000D01*
X29044999Y17321869D01*
X29086944Y17326000D01*
X29203657Y17326000D01*
X29201983Y17309000D01*
X29201983Y17019000D01*
X29216020Y16876483D01*
X29257590Y16739443D01*
X29325097Y16613147D01*
X29415946Y16502446D01*
X29526647Y16411597D01*
X29652943Y16344090D01*
X29789983Y16302520D01*
X29932500Y16288483D01*
X31332500Y16288483D01*
X31475017Y16302520D01*
X31499676Y16310000D01*
X31568093Y16310000D01*
X31568092Y13641470D01*
X31563654Y13596408D01*
X31568092Y13551346D01*
X31568092Y13551340D01*
X31581368Y13416548D01*
X31633831Y13243598D01*
X31719028Y13084207D01*
X31833683Y12944499D01*
X31868693Y12915767D01*
X32555598Y12228861D01*
X32555603Y12228857D01*
X34207501Y10576958D01*
X34207501Y10024320D01*
X34183467Y10008261D01*
X34125000Y9949794D01*
X34066533Y10008261D01*
X34036428Y10028376D01*
X34029224Y10101521D01*
X33976761Y10274471D01*
X33891564Y10433862D01*
X33856868Y10476139D01*
X33805639Y10538562D01*
X33805637Y10538564D01*
X33776909Y10573569D01*
X33741904Y10602297D01*
X32659301Y11684899D01*
X32630569Y11719909D01*
X32490862Y11834564D01*
X32331471Y11919761D01*
X32158521Y11972224D01*
X32023729Y11985500D01*
X32023722Y11985500D01*
X31978660Y11989938D01*
X31933598Y11985500D01*
X28883000Y11985500D01*
X28883000Y16995045D01*
X28887132Y17037000D01*
X28870644Y17204413D01*
X28825191Y17354251D01*
X28877586Y17338357D01*
G37*
X28877586Y17338357D02*
X28894616Y17336680D01*
X29003048Y17326000D01*
X29003054Y17326000D01*
X29044999Y17321869D01*
X29086944Y17326000D01*
X29203657Y17326000D01*
X29201983Y17309000D01*
X29201983Y17019000D01*
X29216020Y16876483D01*
X29257590Y16739443D01*
X29325097Y16613147D01*
X29415946Y16502446D01*
X29526647Y16411597D01*
X29652943Y16344090D01*
X29789983Y16302520D01*
X29932500Y16288483D01*
X31332500Y16288483D01*
X31475017Y16302520D01*
X31499676Y16310000D01*
X31568093Y16310000D01*
X31568092Y13641470D01*
X31563654Y13596408D01*
X31568092Y13551346D01*
X31568092Y13551340D01*
X31581368Y13416548D01*
X31633831Y13243598D01*
X31719028Y13084207D01*
X31833683Y12944499D01*
X31868693Y12915767D01*
X32555598Y12228861D01*
X32555603Y12228857D01*
X34207501Y10576958D01*
X34207501Y10024320D01*
X34183467Y10008261D01*
X34125000Y9949794D01*
X34066533Y10008261D01*
X34036428Y10028376D01*
X34029224Y10101521D01*
X33976761Y10274471D01*
X33891564Y10433862D01*
X33856868Y10476139D01*
X33805639Y10538562D01*
X33805637Y10538564D01*
X33776909Y10573569D01*
X33741904Y10602297D01*
X32659301Y11684899D01*
X32630569Y11719909D01*
X32490862Y11834564D01*
X32331471Y11919761D01*
X32158521Y11972224D01*
X32023729Y11985500D01*
X32023722Y11985500D01*
X31978660Y11989938D01*
X31933598Y11985500D01*
X28883000Y11985500D01*
X28883000Y16995045D01*
X28887132Y17037000D01*
X28870644Y17204413D01*
X28825191Y17354251D01*
X28877586Y17338357D01*
G36*
X15583000Y27070000D02*
G01*
X15585440Y27045224D01*
X15592667Y27021399D01*
X15604403Y26999443D01*
X15620197Y26980197D01*
X15639443Y26964403D01*
X15661399Y26952667D01*
X15685224Y26945440D01*
X15710000Y26943000D01*
X16767640Y26943000D01*
X16761928Y26885000D01*
X16765000Y26720750D01*
X16923750Y26562000D01*
X18123000Y26562000D01*
X18123000Y26582000D01*
X18377000Y26582000D01*
X18377000Y26562000D01*
X18397000Y26562000D01*
X18397000Y26308000D01*
X18377000Y26308000D01*
X18377000Y25508750D01*
X18535750Y25350000D01*
X19100000Y25346928D01*
X19224482Y25359188D01*
X19309483Y25384973D01*
X19309483Y25145000D01*
X19323520Y25002483D01*
X19365090Y24865443D01*
X19376017Y24845000D01*
X19365090Y24824557D01*
X19346285Y24762564D01*
X19294189Y24746761D01*
X19214616Y24704228D01*
X19100000Y24715517D01*
X17400000Y24715517D01*
X17257483Y24701480D01*
X17120443Y24659910D01*
X16994147Y24592403D01*
X16883446Y24501554D01*
X16792597Y24390853D01*
X16738986Y24290555D01*
X15306710Y25722830D01*
X15306710Y25985000D01*
X16761928Y25985000D01*
X16774188Y25860518D01*
X16810498Y25740820D01*
X16869463Y25630506D01*
X16948815Y25533815D01*
X17045506Y25454463D01*
X17155820Y25395498D01*
X17275518Y25359188D01*
X17400000Y25346928D01*
X17964250Y25350000D01*
X18123000Y25508750D01*
X18123000Y26308000D01*
X16923750Y26308000D01*
X16765000Y26149250D01*
X16761928Y25985000D01*
X15306710Y25985000D01*
X15306710Y30123732D01*
X15311148Y30168791D01*
X15306710Y30213850D01*
X15306710Y30213859D01*
X15293434Y30348651D01*
X15240971Y30521601D01*
X15155774Y30680992D01*
X15091056Y30759851D01*
X15069848Y30785693D01*
X15069847Y30785694D01*
X15041119Y30820699D01*
X15006114Y30849427D01*
X14467540Y31388000D01*
X15583000Y31388000D01*
X15583000Y27070000D01*
G37*
X15583000Y27070000D02*
X15585440Y27045224D01*
X15592667Y27021399D01*
X15604403Y26999443D01*
X15620197Y26980197D01*
X15639443Y26964403D01*
X15661399Y26952667D01*
X15685224Y26945440D01*
X15710000Y26943000D01*
X16767640Y26943000D01*
X16761928Y26885000D01*
X16765000Y26720750D01*
X16923750Y26562000D01*
X18123000Y26562000D01*
X18123000Y26582000D01*
X18377000Y26582000D01*
X18377000Y26562000D01*
X18397000Y26562000D01*
X18397000Y26308000D01*
X18377000Y26308000D01*
X18377000Y25508750D01*
X18535750Y25350000D01*
X19100000Y25346928D01*
X19224482Y25359188D01*
X19309483Y25384973D01*
X19309483Y25145000D01*
X19323520Y25002483D01*
X19365090Y24865443D01*
X19376017Y24845000D01*
X19365090Y24824557D01*
X19346285Y24762564D01*
X19294189Y24746761D01*
X19214616Y24704228D01*
X19100000Y24715517D01*
X17400000Y24715517D01*
X17257483Y24701480D01*
X17120443Y24659910D01*
X16994147Y24592403D01*
X16883446Y24501554D01*
X16792597Y24390853D01*
X16738986Y24290555D01*
X15306710Y25722830D01*
X15306710Y25985000D01*
X16761928Y25985000D01*
X16774188Y25860518D01*
X16810498Y25740820D01*
X16869463Y25630506D01*
X16948815Y25533815D01*
X17045506Y25454463D01*
X17155820Y25395498D01*
X17275518Y25359188D01*
X17400000Y25346928D01*
X17964250Y25350000D01*
X18123000Y25508750D01*
X18123000Y26308000D01*
X16923750Y26308000D01*
X16765000Y26149250D01*
X16761928Y25985000D01*
X15306710Y25985000D01*
X15306710Y30123732D01*
X15311148Y30168791D01*
X15306710Y30213850D01*
X15306710Y30213859D01*
X15293434Y30348651D01*
X15240971Y30521601D01*
X15155774Y30680992D01*
X15091056Y30759851D01*
X15069848Y30785693D01*
X15069847Y30785694D01*
X15041119Y30820699D01*
X15006114Y30849427D01*
X14467540Y31388000D01*
X15583000Y31388000D01*
X15583000Y27070000D01*
G36*
X27520090Y26889557D02*
G01*
X27478520Y26752517D01*
X27464483Y26610000D01*
X27464483Y25710000D01*
X27478520Y25567483D01*
X27520090Y25430443D01*
X27587597Y25304147D01*
X27678446Y25193446D01*
X27789147Y25102597D01*
X27915443Y25035090D01*
X28052483Y24993520D01*
X28192155Y24979763D01*
X28193239Y24976190D01*
X28204465Y24955188D01*
X28278437Y24816798D01*
X28313760Y24773757D01*
X28364361Y24712099D01*
X28364364Y24712096D01*
X28393092Y24677091D01*
X28428097Y24648363D01*
X28635943Y24440517D01*
X28195000Y24440517D01*
X28052483Y24426480D01*
X27915443Y24384910D01*
X27849095Y24349446D01*
X27681641Y24516899D01*
X27652909Y24551909D01*
X27513202Y24666564D01*
X27353811Y24751761D01*
X27313261Y24764062D01*
X27294910Y24824557D01*
X27227403Y24950853D01*
X27225414Y24953276D01*
X27245812Y25020518D01*
X27258072Y25145000D01*
X27255000Y25509250D01*
X27096250Y25668000D01*
X25997000Y25668000D01*
X25997000Y25648000D01*
X25743000Y25648000D01*
X25743000Y25668000D01*
X25723000Y25668000D01*
X25723000Y25922000D01*
X25743000Y25922000D01*
X25743000Y25942000D01*
X25997000Y25942000D01*
X25997000Y25922000D01*
X27096250Y25922000D01*
X27255000Y26080750D01*
X27258072Y26445000D01*
X27245812Y26569482D01*
X27209502Y26689180D01*
X27150537Y26799494D01*
X27071185Y26896185D01*
X27014141Y26943000D01*
X27548656Y26943000D01*
X27520090Y26889557D01*
G37*
X27520090Y26889557D02*
X27478520Y26752517D01*
X27464483Y26610000D01*
X27464483Y25710000D01*
X27478520Y25567483D01*
X27520090Y25430443D01*
X27587597Y25304147D01*
X27678446Y25193446D01*
X27789147Y25102597D01*
X27915443Y25035090D01*
X28052483Y24993520D01*
X28192155Y24979763D01*
X28193239Y24976190D01*
X28204465Y24955188D01*
X28278437Y24816798D01*
X28313760Y24773757D01*
X28364361Y24712099D01*
X28364364Y24712096D01*
X28393092Y24677091D01*
X28428097Y24648363D01*
X28635943Y24440517D01*
X28195000Y24440517D01*
X28052483Y24426480D01*
X27915443Y24384910D01*
X27849095Y24349446D01*
X27681641Y24516899D01*
X27652909Y24551909D01*
X27513202Y24666564D01*
X27353811Y24751761D01*
X27313261Y24764062D01*
X27294910Y24824557D01*
X27227403Y24950853D01*
X27225414Y24953276D01*
X27245812Y25020518D01*
X27258072Y25145000D01*
X27255000Y25509250D01*
X27096250Y25668000D01*
X25997000Y25668000D01*
X25997000Y25648000D01*
X25743000Y25648000D01*
X25743000Y25668000D01*
X25723000Y25668000D01*
X25723000Y25922000D01*
X25743000Y25922000D01*
X25743000Y25942000D01*
X25997000Y25942000D01*
X25997000Y25922000D01*
X27096250Y25922000D01*
X27255000Y26080750D01*
X27258072Y26445000D01*
X27245812Y26569482D01*
X27209502Y26689180D01*
X27150537Y26799494D01*
X27071185Y26896185D01*
X27014141Y26943000D01*
X27548656Y26943000D01*
X27520090Y26889557D01*
M02*
