M48
; DRILL file {KiCad (5.1.6)-1} date 02/15/21 16:03:42
; FORMAT={-:-/ absolute / inch / decimal}
; #@! TF.CreationDate,2021-02-15T16:03:42+00:00
; #@! TF.GenerationSoftware,Kicad,Pcbnew,(5.1.6)-1
FMAT,2
INCH
T1C0.0250
T2C0.0315
T3C0.0551
T4C0.0630
T5C0.1128
%
G90
G05
T1
X0.0435Y1.2657
X0.1285Y1.2257
X0.1885Y0.6457
X0.1985Y1.1807
X0.4185Y1.6157
X0.4185Y1.5657
X0.4185Y1.5157
X0.4185Y1.4657
X0.4685Y1.4657
X0.4685Y1.1657
X0.4685Y1.0657
X0.4735Y0.6457
X0.4885Y0.9657
X0.5185Y1.4657
X0.5685Y1.4657
X0.6185Y1.5157
X0.6185Y1.4657
X0.63Y1.0007
X0.7185Y1.3657
X0.7185Y1.3157
X0.7185Y1.2657
X0.7185Y1.2157
X0.7185Y1.1657
X0.7185Y1.1657
X0.7685Y1.7157
X0.7685Y1.6657
X0.7685Y1.6157
X0.7685Y1.5657
X0.8185Y1.7157
X0.8185Y1.6657
X0.8185Y1.6157
X0.8185Y1.5657
X0.8685Y1.7157
X0.8835Y0.6707
X0.9185Y1.7157
X0.9185Y1.3657
X0.9185Y1.3157
X0.9185Y1.2657
X0.9185Y1.2157
X0.9185Y1.1657
X0.9685Y1.7157
X0.9735Y1.0757
X1.0185Y1.7157
X1.0185Y1.6657
X1.0185Y1.6157
X1.0185Y1.5657
X1.1685Y1.6657
X1.1685Y1.6157
X1.1685Y1.5657
X1.1685Y1.5157
X1.1685Y0.5607
X1.2185Y1.5157
X1.2185Y1.3157
X1.2185Y1.2514
X1.2185Y1.1657
X1.3685Y1.5157
X1.4185Y1.6657
X1.4185Y1.6157
X1.4185Y1.5657
X1.4185Y1.3657
X1.4685Y1.3657
X1.5685Y1.6657
X1.5685Y1.6657
X1.5685Y1.6157
X1.5685Y1.5657
X1.5685Y1.5157
X1.7685Y1.6657
X1.7685Y1.6657
X1.7685Y1.6157
X1.7685Y1.5657
X1.7685Y1.5157
X1.7685Y1.4657
X1.7685Y1.4157
X1.7685Y1.3657
T2
X1.2254Y0.3489
X1.3041Y0.3489
X1.3829Y0.3489
X1.4616Y0.3489
X0.6823Y0.3489
X0.761Y0.3489
X0.8398Y0.3489
X0.9185Y0.3489
T3
X0.8185Y1.2407
X1.1185Y1.2407
X1.3185Y1.2407
X1.4185Y1.2407
X1.5185Y1.2407
X1.6185Y1.2407
T4
X0.5485Y1.5907
X0.9235Y1.5907
X1.2935Y1.5907
X1.6685Y1.5907
T5
X0.1318Y2.0643
X0.1318Y0.2966
X2.0963Y0.2966
X2.0983Y2.0663
T0
M30
