G04 #@! TF.GenerationSoftware,KiCad,Pcbnew,(5.1.6)-1*
G04 #@! TF.CreationDate,2021-02-15T16:03:40+00:00*
G04 #@! TF.ProjectId,DC_Power_Monitor,44435f50-6f77-4657-925f-4d6f6e69746f,rev?*
G04 #@! TF.SameCoordinates,PX2455c20PY82ce540*
G04 #@! TF.FileFunction,Soldermask,Top*
G04 #@! TF.FilePolarity,Negative*
%FSLAX46Y46*%
G04 Gerber Fmt 4.6, Leading zero omitted, Abs format (unit mm)*
G04 Created by KiCad (PCBNEW (5.1.6)-1) date 2021-02-15 16:03:40*
%MOMM*%
%LPD*%
G01*
G04 APERTURE LIST*
%ADD10C,0.010000*%
%ADD11C,1.700000*%
%ADD12R,1.700000X1.700000*%
%ADD13R,3.200000X3.200000*%
%ADD14C,3.200000*%
%ADD15R,2.740000X6.550000*%
%ADD16R,2.740000X2.740000*%
%ADD17R,1.700000X1.500000*%
%ADD18R,1.900000X1.100000*%
%ADD19R,1.500000X1.700000*%
%ADD20R,1.800000X0.690000*%
%ADD21C,3.064946*%
%ADD22R,2.200000X2.200000*%
G04 APERTURE END LIST*
D10*
G36*
X41607417Y14585315D02*
G01*
X41678608Y14567110D01*
X41823560Y14530549D01*
X42033877Y14477734D01*
X42301161Y14410766D01*
X42617017Y14331747D01*
X42973047Y14242779D01*
X43360855Y14145963D01*
X43772044Y14043401D01*
X43904000Y14010506D01*
X44317611Y13907332D01*
X44707897Y13809822D01*
X45066850Y13719987D01*
X45386461Y13639839D01*
X45658722Y13571390D01*
X45875624Y13516650D01*
X46029159Y13477632D01*
X46111319Y13456347D01*
X46121681Y13453473D01*
X46155867Y13446678D01*
X46175985Y13456455D01*
X46179400Y13491416D01*
X46163479Y13560170D01*
X46125587Y13671328D01*
X46063089Y13833499D01*
X45973350Y14055295D01*
X45853737Y14345325D01*
X45834855Y14390906D01*
X45738182Y14626077D01*
X45654634Y14832928D01*
X45588965Y14999390D01*
X45545926Y15113394D01*
X45530269Y15162872D01*
X45530469Y15163914D01*
X45571160Y15151929D01*
X45681574Y15112752D01*
X45852505Y15049823D01*
X46074748Y14966586D01*
X46339097Y14866481D01*
X46636345Y14752950D01*
X46871285Y14662623D01*
X47326684Y14487208D01*
X47709128Y14340271D01*
X48024570Y14219600D01*
X48278967Y14122986D01*
X48478273Y14048219D01*
X48628441Y13993089D01*
X48735428Y13955385D01*
X48805186Y13932897D01*
X48843671Y13923416D01*
X48856838Y13924731D01*
X48857000Y13925589D01*
X48825702Y13959912D01*
X48761750Y14006129D01*
X48571621Y14126985D01*
X48336538Y14273609D01*
X48064059Y14441502D01*
X47761746Y14626164D01*
X47437156Y14823096D01*
X47097848Y15027798D01*
X46751382Y15235770D01*
X46405317Y15442514D01*
X46067212Y15643529D01*
X45744626Y15834316D01*
X45445118Y16010375D01*
X45176248Y16167207D01*
X44945574Y16300313D01*
X44760655Y16405192D01*
X44629052Y16477346D01*
X44558321Y16512275D01*
X44548118Y16514280D01*
X44555760Y16460211D01*
X44583665Y16336596D01*
X44628819Y16155296D01*
X44688211Y15928170D01*
X44758827Y15667078D01*
X44812701Y15472678D01*
X44889512Y15197692D01*
X44958128Y14951148D01*
X45015437Y14744304D01*
X45058325Y14588417D01*
X45083681Y14494745D01*
X45089334Y14472162D01*
X45055660Y14493253D01*
X44958956Y14558241D01*
X44805694Y14662676D01*
X44602349Y14802105D01*
X44355394Y14972078D01*
X44071304Y15168144D01*
X43756551Y15385853D01*
X43417610Y15620752D01*
X43294293Y15706324D01*
X42947460Y15946744D01*
X42621726Y16171901D01*
X42323684Y16377280D01*
X42059927Y16558371D01*
X41837048Y16710659D01*
X41661638Y16829633D01*
X41540291Y16910779D01*
X41479600Y16949586D01*
X41473959Y16952333D01*
X41467349Y16911803D01*
X41461384Y16797422D01*
X41456298Y16620006D01*
X41452328Y16390369D01*
X41449708Y16119327D01*
X41448674Y15817696D01*
X41448667Y15789798D01*
X41448667Y14627263D01*
X41607417Y14585315D01*
G37*
X41607417Y14585315D02*
X41678608Y14567110D01*
X41823560Y14530549D01*
X42033877Y14477734D01*
X42301161Y14410766D01*
X42617017Y14331747D01*
X42973047Y14242779D01*
X43360855Y14145963D01*
X43772044Y14043401D01*
X43904000Y14010506D01*
X44317611Y13907332D01*
X44707897Y13809822D01*
X45066850Y13719987D01*
X45386461Y13639839D01*
X45658722Y13571390D01*
X45875624Y13516650D01*
X46029159Y13477632D01*
X46111319Y13456347D01*
X46121681Y13453473D01*
X46155867Y13446678D01*
X46175985Y13456455D01*
X46179400Y13491416D01*
X46163479Y13560170D01*
X46125587Y13671328D01*
X46063089Y13833499D01*
X45973350Y14055295D01*
X45853737Y14345325D01*
X45834855Y14390906D01*
X45738182Y14626077D01*
X45654634Y14832928D01*
X45588965Y14999390D01*
X45545926Y15113394D01*
X45530269Y15162872D01*
X45530469Y15163914D01*
X45571160Y15151929D01*
X45681574Y15112752D01*
X45852505Y15049823D01*
X46074748Y14966586D01*
X46339097Y14866481D01*
X46636345Y14752950D01*
X46871285Y14662623D01*
X47326684Y14487208D01*
X47709128Y14340271D01*
X48024570Y14219600D01*
X48278967Y14122986D01*
X48478273Y14048219D01*
X48628441Y13993089D01*
X48735428Y13955385D01*
X48805186Y13932897D01*
X48843671Y13923416D01*
X48856838Y13924731D01*
X48857000Y13925589D01*
X48825702Y13959912D01*
X48761750Y14006129D01*
X48571621Y14126985D01*
X48336538Y14273609D01*
X48064059Y14441502D01*
X47761746Y14626164D01*
X47437156Y14823096D01*
X47097848Y15027798D01*
X46751382Y15235770D01*
X46405317Y15442514D01*
X46067212Y15643529D01*
X45744626Y15834316D01*
X45445118Y16010375D01*
X45176248Y16167207D01*
X44945574Y16300313D01*
X44760655Y16405192D01*
X44629052Y16477346D01*
X44558321Y16512275D01*
X44548118Y16514280D01*
X44555760Y16460211D01*
X44583665Y16336596D01*
X44628819Y16155296D01*
X44688211Y15928170D01*
X44758827Y15667078D01*
X44812701Y15472678D01*
X44889512Y15197692D01*
X44958128Y14951148D01*
X45015437Y14744304D01*
X45058325Y14588417D01*
X45083681Y14494745D01*
X45089334Y14472162D01*
X45055660Y14493253D01*
X44958956Y14558241D01*
X44805694Y14662676D01*
X44602349Y14802105D01*
X44355394Y14972078D01*
X44071304Y15168144D01*
X43756551Y15385853D01*
X43417610Y15620752D01*
X43294293Y15706324D01*
X42947460Y15946744D01*
X42621726Y16171901D01*
X42323684Y16377280D01*
X42059927Y16558371D01*
X41837048Y16710659D01*
X41661638Y16829633D01*
X41540291Y16910779D01*
X41479600Y16949586D01*
X41473959Y16952333D01*
X41467349Y16911803D01*
X41461384Y16797422D01*
X41456298Y16620006D01*
X41452328Y16390369D01*
X41449708Y16119327D01*
X41448674Y15817696D01*
X41448667Y15789798D01*
X41448667Y14627263D01*
X41607417Y14585315D01*
D11*
X23330000Y8861000D03*
X21330000Y8861000D03*
X19330000Y8861000D03*
D12*
X17330000Y8861000D03*
D13*
X23457000Y40405000D03*
D14*
X13932000Y40405000D03*
D13*
X42380000Y40405000D03*
D14*
X32855000Y40405000D03*
D15*
X28410000Y31515000D03*
D16*
X38570000Y31515000D03*
X36030000Y31515000D03*
D15*
X33490000Y31515000D03*
D16*
X41110000Y31515000D03*
D15*
X20790000Y31515000D03*
D17*
X34760000Y19445000D03*
X34760000Y17545000D03*
D18*
X29045000Y23260000D03*
X29045000Y26160000D03*
D19*
X20454800Y18815000D03*
X18554800Y18815000D03*
X20454800Y16275000D03*
X18554800Y16275000D03*
D17*
X20790000Y25795000D03*
X20790000Y23895000D03*
X23330000Y25800000D03*
X23330000Y23900000D03*
X32220000Y25795000D03*
X32220000Y23895000D03*
D20*
X26187500Y19196000D03*
X26187500Y18688000D03*
X26187500Y18180000D03*
X26187500Y17672000D03*
X26187500Y17164000D03*
X30632500Y17164000D03*
X30632500Y17672000D03*
X30632500Y18180000D03*
X30632500Y18688000D03*
X30632500Y19196000D03*
D18*
X18250000Y23535000D03*
X18250000Y26435000D03*
D17*
X25870000Y25795000D03*
X25870000Y23895000D03*
X34887000Y23844200D03*
X34887000Y25744200D03*
D21*
X3346451Y52434464D03*
X53296451Y52484464D03*
X53246452Y7534468D03*
X3346451Y7534464D03*
D11*
X37125000Y8861000D03*
X35125000Y8861000D03*
X33125000Y8861000D03*
D12*
X31125000Y8861000D03*
D22*
X724000Y27070000D03*
X724000Y24530000D03*
X724000Y19450000D03*
X2883000Y19450000D03*
X2883000Y21990000D03*
X2883000Y24530000D03*
X2883000Y27070000D03*
X724000Y21990000D03*
X6820000Y21990000D03*
X8979000Y27070000D03*
X8979000Y24530000D03*
X8979000Y21990000D03*
X8979000Y19450000D03*
X6820000Y19450000D03*
X6820000Y24530000D03*
X6820000Y27070000D03*
M02*
