M48
; DRILL file {KiCad (5.1.0)-1} date 16/11/2020 17:51:57
; FORMAT={-:-/ absolute / inch / decimal}
; #@! TF.CreationDate,2020-11-16T17:51:57+00:00
; #@! TF.GenerationSoftware,Kicad,Pcbnew,(5.1.0)-1
FMAT,2
INCH
T1C0.0250
T2C0.0315
T3C0.0394
T4C0.0551
T5C0.0630
T6C0.1128
%
G90
G05
T1
X0.8835Y0.6707
X0.9735Y1.0757
X1.1685Y0.5607
T2
X0.6823Y0.3489
X0.761Y0.3489
X0.8398Y0.3489
X0.9185Y0.3489
X1.2254Y0.3489
X1.3041Y0.3489
X1.3829Y0.3489
X1.4616Y0.3489
T3
X0.4685Y1.1657
X0.4685Y1.0657
X0.4685Y0.9657
X0.4685Y0.8657
X0.4685Y0.7657
X0.3435Y1.1657
X0.3435Y1.0657
X0.3435Y0.9657
X0.3435Y0.8657
X0.3435Y0.7657
T4
X0.8185Y1.2407
X1.1185Y1.2407
X1.3185Y1.2407
X1.4185Y1.2407
X1.5185Y1.2407
X1.6185Y1.2407
T5
X1.2935Y1.5907
X1.6685Y1.5907
X0.5485Y1.5907
X0.9235Y1.5907
T6
X0.1318Y2.0643
X0.1318Y0.2966
X2.0963Y0.2966
X2.0983Y2.0663
T0
M30
