G04 #@! TF.GenerationSoftware,KiCad,Pcbnew,(5.1.0)-1*
G04 #@! TF.CreationDate,2020-11-16T17:51:53+00:00*
G04 #@! TF.ProjectId,DC_Power_Monitor,44435f50-6f77-4657-925f-4d6f6e69746f,rev?*
G04 #@! TF.SameCoordinates,PX2455c20PY82ce540*
G04 #@! TF.FileFunction,Copper,L1,Top*
G04 #@! TF.FilePolarity,Positive*
%FSLAX46Y46*%
G04 Gerber Fmt 4.6, Leading zero omitted, Abs format (unit mm)*
G04 Created by KiCad (PCBNEW (5.1.0)-1) date 2020-11-16 17:51:53*
%MOMM*%
%LPD*%
G04 APERTURE LIST*
%ADD10C,0.010000*%
%ADD11R,3.000000X3.000000*%
%ADD12C,3.000000*%
%ADD13R,2.100580X2.100580*%
%ADD14C,2.199640*%
%ADD15R,2.540000X6.350000*%
%ADD16R,2.540000X2.540000*%
%ADD17R,1.500000X1.500000*%
%ADD18C,1.500000*%
%ADD19R,1.500000X1.300000*%
%ADD20R,1.700000X0.900000*%
%ADD21R,1.300000X1.500000*%
%ADD22R,1.400000X0.290000*%
%ADD23C,2.864946*%
%ADD24C,0.889000*%
%ADD25C,0.381000*%
%ADD26C,0.254000*%
G04 APERTURE END LIST*
D10*
G36*
X40781842Y16105666D02*
G01*
X40674217Y15673042D01*
X40573980Y15265886D01*
X40482841Y14891429D01*
X40402508Y14556898D01*
X40334691Y14269525D01*
X40281097Y14036537D01*
X40243437Y13865164D01*
X40223419Y13762636D01*
X40221431Y13735000D01*
X40268591Y13750455D01*
X40381879Y13793634D01*
X40549241Y13859761D01*
X40758628Y13944057D01*
X40997985Y14041744D01*
X41071580Y14072018D01*
X41315879Y14171815D01*
X41532370Y14258579D01*
X41709364Y14327764D01*
X41835174Y14374825D01*
X41898115Y14395215D01*
X41903019Y14395425D01*
X41891135Y14353728D01*
X41850596Y14238319D01*
X41783373Y14054419D01*
X41691436Y13807251D01*
X41576756Y13502034D01*
X41441304Y13143991D01*
X41287050Y12738343D01*
X41115966Y12290312D01*
X40930021Y11805120D01*
X40731187Y11287987D01*
X40683135Y11163250D01*
X40661214Y11090957D01*
X40663362Y11068000D01*
X40689377Y11102461D01*
X40752787Y11198947D01*
X40847040Y11347116D01*
X40965586Y11536624D01*
X41101875Y11757128D01*
X41166049Y11861750D01*
X41540615Y12474222D01*
X41872548Y13017896D01*
X42163760Y13495974D01*
X42416165Y13911659D01*
X42631675Y14268153D01*
X42812203Y14568659D01*
X42959661Y14816379D01*
X43075963Y15014515D01*
X43163021Y15166271D01*
X43222749Y15274848D01*
X43257058Y15343449D01*
X43267861Y15375277D01*
X43266433Y15378326D01*
X43217265Y15371146D01*
X43098164Y15343815D01*
X42920650Y15299279D01*
X42696247Y15240484D01*
X42436475Y15170374D01*
X42227612Y15112763D01*
X41950788Y15036280D01*
X41702478Y14968732D01*
X41493819Y14913062D01*
X41335948Y14872214D01*
X41240002Y14849131D01*
X41215357Y14845271D01*
X41236944Y14881197D01*
X41302479Y14980041D01*
X41407482Y15135268D01*
X41547477Y15340344D01*
X41717986Y15588737D01*
X41914530Y15873912D01*
X42132632Y16189335D01*
X42367814Y16528473D01*
X42449101Y16645474D01*
X42689311Y16991462D01*
X42914242Y17316214D01*
X43119372Y17613148D01*
X43300181Y17875681D01*
X43452147Y18097233D01*
X43570747Y18271220D01*
X43651462Y18391062D01*
X43689769Y18450176D01*
X43692333Y18455224D01*
X43651806Y18460749D01*
X43537444Y18465734D01*
X43360081Y18469982D01*
X43130549Y18473295D01*
X42859680Y18475476D01*
X42558306Y18476328D01*
X42533453Y18476333D01*
X41374573Y18476333D01*
X40781842Y16105666D01*
X40781842Y16105666D01*
G37*
X40781842Y16105666D02*
X40674217Y15673042D01*
X40573980Y15265886D01*
X40482841Y14891429D01*
X40402508Y14556898D01*
X40334691Y14269525D01*
X40281097Y14036537D01*
X40243437Y13865164D01*
X40223419Y13762636D01*
X40221431Y13735000D01*
X40268591Y13750455D01*
X40381879Y13793634D01*
X40549241Y13859761D01*
X40758628Y13944057D01*
X40997985Y14041744D01*
X41071580Y14072018D01*
X41315879Y14171815D01*
X41532370Y14258579D01*
X41709364Y14327764D01*
X41835174Y14374825D01*
X41898115Y14395215D01*
X41903019Y14395425D01*
X41891135Y14353728D01*
X41850596Y14238319D01*
X41783373Y14054419D01*
X41691436Y13807251D01*
X41576756Y13502034D01*
X41441304Y13143991D01*
X41287050Y12738343D01*
X41115966Y12290312D01*
X40930021Y11805120D01*
X40731187Y11287987D01*
X40683135Y11163250D01*
X40661214Y11090957D01*
X40663362Y11068000D01*
X40689377Y11102461D01*
X40752787Y11198947D01*
X40847040Y11347116D01*
X40965586Y11536624D01*
X41101875Y11757128D01*
X41166049Y11861750D01*
X41540615Y12474222D01*
X41872548Y13017896D01*
X42163760Y13495974D01*
X42416165Y13911659D01*
X42631675Y14268153D01*
X42812203Y14568659D01*
X42959661Y14816379D01*
X43075963Y15014515D01*
X43163021Y15166271D01*
X43222749Y15274848D01*
X43257058Y15343449D01*
X43267861Y15375277D01*
X43266433Y15378326D01*
X43217265Y15371146D01*
X43098164Y15343815D01*
X42920650Y15299279D01*
X42696247Y15240484D01*
X42436475Y15170374D01*
X42227612Y15112763D01*
X41950788Y15036280D01*
X41702478Y14968732D01*
X41493819Y14913062D01*
X41335948Y14872214D01*
X41240002Y14849131D01*
X41215357Y14845271D01*
X41236944Y14881197D01*
X41302479Y14980041D01*
X41407482Y15135268D01*
X41547477Y15340344D01*
X41717986Y15588737D01*
X41914530Y15873912D01*
X42132632Y16189335D01*
X42367814Y16528473D01*
X42449101Y16645474D01*
X42689311Y16991462D01*
X42914242Y17316214D01*
X43119372Y17613148D01*
X43300181Y17875681D01*
X43452147Y18097233D01*
X43570747Y18271220D01*
X43651462Y18391062D01*
X43689769Y18450176D01*
X43692333Y18455224D01*
X43651806Y18460749D01*
X43537444Y18465734D01*
X43360081Y18469982D01*
X43130549Y18473295D01*
X42859680Y18475476D01*
X42558306Y18476328D01*
X42533453Y18476333D01*
X41374573Y18476333D01*
X40781842Y16105666D01*
D11*
X23457000Y40405000D03*
D12*
X13932000Y40405000D03*
D11*
X42380000Y40405000D03*
D12*
X32855000Y40405000D03*
D13*
X11900000Y29610000D03*
D14*
X11900000Y27070000D03*
X11900000Y24530000D03*
X11900000Y21990000D03*
X11900000Y19450000D03*
D13*
X8725000Y29610000D03*
D14*
X8725000Y27070000D03*
X8725000Y24530000D03*
X8725000Y21990000D03*
X8725000Y19450000D03*
D15*
X28410000Y31515000D03*
D16*
X38570000Y31515000D03*
X36030000Y31515000D03*
D15*
X33490000Y31515000D03*
D16*
X41110000Y31515000D03*
D15*
X20790000Y31515000D03*
D17*
X31125000Y8861000D03*
D18*
X33125000Y8861000D03*
X35125000Y8861000D03*
X37125000Y8861000D03*
D19*
X34760000Y19445000D03*
X34760000Y17545000D03*
D20*
X29045000Y23260000D03*
X29045000Y26160000D03*
D17*
X17330000Y8861000D03*
D18*
X19330000Y8861000D03*
X21330000Y8861000D03*
X23330000Y8861000D03*
D21*
X20454800Y18815000D03*
X18554800Y18815000D03*
X20454800Y16275000D03*
X18554800Y16275000D03*
D19*
X20790000Y25795000D03*
X20790000Y23895000D03*
X23330000Y25800000D03*
X23330000Y23900000D03*
X32220000Y25795000D03*
X32220000Y23895000D03*
D22*
X26187500Y19196000D03*
X26187500Y18688000D03*
X26187500Y18180000D03*
X26187500Y17672000D03*
X26187500Y17164000D03*
X30632500Y17164000D03*
X30632500Y17672000D03*
X30632500Y18180000D03*
X30632500Y18688000D03*
X30632500Y19196000D03*
D20*
X18250000Y23535000D03*
X18250000Y26435000D03*
D19*
X25870000Y25795000D03*
X25870000Y23895000D03*
X34887000Y23844200D03*
X34887000Y25744200D03*
D23*
X3346451Y52434464D03*
X53296451Y52484464D03*
X53246452Y7534468D03*
X3346451Y7534464D03*
D24*
X24727000Y27324000D03*
X29680000Y14243000D03*
X22441000Y17037000D03*
D25*
X8725000Y19450000D02*
X11900000Y19450000D01*
X30632500Y17672000D02*
X32347000Y17672000D01*
X32347000Y17672000D02*
X33236000Y18561000D01*
X33236000Y18561000D02*
X33236000Y19069000D01*
X33612000Y19445000D02*
X34760000Y19445000D01*
X33236000Y19069000D02*
X33612000Y19445000D01*
X26187500Y18180000D02*
X27902000Y18180000D01*
X27902000Y18180000D02*
X28410000Y17672000D01*
X28410000Y17672000D02*
X28791000Y17672000D01*
X28791000Y17672000D02*
X30632500Y17672000D01*
X28791000Y16275000D02*
X28791000Y17672000D01*
X35125000Y10576000D02*
X35125000Y8861000D01*
X33998000Y11703000D02*
X35125000Y10576000D01*
X29680000Y11703000D02*
X33998000Y11703000D01*
X28791000Y12592000D02*
X29680000Y11703000D01*
X35125000Y8861000D02*
X32887000Y6623000D01*
X35891000Y19445000D02*
X36665000Y20219000D01*
X34760000Y19445000D02*
X35891000Y19445000D01*
X36665000Y20219000D02*
X36665000Y25038000D01*
X35908000Y25795000D02*
X34760000Y25795000D01*
X36665000Y25038000D02*
X35908000Y25795000D01*
X15583000Y6623000D02*
X13614500Y8591500D01*
X6820000Y15386000D02*
X13614500Y8591500D01*
X32887000Y6623000D02*
X24854000Y6623000D01*
X21330000Y6718000D02*
X21425000Y6623000D01*
X21330000Y8861000D02*
X21330000Y6718000D01*
X24854000Y6623000D02*
X21425000Y6623000D01*
X21425000Y6623000D02*
X15583000Y6623000D01*
X12412774Y32399226D02*
X12412774Y35320226D01*
X8725000Y19450000D02*
X6820000Y19450000D01*
X6820000Y19450000D02*
X6820000Y15386000D01*
X25870000Y26831000D02*
X25377000Y27324000D01*
X25870000Y25800000D02*
X25870000Y26831000D01*
X25377000Y27324000D02*
X24727000Y27324000D01*
X29680000Y14243000D02*
X29553000Y14243000D01*
X29426000Y14116000D02*
X28791000Y14116000D01*
X29553000Y14243000D02*
X29426000Y14116000D01*
X28791000Y16275000D02*
X28791000Y14116000D01*
X28791000Y14116000D02*
X28791000Y12592000D01*
X12412774Y36891454D02*
X12412774Y35320226D01*
X13805000Y38283680D02*
X12412774Y36891454D01*
X13805000Y40405000D02*
X13805000Y38283680D01*
X32855000Y46755000D02*
X32855000Y40405000D01*
X30315000Y49295000D02*
X32855000Y46755000D01*
X16980000Y49295000D02*
X30315000Y49295000D01*
X13805000Y40405000D02*
X13805000Y46120000D01*
X13805000Y46120000D02*
X16980000Y49295000D01*
X12412774Y32399226D02*
X11015774Y32399226D01*
X11015774Y32399226D02*
X9491774Y32399226D01*
X6820000Y20720000D02*
X6820000Y19450000D01*
X6820000Y20720000D02*
X6820000Y29727452D01*
X6820000Y31378452D02*
X7840774Y32399226D01*
X6820000Y29727452D02*
X6820000Y31378452D01*
X11015774Y32399226D02*
X7840774Y32399226D01*
X16726000Y26435000D02*
X18250000Y26435000D01*
X15837000Y27324000D02*
X16726000Y26435000D01*
X15837000Y32023000D02*
X15837000Y27324000D01*
X12412774Y32399226D02*
X15460774Y32399226D01*
X15460774Y32399226D02*
X15837000Y32023000D01*
X20785000Y23900000D02*
X20790000Y23895000D01*
X20790000Y22864000D02*
X20790000Y23895000D01*
X29045000Y18180000D02*
X28537000Y18688000D01*
X28537000Y18688000D02*
X28537000Y19577000D01*
X30632500Y18180000D02*
X29045000Y18180000D01*
X28537000Y19577000D02*
X25616000Y22498000D01*
X25616000Y22498000D02*
X21156000Y22498000D01*
X21156000Y22498000D02*
X20790000Y22864000D01*
X18250000Y23535000D02*
X19287000Y23535000D01*
X19647000Y23895000D02*
X20790000Y23895000D01*
X19287000Y23535000D02*
X19647000Y23895000D01*
X32485592Y17164000D02*
X32866592Y17545000D01*
X32866592Y17545000D02*
X34760000Y17545000D01*
X30632500Y17164000D02*
X32093000Y17164000D01*
X32093000Y17164000D02*
X32485592Y17164000D01*
X37125000Y9921660D02*
X34581660Y12465000D01*
X37125000Y8861000D02*
X37125000Y9921660D01*
X34581660Y12465000D02*
X33617000Y12465000D01*
X32485592Y13596408D02*
X32485592Y17164000D01*
X33617000Y12465000D02*
X32485592Y13596408D01*
X23330000Y23900000D02*
X25870000Y23900000D01*
X27641000Y23260000D02*
X29045000Y23260000D01*
X25870000Y23900000D02*
X27001000Y23900000D01*
X27001000Y23900000D02*
X27641000Y23260000D01*
X29045000Y23260000D02*
X29045000Y22244000D01*
X30632500Y20656500D02*
X30632500Y19196000D01*
X29045000Y22244000D02*
X30632500Y20656500D01*
X32220000Y22864000D02*
X32220000Y23895000D01*
X32220000Y19194500D02*
X32220000Y22864000D01*
X31713500Y18688000D02*
X32220000Y19194500D01*
X30632500Y18688000D02*
X31713500Y18688000D01*
X34760000Y23895000D02*
X32220000Y23895000D01*
X31089000Y23895000D02*
X32220000Y23895000D01*
X30479000Y23895000D02*
X31089000Y23895000D01*
X29045000Y25329000D02*
X30479000Y23895000D01*
X29045000Y26160000D02*
X29045000Y25329000D01*
X23325000Y25795000D02*
X23330000Y25800000D01*
X20790000Y25795000D02*
X23325000Y25795000D01*
X20790000Y25795000D02*
X20790000Y31515000D01*
X30061000Y31515000D02*
X33490000Y31515000D01*
X28410000Y31515000D02*
X30061000Y31515000D01*
X33490000Y31515000D02*
X36030000Y31515000D01*
X36030000Y31515000D02*
X38570000Y31515000D01*
X38570000Y31515000D02*
X41110000Y31515000D01*
X35395000Y32150000D02*
X36030000Y31515000D01*
X33490000Y28213000D02*
X33490000Y31515000D01*
X33490000Y28096000D02*
X33490000Y28213000D01*
X32220000Y26826000D02*
X33490000Y28096000D01*
X32220000Y25795000D02*
X32220000Y26826000D01*
X41110000Y31515000D02*
X41110000Y35325000D01*
X42380000Y36595000D02*
X42380000Y40405000D01*
X41110000Y35325000D02*
X42380000Y36595000D01*
X8725000Y24530000D02*
X11900000Y24530000D01*
X26187500Y17672000D02*
X23965000Y17672000D01*
X22822000Y18815000D02*
X20454800Y18815000D01*
X23965000Y17672000D02*
X22822000Y18815000D01*
X27521000Y17672000D02*
X26187500Y17672000D01*
X27902000Y17291000D02*
X27521000Y17672000D01*
X13908816Y24530000D02*
X11900000Y24530000D01*
X18176026Y20262790D02*
X13908816Y24530000D01*
X20138010Y20262790D02*
X18176026Y20262790D01*
X20454800Y18815000D02*
X20454800Y19946000D01*
X20454800Y19946000D02*
X20138010Y20262790D01*
X27902000Y17291000D02*
X27902000Y11068000D01*
X31978660Y11068000D02*
X28791000Y11068000D01*
X33125000Y9921660D02*
X31978660Y11068000D01*
X33125000Y8861000D02*
X33125000Y9921660D01*
X27902000Y11068000D02*
X28791000Y11068000D01*
X19330000Y10497000D02*
X19330000Y8861000D01*
X27902000Y11068000D02*
X19901000Y11068000D01*
X19901000Y11068000D02*
X19330000Y10497000D01*
X8725000Y21990000D02*
X11900000Y21990000D01*
X18554800Y16275000D02*
X18554800Y18815000D01*
X11900000Y21990000D02*
X13805000Y21990000D01*
X16980000Y18815000D02*
X18554800Y18815000D01*
X13805000Y21990000D02*
X16980000Y18815000D01*
X8725000Y27070000D02*
X11900000Y27070000D01*
X26187500Y17164000D02*
X23965000Y17164000D01*
X23965000Y17164000D02*
X23076000Y16275000D01*
X22441000Y16402000D02*
X22314000Y16275000D01*
X22441000Y17037000D02*
X22441000Y16402000D01*
X23076000Y16275000D02*
X22314000Y16275000D01*
X22314000Y16275000D02*
X20454800Y16275000D01*
X23076000Y16275000D02*
X23076000Y13862000D01*
X23076000Y13862000D02*
X21044000Y11830000D01*
X21044000Y11830000D02*
X18504000Y11830000D01*
X17330000Y10656000D02*
X17330000Y8861000D01*
X18504000Y11830000D02*
X17330000Y10656000D01*
X13170000Y29610000D02*
X11900000Y29610000D01*
X13932000Y28848000D02*
X13170000Y29610000D01*
X13932000Y25153408D02*
X13932000Y28848000D01*
X25106500Y18688000D02*
X23074500Y20720000D01*
X26187500Y18688000D02*
X25106500Y18688000D01*
X23074500Y20720000D02*
X18377000Y20720000D01*
X18377000Y20720000D02*
X17310209Y21786791D01*
X17310209Y21786791D02*
X17298617Y21786791D01*
X17298617Y21786791D02*
X13932000Y25153408D01*
X10376000Y31261000D02*
X8725000Y29610000D01*
X13297000Y31261000D02*
X10376000Y31261000D01*
X14389210Y25342790D02*
X14389210Y30168790D01*
X25632500Y19196000D02*
X23528750Y21299750D01*
X26187500Y19196000D02*
X25632500Y19196000D01*
X23528750Y21299750D02*
X18443842Y21299750D01*
X18443842Y21299750D02*
X17499592Y22244000D01*
X14389210Y30168790D02*
X13297000Y31261000D01*
X17499592Y22244000D02*
X17487999Y22244001D01*
X17487999Y22244001D02*
X14389210Y25342790D01*
D26*
G36*
X27648000Y37301907D02*
G01*
X24534659Y35433902D01*
X24514669Y35419062D01*
X24497958Y35400607D01*
X24485168Y35379247D01*
X24476792Y35355802D01*
X24473000Y35325000D01*
X24473000Y28467927D01*
X24468338Y28467000D01*
X17742000Y28467000D01*
X17742000Y44162394D01*
X18937606Y45358000D01*
X27648000Y45358000D01*
X27648000Y37301907D01*
X27648000Y37301907D01*
G37*
X27648000Y37301907D02*
X24534659Y35433902D01*
X24514669Y35419062D01*
X24497958Y35400607D01*
X24485168Y35379247D01*
X24476792Y35355802D01*
X24473000Y35325000D01*
X24473000Y28467927D01*
X24468338Y28467000D01*
X17742000Y28467000D01*
X17742000Y44162394D01*
X18937606Y45358000D01*
X27648000Y45358000D01*
X27648000Y37301907D01*
G36*
X46063000Y30932606D02*
G01*
X43597394Y28467000D01*
X27267000Y28467000D01*
X27267000Y34611510D01*
X30979980Y36468000D01*
X36030000Y36468000D01*
X36054776Y36470440D01*
X36078601Y36477667D01*
X36100447Y36489330D01*
X38005447Y37759330D01*
X38024709Y37775104D01*
X38040523Y37794332D01*
X38052282Y37816276D01*
X38059534Y37840093D01*
X38062000Y37865000D01*
X38062000Y45358000D01*
X46063000Y45358000D01*
X46063000Y30932606D01*
X46063000Y30932606D01*
G37*
X46063000Y30932606D02*
X43597394Y28467000D01*
X27267000Y28467000D01*
X27267000Y34611510D01*
X30979980Y36468000D01*
X36030000Y36468000D01*
X36054776Y36470440D01*
X36078601Y36477667D01*
X36100447Y36489330D01*
X38005447Y37759330D01*
X38024709Y37775104D01*
X38040523Y37794332D01*
X38052282Y37816276D01*
X38059534Y37840093D01*
X38062000Y37865000D01*
X38062000Y45358000D01*
X46063000Y45358000D01*
X46063000Y30932606D01*
G36*
X36538000Y39187606D02*
G01*
X35342394Y37992000D01*
X29172000Y37992000D01*
X29172000Y45485000D01*
X29169560Y45509776D01*
X29158592Y45541796D01*
X28523592Y46811796D01*
X28510329Y46832866D01*
X28493211Y46850943D01*
X28472894Y46865333D01*
X28450161Y46875483D01*
X28425884Y46881003D01*
X28410000Y46882000D01*
X18885000Y46882000D01*
X18860224Y46879560D01*
X18836399Y46872333D01*
X18814443Y46860597D01*
X18795197Y46844803D01*
X16890197Y44939803D01*
X16874403Y44920557D01*
X16862667Y44898601D01*
X16855440Y44874776D01*
X16853000Y44850000D01*
X16853000Y35452000D01*
X9487000Y35452000D01*
X9487000Y50512394D01*
X11952606Y52978000D01*
X36538000Y52978000D01*
X36538000Y39187606D01*
X36538000Y39187606D01*
G37*
X36538000Y39187606D02*
X35342394Y37992000D01*
X29172000Y37992000D01*
X29172000Y45485000D01*
X29169560Y45509776D01*
X29158592Y45541796D01*
X28523592Y46811796D01*
X28510329Y46832866D01*
X28493211Y46850943D01*
X28472894Y46865333D01*
X28450161Y46875483D01*
X28425884Y46881003D01*
X28410000Y46882000D01*
X18885000Y46882000D01*
X18860224Y46879560D01*
X18836399Y46872333D01*
X18814443Y46860597D01*
X18795197Y46844803D01*
X16890197Y44939803D01*
X16874403Y44920557D01*
X16862667Y44898601D01*
X16855440Y44874776D01*
X16853000Y44850000D01*
X16853000Y35452000D01*
X9487000Y35452000D01*
X9487000Y50512394D01*
X11952606Y52978000D01*
X36538000Y52978000D01*
X36538000Y39187606D01*
G36*
X7532193Y31376770D02*
G01*
X7395153Y31335200D01*
X7268857Y31267693D01*
X7158156Y31176844D01*
X7067307Y31066143D01*
X6999800Y30939847D01*
X6958230Y30802807D01*
X6944193Y30660290D01*
X6944193Y28559710D01*
X6958230Y28417193D01*
X6999800Y28280153D01*
X7067307Y28153857D01*
X7158156Y28043156D01*
X7171065Y28032562D01*
X7106093Y27935324D01*
X6968384Y27602864D01*
X6898180Y27249926D01*
X6898180Y26890074D01*
X6968384Y26537136D01*
X7106093Y26204676D01*
X7306016Y25905470D01*
X7411486Y25800000D01*
X7306016Y25694530D01*
X7106093Y25395324D01*
X6968384Y25062864D01*
X6898180Y24709926D01*
X6898180Y24350074D01*
X6968384Y23997136D01*
X7106093Y23664676D01*
X7306016Y23365470D01*
X7411486Y23260000D01*
X7306016Y23154530D01*
X7106093Y22855324D01*
X6968384Y22522864D01*
X6898180Y22169926D01*
X6898180Y21810074D01*
X6968384Y21457136D01*
X7106093Y21124676D01*
X7306016Y20825470D01*
X7471039Y20660447D01*
X7402992Y20592400D01*
X7518415Y20476977D01*
X7243809Y20369167D01*
X7092948Y20062540D01*
X7004806Y19732372D01*
X6982772Y19391353D01*
X7027690Y19052588D01*
X7137834Y18729095D01*
X7243809Y18530833D01*
X7518417Y18423022D01*
X8545395Y19450000D01*
X8531253Y19464142D01*
X8710858Y19643747D01*
X8725000Y19629605D01*
X8739143Y19643747D01*
X8918748Y19464142D01*
X8904605Y19450000D01*
X9931583Y18423022D01*
X10206191Y18530833D01*
X10309113Y18740023D01*
X10312834Y18729095D01*
X10418809Y18530833D01*
X10693417Y18423022D01*
X11720395Y19450000D01*
X11706253Y19464142D01*
X11885858Y19643747D01*
X11900000Y19629605D01*
X11914143Y19643747D01*
X12093748Y19464142D01*
X12079605Y19450000D01*
X13106583Y18423022D01*
X13381191Y18530833D01*
X13532052Y18837460D01*
X13620194Y19167628D01*
X13642228Y19508647D01*
X13597310Y19847412D01*
X13487166Y20170905D01*
X13381191Y20369167D01*
X13106585Y20476977D01*
X13222008Y20592400D01*
X13153961Y20660447D01*
X13318984Y20825470D01*
X13460378Y21037082D01*
X16299363Y18198096D01*
X16328091Y18163091D01*
X16363096Y18134363D01*
X16363098Y18134361D01*
X16422101Y18085939D01*
X16467798Y18048436D01*
X16627189Y17963239D01*
X16759886Y17922987D01*
X16800138Y17910776D01*
X16818627Y17908955D01*
X16934931Y17897500D01*
X16934937Y17897500D01*
X16979999Y17893062D01*
X17025061Y17897500D01*
X17195898Y17897500D01*
X17229890Y17785443D01*
X17297397Y17659147D01*
X17388246Y17548446D01*
X17392445Y17545000D01*
X17388246Y17541554D01*
X17297397Y17430853D01*
X17229890Y17304557D01*
X17188320Y17167517D01*
X17174283Y17025000D01*
X17174283Y15525000D01*
X17188320Y15382483D01*
X17229890Y15245443D01*
X17297397Y15119147D01*
X17388246Y15008446D01*
X17498947Y14917597D01*
X17625243Y14850090D01*
X17762283Y14808520D01*
X17904800Y14794483D01*
X19204800Y14794483D01*
X19347317Y14808520D01*
X19484357Y14850090D01*
X19504800Y14861017D01*
X19525243Y14850090D01*
X19662283Y14808520D01*
X19804800Y14794483D01*
X21104800Y14794483D01*
X21247317Y14808520D01*
X21384357Y14850090D01*
X21510653Y14917597D01*
X21621354Y15008446D01*
X21712203Y15119147D01*
X21779710Y15245443D01*
X21813702Y15357500D01*
X22158500Y15357500D01*
X22158501Y14242042D01*
X20663960Y12747500D01*
X18549062Y12747500D01*
X18504000Y12751938D01*
X18458938Y12747500D01*
X18458931Y12747500D01*
X18324139Y12734224D01*
X18151189Y12681761D01*
X17991798Y12596564D01*
X17852091Y12481909D01*
X17823363Y12446904D01*
X16713101Y11336641D01*
X16678091Y11307909D01*
X16563436Y11168201D01*
X16485787Y11022931D01*
X16478239Y11008810D01*
X16428124Y10843599D01*
X16425776Y10835860D01*
X16412500Y10701068D01*
X16412500Y10701062D01*
X16408062Y10656000D01*
X16412500Y10610938D01*
X16412500Y10319902D01*
X16300443Y10285910D01*
X16174147Y10218403D01*
X16063446Y10127554D01*
X15972597Y10016853D01*
X15905090Y9890557D01*
X15863520Y9753517D01*
X15849483Y9611000D01*
X15849483Y8111000D01*
X15863520Y7968483D01*
X15905090Y7831443D01*
X15972597Y7705147D01*
X16063446Y7594446D01*
X16174147Y7503597D01*
X16300443Y7436090D01*
X16437483Y7394520D01*
X16580000Y7380483D01*
X18080000Y7380483D01*
X18222517Y7394520D01*
X18359557Y7436090D01*
X18485853Y7503597D01*
X18583291Y7583562D01*
X18630378Y7552099D01*
X18899175Y7440760D01*
X19184528Y7384000D01*
X19475472Y7384000D01*
X19760825Y7440760D01*
X20029622Y7552099D01*
X20271533Y7713739D01*
X20390750Y7832956D01*
X20436157Y7787549D01*
X20552613Y7904005D01*
X20618137Y7665140D01*
X20865116Y7549240D01*
X21129960Y7483750D01*
X21402492Y7471188D01*
X21672238Y7512035D01*
X21928832Y7604723D01*
X22041863Y7665140D01*
X22107387Y7904005D01*
X22223843Y7787549D01*
X22269250Y7832956D01*
X22388467Y7713739D01*
X22630378Y7552099D01*
X22899175Y7440760D01*
X23184528Y7384000D01*
X23475472Y7384000D01*
X23760825Y7440760D01*
X24029622Y7552099D01*
X24271533Y7713739D01*
X24477261Y7919467D01*
X24638901Y8161378D01*
X24750240Y8430175D01*
X24807000Y8715528D01*
X24807000Y9006472D01*
X24750240Y9291825D01*
X24638901Y9560622D01*
X24477261Y9802533D01*
X24271533Y10008261D01*
X24058658Y10150500D01*
X27856931Y10150500D01*
X27902000Y10146061D01*
X27947069Y10150500D01*
X29886406Y10150500D01*
X29858446Y10127554D01*
X29767597Y10016853D01*
X29700090Y9890557D01*
X29658520Y9753517D01*
X29644483Y9611000D01*
X29644483Y8111000D01*
X29658520Y7968483D01*
X29700090Y7831443D01*
X29767597Y7705147D01*
X29858446Y7594446D01*
X29969147Y7503597D01*
X30095443Y7436090D01*
X30232483Y7394520D01*
X30375000Y7380483D01*
X31875000Y7380483D01*
X32017517Y7394520D01*
X32154557Y7436090D01*
X32280853Y7503597D01*
X32378291Y7583562D01*
X32425378Y7552099D01*
X32694175Y7440760D01*
X32979528Y7384000D01*
X33270472Y7384000D01*
X33555825Y7440760D01*
X33824622Y7552099D01*
X34066533Y7713739D01*
X34185750Y7832956D01*
X34231157Y7787549D01*
X34347613Y7904005D01*
X34413137Y7665140D01*
X34660116Y7549240D01*
X34924960Y7483750D01*
X35197492Y7471188D01*
X35467238Y7512035D01*
X35723832Y7604723D01*
X35836863Y7665140D01*
X35902387Y7904005D01*
X36018843Y7787549D01*
X36064250Y7832956D01*
X36183467Y7713739D01*
X36425378Y7552099D01*
X36694175Y7440760D01*
X36979528Y7384000D01*
X37270472Y7384000D01*
X37555825Y7440760D01*
X37824622Y7552099D01*
X38066533Y7713739D01*
X38272261Y7919467D01*
X38433901Y8161378D01*
X38545240Y8430175D01*
X38602000Y8715528D01*
X38602000Y9006472D01*
X38545240Y9291825D01*
X38433901Y9560622D01*
X38272261Y9802533D01*
X38066533Y10008261D01*
X38036428Y10028376D01*
X38029224Y10101521D01*
X38016400Y10143799D01*
X37976761Y10274471D01*
X37948427Y10327480D01*
X37891564Y10433862D01*
X37776909Y10573569D01*
X37741904Y10602297D01*
X35262301Y13081899D01*
X35233569Y13116909D01*
X35093862Y13231564D01*
X34934471Y13316761D01*
X34761521Y13369224D01*
X34626729Y13382500D01*
X34626722Y13382500D01*
X34581660Y13386938D01*
X34536598Y13382500D01*
X33997041Y13382500D01*
X33403092Y13976448D01*
X33403092Y16488544D01*
X33493446Y16378446D01*
X33604147Y16287597D01*
X33730443Y16220090D01*
X33867483Y16178520D01*
X34010000Y16164483D01*
X35510000Y16164483D01*
X35652517Y16178520D01*
X35789557Y16220090D01*
X35915853Y16287597D01*
X36026554Y16378446D01*
X36117403Y16489147D01*
X36184910Y16615443D01*
X36226480Y16752483D01*
X36240517Y16895000D01*
X36240517Y18195000D01*
X36226480Y18337517D01*
X36184910Y18474557D01*
X36117403Y18600853D01*
X36115414Y18603276D01*
X36135812Y18670518D01*
X36148072Y18795000D01*
X36145000Y19159250D01*
X35986250Y19318000D01*
X34887000Y19318000D01*
X34887000Y19298000D01*
X34633000Y19298000D01*
X34633000Y19318000D01*
X33533750Y19318000D01*
X33375000Y19159250D01*
X33371928Y18795000D01*
X33384188Y18670518D01*
X33404586Y18603276D01*
X33402597Y18600853D01*
X33335090Y18474557D01*
X33331433Y18462500D01*
X32911650Y18462500D01*
X32866591Y18466938D01*
X32821532Y18462500D01*
X32821523Y18462500D01*
X32781608Y18458569D01*
X32836895Y18513856D01*
X32871909Y18542591D01*
X32986564Y18682298D01*
X33071761Y18841689D01*
X33124224Y19014639D01*
X33137500Y19149431D01*
X33137500Y19149440D01*
X33141938Y19194499D01*
X33137500Y19239558D01*
X33137500Y20095000D01*
X33371928Y20095000D01*
X33375000Y19730750D01*
X33533750Y19572000D01*
X34633000Y19572000D01*
X34633000Y20571250D01*
X34887000Y20571250D01*
X34887000Y19572000D01*
X35986250Y19572000D01*
X36145000Y19730750D01*
X36148072Y20095000D01*
X36135812Y20219482D01*
X36099502Y20339180D01*
X36040537Y20449494D01*
X35961185Y20546185D01*
X35864494Y20625537D01*
X35754180Y20684502D01*
X35634482Y20720812D01*
X35510000Y20733072D01*
X35045750Y20730000D01*
X34887000Y20571250D01*
X34633000Y20571250D01*
X34474250Y20730000D01*
X34010000Y20733072D01*
X33885518Y20720812D01*
X33765820Y20684502D01*
X33655506Y20625537D01*
X33558815Y20546185D01*
X33479463Y20449494D01*
X33420498Y20339180D01*
X33384188Y20219482D01*
X33371928Y20095000D01*
X33137500Y20095000D01*
X33137500Y22536098D01*
X33249557Y22570090D01*
X33375853Y22637597D01*
X33486554Y22728446D01*
X33532655Y22784621D01*
X33620446Y22677646D01*
X33731147Y22586797D01*
X33857443Y22519290D01*
X33994483Y22477720D01*
X34137000Y22463683D01*
X35637000Y22463683D01*
X35779517Y22477720D01*
X35916557Y22519290D01*
X36042853Y22586797D01*
X36153554Y22677646D01*
X36244403Y22788347D01*
X36311910Y22914643D01*
X36353480Y23051683D01*
X36367517Y23194200D01*
X36367517Y24494200D01*
X36353480Y24636717D01*
X36311910Y24773757D01*
X36244403Y24900053D01*
X36242414Y24902476D01*
X36262812Y24969718D01*
X36275072Y25094200D01*
X36272000Y25458450D01*
X36113250Y25617200D01*
X35014000Y25617200D01*
X35014000Y25597200D01*
X34760000Y25597200D01*
X34760000Y25617200D01*
X34740000Y25617200D01*
X34740000Y25871200D01*
X34760000Y25871200D01*
X34760000Y25891200D01*
X35014000Y25891200D01*
X35014000Y25871200D01*
X36113250Y25871200D01*
X36272000Y26029950D01*
X36275072Y26394200D01*
X36262812Y26518682D01*
X36226502Y26638380D01*
X36167537Y26748694D01*
X36088185Y26845385D01*
X35991494Y26924737D01*
X35957327Y26943000D01*
X37173000Y26943000D01*
X37173000Y13100000D01*
X37175440Y13075224D01*
X37182667Y13051399D01*
X37194403Y13029443D01*
X37210197Y13010197D01*
X39078000Y11142394D01*
X39078000Y6242000D01*
X15125058Y6242000D01*
X5677000Y15060188D01*
X5677000Y18243417D01*
X7698022Y18243417D01*
X7805833Y17968809D01*
X8112460Y17817948D01*
X8442628Y17729806D01*
X8783647Y17707772D01*
X9122412Y17752690D01*
X9445905Y17862834D01*
X9644167Y17968809D01*
X9751978Y18243417D01*
X10873022Y18243417D01*
X10980833Y17968809D01*
X11287460Y17817948D01*
X11617628Y17729806D01*
X11958647Y17707772D01*
X12297412Y17752690D01*
X12620905Y17862834D01*
X12819167Y17968809D01*
X12926978Y18243417D01*
X11900000Y19270395D01*
X10873022Y18243417D01*
X9751978Y18243417D01*
X8725000Y19270395D01*
X7698022Y18243417D01*
X5677000Y18243417D01*
X5677000Y31388000D01*
X7646211Y31388000D01*
X7532193Y31376770D01*
X7532193Y31376770D01*
G37*
X7532193Y31376770D02*
X7395153Y31335200D01*
X7268857Y31267693D01*
X7158156Y31176844D01*
X7067307Y31066143D01*
X6999800Y30939847D01*
X6958230Y30802807D01*
X6944193Y30660290D01*
X6944193Y28559710D01*
X6958230Y28417193D01*
X6999800Y28280153D01*
X7067307Y28153857D01*
X7158156Y28043156D01*
X7171065Y28032562D01*
X7106093Y27935324D01*
X6968384Y27602864D01*
X6898180Y27249926D01*
X6898180Y26890074D01*
X6968384Y26537136D01*
X7106093Y26204676D01*
X7306016Y25905470D01*
X7411486Y25800000D01*
X7306016Y25694530D01*
X7106093Y25395324D01*
X6968384Y25062864D01*
X6898180Y24709926D01*
X6898180Y24350074D01*
X6968384Y23997136D01*
X7106093Y23664676D01*
X7306016Y23365470D01*
X7411486Y23260000D01*
X7306016Y23154530D01*
X7106093Y22855324D01*
X6968384Y22522864D01*
X6898180Y22169926D01*
X6898180Y21810074D01*
X6968384Y21457136D01*
X7106093Y21124676D01*
X7306016Y20825470D01*
X7471039Y20660447D01*
X7402992Y20592400D01*
X7518415Y20476977D01*
X7243809Y20369167D01*
X7092948Y20062540D01*
X7004806Y19732372D01*
X6982772Y19391353D01*
X7027690Y19052588D01*
X7137834Y18729095D01*
X7243809Y18530833D01*
X7518417Y18423022D01*
X8545395Y19450000D01*
X8531253Y19464142D01*
X8710858Y19643747D01*
X8725000Y19629605D01*
X8739143Y19643747D01*
X8918748Y19464142D01*
X8904605Y19450000D01*
X9931583Y18423022D01*
X10206191Y18530833D01*
X10309113Y18740023D01*
X10312834Y18729095D01*
X10418809Y18530833D01*
X10693417Y18423022D01*
X11720395Y19450000D01*
X11706253Y19464142D01*
X11885858Y19643747D01*
X11900000Y19629605D01*
X11914143Y19643747D01*
X12093748Y19464142D01*
X12079605Y19450000D01*
X13106583Y18423022D01*
X13381191Y18530833D01*
X13532052Y18837460D01*
X13620194Y19167628D01*
X13642228Y19508647D01*
X13597310Y19847412D01*
X13487166Y20170905D01*
X13381191Y20369167D01*
X13106585Y20476977D01*
X13222008Y20592400D01*
X13153961Y20660447D01*
X13318984Y20825470D01*
X13460378Y21037082D01*
X16299363Y18198096D01*
X16328091Y18163091D01*
X16363096Y18134363D01*
X16363098Y18134361D01*
X16422101Y18085939D01*
X16467798Y18048436D01*
X16627189Y17963239D01*
X16759886Y17922987D01*
X16800138Y17910776D01*
X16818627Y17908955D01*
X16934931Y17897500D01*
X16934937Y17897500D01*
X16979999Y17893062D01*
X17025061Y17897500D01*
X17195898Y17897500D01*
X17229890Y17785443D01*
X17297397Y17659147D01*
X17388246Y17548446D01*
X17392445Y17545000D01*
X17388246Y17541554D01*
X17297397Y17430853D01*
X17229890Y17304557D01*
X17188320Y17167517D01*
X17174283Y17025000D01*
X17174283Y15525000D01*
X17188320Y15382483D01*
X17229890Y15245443D01*
X17297397Y15119147D01*
X17388246Y15008446D01*
X17498947Y14917597D01*
X17625243Y14850090D01*
X17762283Y14808520D01*
X17904800Y14794483D01*
X19204800Y14794483D01*
X19347317Y14808520D01*
X19484357Y14850090D01*
X19504800Y14861017D01*
X19525243Y14850090D01*
X19662283Y14808520D01*
X19804800Y14794483D01*
X21104800Y14794483D01*
X21247317Y14808520D01*
X21384357Y14850090D01*
X21510653Y14917597D01*
X21621354Y15008446D01*
X21712203Y15119147D01*
X21779710Y15245443D01*
X21813702Y15357500D01*
X22158500Y15357500D01*
X22158501Y14242042D01*
X20663960Y12747500D01*
X18549062Y12747500D01*
X18504000Y12751938D01*
X18458938Y12747500D01*
X18458931Y12747500D01*
X18324139Y12734224D01*
X18151189Y12681761D01*
X17991798Y12596564D01*
X17852091Y12481909D01*
X17823363Y12446904D01*
X16713101Y11336641D01*
X16678091Y11307909D01*
X16563436Y11168201D01*
X16485787Y11022931D01*
X16478239Y11008810D01*
X16428124Y10843599D01*
X16425776Y10835860D01*
X16412500Y10701068D01*
X16412500Y10701062D01*
X16408062Y10656000D01*
X16412500Y10610938D01*
X16412500Y10319902D01*
X16300443Y10285910D01*
X16174147Y10218403D01*
X16063446Y10127554D01*
X15972597Y10016853D01*
X15905090Y9890557D01*
X15863520Y9753517D01*
X15849483Y9611000D01*
X15849483Y8111000D01*
X15863520Y7968483D01*
X15905090Y7831443D01*
X15972597Y7705147D01*
X16063446Y7594446D01*
X16174147Y7503597D01*
X16300443Y7436090D01*
X16437483Y7394520D01*
X16580000Y7380483D01*
X18080000Y7380483D01*
X18222517Y7394520D01*
X18359557Y7436090D01*
X18485853Y7503597D01*
X18583291Y7583562D01*
X18630378Y7552099D01*
X18899175Y7440760D01*
X19184528Y7384000D01*
X19475472Y7384000D01*
X19760825Y7440760D01*
X20029622Y7552099D01*
X20271533Y7713739D01*
X20390750Y7832956D01*
X20436157Y7787549D01*
X20552613Y7904005D01*
X20618137Y7665140D01*
X20865116Y7549240D01*
X21129960Y7483750D01*
X21402492Y7471188D01*
X21672238Y7512035D01*
X21928832Y7604723D01*
X22041863Y7665140D01*
X22107387Y7904005D01*
X22223843Y7787549D01*
X22269250Y7832956D01*
X22388467Y7713739D01*
X22630378Y7552099D01*
X22899175Y7440760D01*
X23184528Y7384000D01*
X23475472Y7384000D01*
X23760825Y7440760D01*
X24029622Y7552099D01*
X24271533Y7713739D01*
X24477261Y7919467D01*
X24638901Y8161378D01*
X24750240Y8430175D01*
X24807000Y8715528D01*
X24807000Y9006472D01*
X24750240Y9291825D01*
X24638901Y9560622D01*
X24477261Y9802533D01*
X24271533Y10008261D01*
X24058658Y10150500D01*
X27856931Y10150500D01*
X27902000Y10146061D01*
X27947069Y10150500D01*
X29886406Y10150500D01*
X29858446Y10127554D01*
X29767597Y10016853D01*
X29700090Y9890557D01*
X29658520Y9753517D01*
X29644483Y9611000D01*
X29644483Y8111000D01*
X29658520Y7968483D01*
X29700090Y7831443D01*
X29767597Y7705147D01*
X29858446Y7594446D01*
X29969147Y7503597D01*
X30095443Y7436090D01*
X30232483Y7394520D01*
X30375000Y7380483D01*
X31875000Y7380483D01*
X32017517Y7394520D01*
X32154557Y7436090D01*
X32280853Y7503597D01*
X32378291Y7583562D01*
X32425378Y7552099D01*
X32694175Y7440760D01*
X32979528Y7384000D01*
X33270472Y7384000D01*
X33555825Y7440760D01*
X33824622Y7552099D01*
X34066533Y7713739D01*
X34185750Y7832956D01*
X34231157Y7787549D01*
X34347613Y7904005D01*
X34413137Y7665140D01*
X34660116Y7549240D01*
X34924960Y7483750D01*
X35197492Y7471188D01*
X35467238Y7512035D01*
X35723832Y7604723D01*
X35836863Y7665140D01*
X35902387Y7904005D01*
X36018843Y7787549D01*
X36064250Y7832956D01*
X36183467Y7713739D01*
X36425378Y7552099D01*
X36694175Y7440760D01*
X36979528Y7384000D01*
X37270472Y7384000D01*
X37555825Y7440760D01*
X37824622Y7552099D01*
X38066533Y7713739D01*
X38272261Y7919467D01*
X38433901Y8161378D01*
X38545240Y8430175D01*
X38602000Y8715528D01*
X38602000Y9006472D01*
X38545240Y9291825D01*
X38433901Y9560622D01*
X38272261Y9802533D01*
X38066533Y10008261D01*
X38036428Y10028376D01*
X38029224Y10101521D01*
X38016400Y10143799D01*
X37976761Y10274471D01*
X37948427Y10327480D01*
X37891564Y10433862D01*
X37776909Y10573569D01*
X37741904Y10602297D01*
X35262301Y13081899D01*
X35233569Y13116909D01*
X35093862Y13231564D01*
X34934471Y13316761D01*
X34761521Y13369224D01*
X34626729Y13382500D01*
X34626722Y13382500D01*
X34581660Y13386938D01*
X34536598Y13382500D01*
X33997041Y13382500D01*
X33403092Y13976448D01*
X33403092Y16488544D01*
X33493446Y16378446D01*
X33604147Y16287597D01*
X33730443Y16220090D01*
X33867483Y16178520D01*
X34010000Y16164483D01*
X35510000Y16164483D01*
X35652517Y16178520D01*
X35789557Y16220090D01*
X35915853Y16287597D01*
X36026554Y16378446D01*
X36117403Y16489147D01*
X36184910Y16615443D01*
X36226480Y16752483D01*
X36240517Y16895000D01*
X36240517Y18195000D01*
X36226480Y18337517D01*
X36184910Y18474557D01*
X36117403Y18600853D01*
X36115414Y18603276D01*
X36135812Y18670518D01*
X36148072Y18795000D01*
X36145000Y19159250D01*
X35986250Y19318000D01*
X34887000Y19318000D01*
X34887000Y19298000D01*
X34633000Y19298000D01*
X34633000Y19318000D01*
X33533750Y19318000D01*
X33375000Y19159250D01*
X33371928Y18795000D01*
X33384188Y18670518D01*
X33404586Y18603276D01*
X33402597Y18600853D01*
X33335090Y18474557D01*
X33331433Y18462500D01*
X32911650Y18462500D01*
X32866591Y18466938D01*
X32821532Y18462500D01*
X32821523Y18462500D01*
X32781608Y18458569D01*
X32836895Y18513856D01*
X32871909Y18542591D01*
X32986564Y18682298D01*
X33071761Y18841689D01*
X33124224Y19014639D01*
X33137500Y19149431D01*
X33137500Y19149440D01*
X33141938Y19194499D01*
X33137500Y19239558D01*
X33137500Y20095000D01*
X33371928Y20095000D01*
X33375000Y19730750D01*
X33533750Y19572000D01*
X34633000Y19572000D01*
X34633000Y20571250D01*
X34887000Y20571250D01*
X34887000Y19572000D01*
X35986250Y19572000D01*
X36145000Y19730750D01*
X36148072Y20095000D01*
X36135812Y20219482D01*
X36099502Y20339180D01*
X36040537Y20449494D01*
X35961185Y20546185D01*
X35864494Y20625537D01*
X35754180Y20684502D01*
X35634482Y20720812D01*
X35510000Y20733072D01*
X35045750Y20730000D01*
X34887000Y20571250D01*
X34633000Y20571250D01*
X34474250Y20730000D01*
X34010000Y20733072D01*
X33885518Y20720812D01*
X33765820Y20684502D01*
X33655506Y20625537D01*
X33558815Y20546185D01*
X33479463Y20449494D01*
X33420498Y20339180D01*
X33384188Y20219482D01*
X33371928Y20095000D01*
X33137500Y20095000D01*
X33137500Y22536098D01*
X33249557Y22570090D01*
X33375853Y22637597D01*
X33486554Y22728446D01*
X33532655Y22784621D01*
X33620446Y22677646D01*
X33731147Y22586797D01*
X33857443Y22519290D01*
X33994483Y22477720D01*
X34137000Y22463683D01*
X35637000Y22463683D01*
X35779517Y22477720D01*
X35916557Y22519290D01*
X36042853Y22586797D01*
X36153554Y22677646D01*
X36244403Y22788347D01*
X36311910Y22914643D01*
X36353480Y23051683D01*
X36367517Y23194200D01*
X36367517Y24494200D01*
X36353480Y24636717D01*
X36311910Y24773757D01*
X36244403Y24900053D01*
X36242414Y24902476D01*
X36262812Y24969718D01*
X36275072Y25094200D01*
X36272000Y25458450D01*
X36113250Y25617200D01*
X35014000Y25617200D01*
X35014000Y25597200D01*
X34760000Y25597200D01*
X34760000Y25617200D01*
X34740000Y25617200D01*
X34740000Y25871200D01*
X34760000Y25871200D01*
X34760000Y25891200D01*
X35014000Y25891200D01*
X35014000Y25871200D01*
X36113250Y25871200D01*
X36272000Y26029950D01*
X36275072Y26394200D01*
X36262812Y26518682D01*
X36226502Y26638380D01*
X36167537Y26748694D01*
X36088185Y26845385D01*
X35991494Y26924737D01*
X35957327Y26943000D01*
X37173000Y26943000D01*
X37173000Y13100000D01*
X37175440Y13075224D01*
X37182667Y13051399D01*
X37194403Y13029443D01*
X37210197Y13010197D01*
X39078000Y11142394D01*
X39078000Y6242000D01*
X15125058Y6242000D01*
X5677000Y15060188D01*
X5677000Y18243417D01*
X7698022Y18243417D01*
X7805833Y17968809D01*
X8112460Y17817948D01*
X8442628Y17729806D01*
X8783647Y17707772D01*
X9122412Y17752690D01*
X9445905Y17862834D01*
X9644167Y17968809D01*
X9751978Y18243417D01*
X10873022Y18243417D01*
X10980833Y17968809D01*
X11287460Y17817948D01*
X11617628Y17729806D01*
X11958647Y17707772D01*
X12297412Y17752690D01*
X12620905Y17862834D01*
X12819167Y17968809D01*
X12926978Y18243417D01*
X11900000Y19270395D01*
X10873022Y18243417D01*
X9751978Y18243417D01*
X8725000Y19270395D01*
X7698022Y18243417D01*
X5677000Y18243417D01*
X5677000Y31388000D01*
X7646211Y31388000D01*
X7532193Y31376770D01*
G36*
X21523748Y8875142D02*
G01*
X21509605Y8861000D01*
X21523748Y8846857D01*
X21344143Y8667252D01*
X21330000Y8681395D01*
X21315858Y8667252D01*
X21136253Y8846857D01*
X21150395Y8861000D01*
X21136253Y8875142D01*
X21315858Y9054747D01*
X21330000Y9040605D01*
X21344143Y9054747D01*
X21523748Y8875142D01*
X21523748Y8875142D01*
G37*
X21523748Y8875142D02*
X21509605Y8861000D01*
X21523748Y8846857D01*
X21344143Y8667252D01*
X21330000Y8681395D01*
X21315858Y8667252D01*
X21136253Y8846857D01*
X21150395Y8861000D01*
X21136253Y8875142D01*
X21315858Y9054747D01*
X21330000Y9040605D01*
X21344143Y9054747D01*
X21523748Y8875142D01*
G36*
X35318748Y8875142D02*
G01*
X35304605Y8861000D01*
X35318748Y8846857D01*
X35139143Y8667252D01*
X35125000Y8681395D01*
X35110858Y8667252D01*
X34931253Y8846857D01*
X34945395Y8861000D01*
X34931253Y8875142D01*
X35110858Y9054747D01*
X35125000Y9040605D01*
X35139143Y9054747D01*
X35318748Y8875142D01*
X35318748Y8875142D01*
G37*
X35318748Y8875142D02*
X35304605Y8861000D01*
X35318748Y8846857D01*
X35139143Y8667252D01*
X35125000Y8681395D01*
X35110858Y8667252D01*
X34931253Y8846857D01*
X34945395Y8861000D01*
X34931253Y8875142D01*
X35110858Y9054747D01*
X35125000Y9040605D01*
X35139143Y9054747D01*
X35318748Y8875142D01*
G36*
X28865139Y17275776D02*
G01*
X28999931Y17262500D01*
X28999940Y17262500D01*
X29044999Y17258062D01*
X29090058Y17262500D01*
X29201983Y17262500D01*
X29201983Y17019000D01*
X29216020Y16876483D01*
X29257590Y16739443D01*
X29325097Y16613147D01*
X29415946Y16502446D01*
X29526647Y16411597D01*
X29652943Y16344090D01*
X29789983Y16302520D01*
X29932500Y16288483D01*
X30358003Y16288483D01*
X30452639Y16259776D01*
X30587431Y16246500D01*
X31568093Y16246500D01*
X31568092Y13641470D01*
X31563654Y13596408D01*
X31568092Y13551346D01*
X31568092Y13551340D01*
X31572244Y13509189D01*
X31581368Y13416547D01*
X31633376Y13245098D01*
X31633831Y13243598D01*
X31719028Y13084207D01*
X31833683Y12944499D01*
X31868693Y12915767D01*
X32936363Y11848096D01*
X32965091Y11813091D01*
X33000096Y11784363D01*
X33000098Y11784361D01*
X33078633Y11719909D01*
X33104798Y11698436D01*
X33264189Y11613239D01*
X33437139Y11560776D01*
X33571931Y11547500D01*
X33571938Y11547500D01*
X33617000Y11543062D01*
X33662062Y11547500D01*
X34201620Y11547500D01*
X35571916Y10177203D01*
X35325040Y10238250D01*
X35052508Y10250812D01*
X34782762Y10209965D01*
X34526168Y10117277D01*
X34413137Y10056860D01*
X34347613Y9817995D01*
X34231157Y9934451D01*
X34185750Y9889044D01*
X34066533Y10008261D01*
X34036428Y10028376D01*
X34029224Y10101521D01*
X33976761Y10274471D01*
X33891564Y10433862D01*
X33776909Y10573569D01*
X33741904Y10602297D01*
X32659301Y11684899D01*
X32630569Y11719909D01*
X32490862Y11834564D01*
X32331471Y11919761D01*
X32158521Y11972224D01*
X32023729Y11985500D01*
X32023722Y11985500D01*
X31978660Y11989938D01*
X31933598Y11985500D01*
X28819500Y11985500D01*
X28819500Y17245942D01*
X28823677Y17288353D01*
X28865139Y17275776D01*
X28865139Y17275776D01*
G37*
X28865139Y17275776D02*
X28999931Y17262500D01*
X28999940Y17262500D01*
X29044999Y17258062D01*
X29090058Y17262500D01*
X29201983Y17262500D01*
X29201983Y17019000D01*
X29216020Y16876483D01*
X29257590Y16739443D01*
X29325097Y16613147D01*
X29415946Y16502446D01*
X29526647Y16411597D01*
X29652943Y16344090D01*
X29789983Y16302520D01*
X29932500Y16288483D01*
X30358003Y16288483D01*
X30452639Y16259776D01*
X30587431Y16246500D01*
X31568093Y16246500D01*
X31568092Y13641470D01*
X31563654Y13596408D01*
X31568092Y13551346D01*
X31568092Y13551340D01*
X31572244Y13509189D01*
X31581368Y13416547D01*
X31633376Y13245098D01*
X31633831Y13243598D01*
X31719028Y13084207D01*
X31833683Y12944499D01*
X31868693Y12915767D01*
X32936363Y11848096D01*
X32965091Y11813091D01*
X33000096Y11784363D01*
X33000098Y11784361D01*
X33078633Y11719909D01*
X33104798Y11698436D01*
X33264189Y11613239D01*
X33437139Y11560776D01*
X33571931Y11547500D01*
X33571938Y11547500D01*
X33617000Y11543062D01*
X33662062Y11547500D01*
X34201620Y11547500D01*
X35571916Y10177203D01*
X35325040Y10238250D01*
X35052508Y10250812D01*
X34782762Y10209965D01*
X34526168Y10117277D01*
X34413137Y10056860D01*
X34347613Y9817995D01*
X34231157Y9934451D01*
X34185750Y9889044D01*
X34066533Y10008261D01*
X34036428Y10028376D01*
X34029224Y10101521D01*
X33976761Y10274471D01*
X33891564Y10433862D01*
X33776909Y10573569D01*
X33741904Y10602297D01*
X32659301Y11684899D01*
X32630569Y11719909D01*
X32490862Y11834564D01*
X32331471Y11919761D01*
X32158521Y11972224D01*
X32023729Y11985500D01*
X32023722Y11985500D01*
X31978660Y11989938D01*
X31933598Y11985500D01*
X28819500Y11985500D01*
X28819500Y17245942D01*
X28823677Y17288353D01*
X28865139Y17275776D01*
G36*
X16218000Y27070000D02*
G01*
X16220440Y27045224D01*
X16227667Y27021399D01*
X16239403Y26999443D01*
X16255197Y26980197D01*
X16274443Y26964403D01*
X16296399Y26952667D01*
X16320224Y26945440D01*
X16345000Y26943000D01*
X16767640Y26943000D01*
X16761928Y26885000D01*
X16765000Y26720750D01*
X16923750Y26562000D01*
X18123000Y26562000D01*
X18123000Y26582000D01*
X18377000Y26582000D01*
X18377000Y26562000D01*
X18397000Y26562000D01*
X18397000Y26308000D01*
X18377000Y26308000D01*
X18377000Y25508750D01*
X18535750Y25350000D01*
X19100000Y25346928D01*
X19224482Y25359188D01*
X19309483Y25384973D01*
X19309483Y25145000D01*
X19323520Y25002483D01*
X19365090Y24865443D01*
X19376017Y24845000D01*
X19365090Y24824557D01*
X19346285Y24762564D01*
X19294189Y24746761D01*
X19214616Y24704228D01*
X19100000Y24715517D01*
X17400000Y24715517D01*
X17257483Y24701480D01*
X17120443Y24659910D01*
X16994147Y24592403D01*
X16883446Y24501554D01*
X16792597Y24390853D01*
X16738986Y24290555D01*
X15306710Y25722830D01*
X15306710Y25985000D01*
X16761928Y25985000D01*
X16774188Y25860518D01*
X16810498Y25740820D01*
X16869463Y25630506D01*
X16948815Y25533815D01*
X17045506Y25454463D01*
X17155820Y25395498D01*
X17275518Y25359188D01*
X17400000Y25346928D01*
X17964250Y25350000D01*
X18123000Y25508750D01*
X18123000Y26308000D01*
X16923750Y26308000D01*
X16765000Y26149250D01*
X16761928Y25985000D01*
X15306710Y25985000D01*
X15306710Y30123732D01*
X15311148Y30168791D01*
X15306710Y30213850D01*
X15306710Y30213859D01*
X15293434Y30348651D01*
X15240971Y30521601D01*
X15155774Y30680992D01*
X15041119Y30820699D01*
X15006114Y30849427D01*
X14467540Y31388000D01*
X16218000Y31388000D01*
X16218000Y27070000D01*
X16218000Y27070000D01*
G37*
X16218000Y27070000D02*
X16220440Y27045224D01*
X16227667Y27021399D01*
X16239403Y26999443D01*
X16255197Y26980197D01*
X16274443Y26964403D01*
X16296399Y26952667D01*
X16320224Y26945440D01*
X16345000Y26943000D01*
X16767640Y26943000D01*
X16761928Y26885000D01*
X16765000Y26720750D01*
X16923750Y26562000D01*
X18123000Y26562000D01*
X18123000Y26582000D01*
X18377000Y26582000D01*
X18377000Y26562000D01*
X18397000Y26562000D01*
X18397000Y26308000D01*
X18377000Y26308000D01*
X18377000Y25508750D01*
X18535750Y25350000D01*
X19100000Y25346928D01*
X19224482Y25359188D01*
X19309483Y25384973D01*
X19309483Y25145000D01*
X19323520Y25002483D01*
X19365090Y24865443D01*
X19376017Y24845000D01*
X19365090Y24824557D01*
X19346285Y24762564D01*
X19294189Y24746761D01*
X19214616Y24704228D01*
X19100000Y24715517D01*
X17400000Y24715517D01*
X17257483Y24701480D01*
X17120443Y24659910D01*
X16994147Y24592403D01*
X16883446Y24501554D01*
X16792597Y24390853D01*
X16738986Y24290555D01*
X15306710Y25722830D01*
X15306710Y25985000D01*
X16761928Y25985000D01*
X16774188Y25860518D01*
X16810498Y25740820D01*
X16869463Y25630506D01*
X16948815Y25533815D01*
X17045506Y25454463D01*
X17155820Y25395498D01*
X17275518Y25359188D01*
X17400000Y25346928D01*
X17964250Y25350000D01*
X18123000Y25508750D01*
X18123000Y26308000D01*
X16923750Y26308000D01*
X16765000Y26149250D01*
X16761928Y25985000D01*
X15306710Y25985000D01*
X15306710Y30123732D01*
X15311148Y30168791D01*
X15306710Y30213850D01*
X15306710Y30213859D01*
X15293434Y30348651D01*
X15240971Y30521601D01*
X15155774Y30680992D01*
X15041119Y30820699D01*
X15006114Y30849427D01*
X14467540Y31388000D01*
X16218000Y31388000D01*
X16218000Y27070000D01*
G36*
X27520090Y26889557D02*
G01*
X27478520Y26752517D01*
X27464483Y26610000D01*
X27464483Y25710000D01*
X27478520Y25567483D01*
X27520090Y25430443D01*
X27587597Y25304147D01*
X27678446Y25193446D01*
X27789147Y25102597D01*
X27915443Y25035090D01*
X28052483Y24993520D01*
X28192155Y24979763D01*
X28193239Y24976190D01*
X28204110Y24955853D01*
X28278437Y24816798D01*
X28313760Y24773757D01*
X28364361Y24712099D01*
X28364364Y24712096D01*
X28393092Y24677091D01*
X28428097Y24648363D01*
X28635943Y24440517D01*
X28195000Y24440517D01*
X28052483Y24426480D01*
X27915443Y24384910D01*
X27849095Y24349446D01*
X27681641Y24516899D01*
X27652909Y24551909D01*
X27513202Y24666564D01*
X27353811Y24751761D01*
X27313261Y24764062D01*
X27294910Y24824557D01*
X27227403Y24950853D01*
X27225414Y24953276D01*
X27245812Y25020518D01*
X27258072Y25145000D01*
X27255000Y25509250D01*
X27096250Y25668000D01*
X25997000Y25668000D01*
X25997000Y25648000D01*
X25743000Y25648000D01*
X25743000Y25668000D01*
X25723000Y25668000D01*
X25723000Y25922000D01*
X25743000Y25922000D01*
X25743000Y25942000D01*
X25997000Y25942000D01*
X25997000Y25922000D01*
X27096250Y25922000D01*
X27255000Y26080750D01*
X27258072Y26445000D01*
X27245812Y26569482D01*
X27209502Y26689180D01*
X27150537Y26799494D01*
X27071185Y26896185D01*
X27014141Y26943000D01*
X27548656Y26943000D01*
X27520090Y26889557D01*
X27520090Y26889557D01*
G37*
X27520090Y26889557D02*
X27478520Y26752517D01*
X27464483Y26610000D01*
X27464483Y25710000D01*
X27478520Y25567483D01*
X27520090Y25430443D01*
X27587597Y25304147D01*
X27678446Y25193446D01*
X27789147Y25102597D01*
X27915443Y25035090D01*
X28052483Y24993520D01*
X28192155Y24979763D01*
X28193239Y24976190D01*
X28204110Y24955853D01*
X28278437Y24816798D01*
X28313760Y24773757D01*
X28364361Y24712099D01*
X28364364Y24712096D01*
X28393092Y24677091D01*
X28428097Y24648363D01*
X28635943Y24440517D01*
X28195000Y24440517D01*
X28052483Y24426480D01*
X27915443Y24384910D01*
X27849095Y24349446D01*
X27681641Y24516899D01*
X27652909Y24551909D01*
X27513202Y24666564D01*
X27353811Y24751761D01*
X27313261Y24764062D01*
X27294910Y24824557D01*
X27227403Y24950853D01*
X27225414Y24953276D01*
X27245812Y25020518D01*
X27258072Y25145000D01*
X27255000Y25509250D01*
X27096250Y25668000D01*
X25997000Y25668000D01*
X25997000Y25648000D01*
X25743000Y25648000D01*
X25743000Y25668000D01*
X25723000Y25668000D01*
X25723000Y25922000D01*
X25743000Y25922000D01*
X25743000Y25942000D01*
X25997000Y25942000D01*
X25997000Y25922000D01*
X27096250Y25922000D01*
X27255000Y26080750D01*
X27258072Y26445000D01*
X27245812Y26569482D01*
X27209502Y26689180D01*
X27150537Y26799494D01*
X27071185Y26896185D01*
X27014141Y26943000D01*
X27548656Y26943000D01*
X27520090Y26889557D01*
G36*
X25742998Y26921252D02*
G01*
X25721250Y26943000D01*
X25742998Y26943000D01*
X25742998Y26921252D01*
X25742998Y26921252D01*
G37*
X25742998Y26921252D02*
X25721250Y26943000D01*
X25742998Y26943000D01*
X25742998Y26921252D01*
G36*
X25997002Y26921252D02*
G01*
X25997002Y26943000D01*
X26018750Y26943000D01*
X25997002Y26921252D01*
X25997002Y26921252D01*
G37*
X25997002Y26921252D02*
X25997002Y26943000D01*
X26018750Y26943000D01*
X25997002Y26921252D01*
G36*
X7532193Y31376770D02*
G01*
X7395153Y31335200D01*
X7268857Y31267693D01*
X7158156Y31176844D01*
X7067307Y31066143D01*
X6999800Y30939847D01*
X6958230Y30802807D01*
X6944193Y30660290D01*
X6944193Y28559710D01*
X6958230Y28417193D01*
X6999800Y28280153D01*
X7067307Y28153857D01*
X7158156Y28043156D01*
X7171065Y28032562D01*
X7106093Y27935324D01*
X6968384Y27602864D01*
X6898180Y27249926D01*
X6898180Y26890074D01*
X6968384Y26537136D01*
X7106093Y26204676D01*
X7306016Y25905470D01*
X7411486Y25800000D01*
X7306016Y25694530D01*
X7106093Y25395324D01*
X6968384Y25062864D01*
X6898180Y24709926D01*
X6898180Y24350074D01*
X6968384Y23997136D01*
X7106093Y23664676D01*
X7306016Y23365470D01*
X7411486Y23260000D01*
X7306016Y23154530D01*
X7106093Y22855324D01*
X6968384Y22522864D01*
X6898180Y22169926D01*
X6898180Y21810074D01*
X6968384Y21457136D01*
X7106093Y21124676D01*
X7306016Y20825470D01*
X7471039Y20660447D01*
X7402992Y20592400D01*
X7518415Y20476977D01*
X7243809Y20369167D01*
X7092948Y20062540D01*
X7004806Y19732372D01*
X6982772Y19391353D01*
X7027690Y19052588D01*
X7137834Y18729095D01*
X7243809Y18530833D01*
X7518417Y18423022D01*
X8545395Y19450000D01*
X8531253Y19464142D01*
X8710858Y19643747D01*
X8725000Y19629605D01*
X8739143Y19643747D01*
X8918748Y19464142D01*
X8904605Y19450000D01*
X9931583Y18423022D01*
X10206191Y18530833D01*
X10309113Y18740023D01*
X10312834Y18729095D01*
X10418809Y18530833D01*
X10693417Y18423022D01*
X11720395Y19450000D01*
X11706253Y19464142D01*
X11885858Y19643747D01*
X11900000Y19629605D01*
X11914143Y19643747D01*
X12093748Y19464142D01*
X12079605Y19450000D01*
X13106583Y18423022D01*
X13381191Y18530833D01*
X13532052Y18837460D01*
X13620194Y19167628D01*
X13642228Y19508647D01*
X13597310Y19847412D01*
X13487166Y20170905D01*
X13381191Y20369167D01*
X13106585Y20476977D01*
X13222008Y20592400D01*
X13153961Y20660447D01*
X13318984Y20825470D01*
X13460378Y21037082D01*
X16299363Y18198096D01*
X16328091Y18163091D01*
X16363096Y18134363D01*
X16363098Y18134361D01*
X16411692Y18094481D01*
X16467798Y18048436D01*
X16627189Y17963239D01*
X16759886Y17922987D01*
X16800138Y17910776D01*
X16818627Y17908955D01*
X16934931Y17897500D01*
X16934937Y17897500D01*
X16979999Y17893062D01*
X17025061Y17897500D01*
X17195898Y17897500D01*
X17229890Y17785443D01*
X17297397Y17659147D01*
X17388246Y17548446D01*
X17392445Y17545000D01*
X17388246Y17541554D01*
X17297397Y17430853D01*
X17229890Y17304557D01*
X17188320Y17167517D01*
X17174283Y17025000D01*
X17174283Y15525000D01*
X17188320Y15382483D01*
X17229890Y15245443D01*
X17297397Y15119147D01*
X17388246Y15008446D01*
X17498947Y14917597D01*
X17625243Y14850090D01*
X17762283Y14808520D01*
X17904800Y14794483D01*
X19204800Y14794483D01*
X19347317Y14808520D01*
X19484357Y14850090D01*
X19504800Y14861017D01*
X19525243Y14850090D01*
X19662283Y14808520D01*
X19804800Y14794483D01*
X21104800Y14794483D01*
X21247317Y14808520D01*
X21384357Y14850090D01*
X21510653Y14917597D01*
X21621354Y15008446D01*
X21712203Y15119147D01*
X21779710Y15245443D01*
X21813702Y15357500D01*
X22158500Y15357500D01*
X22158501Y14242042D01*
X20663960Y12747500D01*
X18549062Y12747500D01*
X18504000Y12751938D01*
X18458938Y12747500D01*
X18458931Y12747500D01*
X18324139Y12734224D01*
X18151189Y12681761D01*
X17991798Y12596564D01*
X17892951Y12515442D01*
X17852091Y12481909D01*
X17823363Y12446904D01*
X16713101Y11336641D01*
X16678091Y11307909D01*
X16563436Y11168201D01*
X16491141Y11032947D01*
X16478239Y11008810D01*
X16428124Y10843599D01*
X16425776Y10835860D01*
X16412500Y10701068D01*
X16412500Y10701062D01*
X16408062Y10656000D01*
X16412500Y10610938D01*
X16412500Y10319902D01*
X16300443Y10285910D01*
X16174147Y10218403D01*
X16063446Y10127554D01*
X15972597Y10016853D01*
X15905090Y9890557D01*
X15863520Y9753517D01*
X15849483Y9611000D01*
X15849483Y8111000D01*
X15863520Y7968483D01*
X15905090Y7831443D01*
X15972597Y7705147D01*
X16063446Y7594446D01*
X16174147Y7503597D01*
X16300443Y7436090D01*
X16437483Y7394520D01*
X16580000Y7380483D01*
X18080000Y7380483D01*
X18222517Y7394520D01*
X18359557Y7436090D01*
X18485853Y7503597D01*
X18583291Y7583562D01*
X18630378Y7552099D01*
X18899175Y7440760D01*
X19184528Y7384000D01*
X19475472Y7384000D01*
X19760825Y7440760D01*
X20029622Y7552099D01*
X20271533Y7713739D01*
X20390750Y7832956D01*
X20436157Y7787549D01*
X20552613Y7904005D01*
X20618137Y7665140D01*
X20865116Y7549240D01*
X21129960Y7483750D01*
X21402492Y7471188D01*
X21672238Y7512035D01*
X21928832Y7604723D01*
X22041863Y7665140D01*
X22107387Y7904005D01*
X22223843Y7787549D01*
X22269250Y7832956D01*
X22388467Y7713739D01*
X22630378Y7552099D01*
X22899175Y7440760D01*
X23184528Y7384000D01*
X23475472Y7384000D01*
X23760825Y7440760D01*
X24029622Y7552099D01*
X24271533Y7713739D01*
X24477261Y7919467D01*
X24638901Y8161378D01*
X24750240Y8430175D01*
X24807000Y8715528D01*
X24807000Y9006472D01*
X24750240Y9291825D01*
X24638901Y9560622D01*
X24477261Y9802533D01*
X24271533Y10008261D01*
X24058658Y10150500D01*
X27856931Y10150500D01*
X27902000Y10146061D01*
X27947069Y10150500D01*
X29886406Y10150500D01*
X29858446Y10127554D01*
X29767597Y10016853D01*
X29700090Y9890557D01*
X29658520Y9753517D01*
X29644483Y9611000D01*
X29644483Y8111000D01*
X29658520Y7968483D01*
X29700090Y7831443D01*
X29767597Y7705147D01*
X29858446Y7594446D01*
X29969147Y7503597D01*
X30095443Y7436090D01*
X30232483Y7394520D01*
X30375000Y7380483D01*
X31875000Y7380483D01*
X32017517Y7394520D01*
X32154557Y7436090D01*
X32280853Y7503597D01*
X32378291Y7583562D01*
X32425378Y7552099D01*
X32694175Y7440760D01*
X32979528Y7384000D01*
X33270472Y7384000D01*
X33555825Y7440760D01*
X33824622Y7552099D01*
X34066533Y7713739D01*
X34185750Y7832956D01*
X34231157Y7787549D01*
X34347613Y7904005D01*
X34413137Y7665140D01*
X34660116Y7549240D01*
X34924960Y7483750D01*
X35197492Y7471188D01*
X35467238Y7512035D01*
X35723832Y7604723D01*
X35836863Y7665140D01*
X35902387Y7904005D01*
X36018843Y7787549D01*
X36064250Y7832956D01*
X36183467Y7713739D01*
X36425378Y7552099D01*
X36694175Y7440760D01*
X36979528Y7384000D01*
X37270472Y7384000D01*
X37555825Y7440760D01*
X37824622Y7552099D01*
X38066533Y7713739D01*
X38272261Y7919467D01*
X38433901Y8161378D01*
X38545240Y8430175D01*
X38602000Y8715528D01*
X38602000Y9006472D01*
X38545240Y9291825D01*
X38433901Y9560622D01*
X38272261Y9802533D01*
X38066533Y10008261D01*
X38036428Y10028376D01*
X38029224Y10101521D01*
X38016400Y10143799D01*
X37976761Y10274471D01*
X37948427Y10327480D01*
X37891564Y10433862D01*
X37776909Y10573569D01*
X37741904Y10602297D01*
X35262301Y13081899D01*
X35233569Y13116909D01*
X35093862Y13231564D01*
X34934471Y13316761D01*
X34761521Y13369224D01*
X34626729Y13382500D01*
X34626722Y13382500D01*
X34581660Y13386938D01*
X34536598Y13382500D01*
X33997041Y13382500D01*
X33403092Y13976448D01*
X33403092Y16488544D01*
X33493446Y16378446D01*
X33604147Y16287597D01*
X33730443Y16220090D01*
X33867483Y16178520D01*
X34010000Y16164483D01*
X35510000Y16164483D01*
X35652517Y16178520D01*
X35789557Y16220090D01*
X35915853Y16287597D01*
X36026554Y16378446D01*
X36117403Y16489147D01*
X36184910Y16615443D01*
X36226480Y16752483D01*
X36240517Y16895000D01*
X36240517Y18195000D01*
X36226480Y18337517D01*
X36184910Y18474557D01*
X36117403Y18600853D01*
X36115414Y18603276D01*
X36135812Y18670518D01*
X36148072Y18795000D01*
X36145000Y19159250D01*
X35986250Y19318000D01*
X34887000Y19318000D01*
X34887000Y19298000D01*
X34633000Y19298000D01*
X34633000Y19318000D01*
X33533750Y19318000D01*
X33375000Y19159250D01*
X33371928Y18795000D01*
X33384188Y18670518D01*
X33404586Y18603276D01*
X33402597Y18600853D01*
X33335090Y18474557D01*
X33331433Y18462500D01*
X32911650Y18462500D01*
X32866591Y18466938D01*
X32821532Y18462500D01*
X32821523Y18462500D01*
X32781608Y18458569D01*
X32836895Y18513856D01*
X32871909Y18542591D01*
X32986564Y18682298D01*
X33071761Y18841689D01*
X33124224Y19014639D01*
X33137500Y19149431D01*
X33137500Y19149440D01*
X33141938Y19194499D01*
X33137500Y19239558D01*
X33137500Y20095000D01*
X33371928Y20095000D01*
X33375000Y19730750D01*
X33533750Y19572000D01*
X34633000Y19572000D01*
X34633000Y20571250D01*
X34887000Y20571250D01*
X34887000Y19572000D01*
X35986250Y19572000D01*
X36145000Y19730750D01*
X36148072Y20095000D01*
X36135812Y20219482D01*
X36099502Y20339180D01*
X36040537Y20449494D01*
X35961185Y20546185D01*
X35864494Y20625537D01*
X35754180Y20684502D01*
X35634482Y20720812D01*
X35510000Y20733072D01*
X35045750Y20730000D01*
X34887000Y20571250D01*
X34633000Y20571250D01*
X34474250Y20730000D01*
X34010000Y20733072D01*
X33885518Y20720812D01*
X33765820Y20684502D01*
X33655506Y20625537D01*
X33558815Y20546185D01*
X33479463Y20449494D01*
X33420498Y20339180D01*
X33384188Y20219482D01*
X33371928Y20095000D01*
X33137500Y20095000D01*
X33137500Y22536098D01*
X33249557Y22570090D01*
X33375853Y22637597D01*
X33486554Y22728446D01*
X33532655Y22784621D01*
X33620446Y22677646D01*
X33731147Y22586797D01*
X33857443Y22519290D01*
X33994483Y22477720D01*
X34137000Y22463683D01*
X35637000Y22463683D01*
X35779517Y22477720D01*
X35916557Y22519290D01*
X36042853Y22586797D01*
X36153554Y22677646D01*
X36244403Y22788347D01*
X36311910Y22914643D01*
X36353480Y23051683D01*
X36367517Y23194200D01*
X36367517Y24494200D01*
X36353480Y24636717D01*
X36311910Y24773757D01*
X36244403Y24900053D01*
X36242414Y24902476D01*
X36262812Y24969718D01*
X36275072Y25094200D01*
X36272000Y25458450D01*
X36113250Y25617200D01*
X35014000Y25617200D01*
X35014000Y25597200D01*
X34760000Y25597200D01*
X34760000Y25617200D01*
X34740000Y25617200D01*
X34740000Y25871200D01*
X34760000Y25871200D01*
X34760000Y25891200D01*
X35014000Y25891200D01*
X35014000Y25871200D01*
X36113250Y25871200D01*
X36272000Y26029950D01*
X36275072Y26394200D01*
X36262812Y26518682D01*
X36226502Y26638380D01*
X36167537Y26748694D01*
X36088185Y26845385D01*
X35991494Y26924737D01*
X35957327Y26943000D01*
X37173000Y26943000D01*
X37173000Y11830000D01*
X37175440Y11805224D01*
X37182667Y11781399D01*
X37194403Y11759443D01*
X37210197Y11740197D01*
X37223800Y11728400D01*
X39713000Y9861500D01*
X39713000Y6242000D01*
X11952606Y6242000D01*
X5677000Y12517606D01*
X5677000Y18243417D01*
X7698022Y18243417D01*
X7805833Y17968809D01*
X8112460Y17817948D01*
X8442628Y17729806D01*
X8783647Y17707772D01*
X9122412Y17752690D01*
X9445905Y17862834D01*
X9644167Y17968809D01*
X9751978Y18243417D01*
X10873022Y18243417D01*
X10980833Y17968809D01*
X11287460Y17817948D01*
X11617628Y17729806D01*
X11958647Y17707772D01*
X12297412Y17752690D01*
X12620905Y17862834D01*
X12819167Y17968809D01*
X12926978Y18243417D01*
X11900000Y19270395D01*
X10873022Y18243417D01*
X9751978Y18243417D01*
X8725000Y19270395D01*
X7698022Y18243417D01*
X5677000Y18243417D01*
X5677000Y31388000D01*
X7646211Y31388000D01*
X7532193Y31376770D01*
X7532193Y31376770D01*
G37*
X7532193Y31376770D02*
X7395153Y31335200D01*
X7268857Y31267693D01*
X7158156Y31176844D01*
X7067307Y31066143D01*
X6999800Y30939847D01*
X6958230Y30802807D01*
X6944193Y30660290D01*
X6944193Y28559710D01*
X6958230Y28417193D01*
X6999800Y28280153D01*
X7067307Y28153857D01*
X7158156Y28043156D01*
X7171065Y28032562D01*
X7106093Y27935324D01*
X6968384Y27602864D01*
X6898180Y27249926D01*
X6898180Y26890074D01*
X6968384Y26537136D01*
X7106093Y26204676D01*
X7306016Y25905470D01*
X7411486Y25800000D01*
X7306016Y25694530D01*
X7106093Y25395324D01*
X6968384Y25062864D01*
X6898180Y24709926D01*
X6898180Y24350074D01*
X6968384Y23997136D01*
X7106093Y23664676D01*
X7306016Y23365470D01*
X7411486Y23260000D01*
X7306016Y23154530D01*
X7106093Y22855324D01*
X6968384Y22522864D01*
X6898180Y22169926D01*
X6898180Y21810074D01*
X6968384Y21457136D01*
X7106093Y21124676D01*
X7306016Y20825470D01*
X7471039Y20660447D01*
X7402992Y20592400D01*
X7518415Y20476977D01*
X7243809Y20369167D01*
X7092948Y20062540D01*
X7004806Y19732372D01*
X6982772Y19391353D01*
X7027690Y19052588D01*
X7137834Y18729095D01*
X7243809Y18530833D01*
X7518417Y18423022D01*
X8545395Y19450000D01*
X8531253Y19464142D01*
X8710858Y19643747D01*
X8725000Y19629605D01*
X8739143Y19643747D01*
X8918748Y19464142D01*
X8904605Y19450000D01*
X9931583Y18423022D01*
X10206191Y18530833D01*
X10309113Y18740023D01*
X10312834Y18729095D01*
X10418809Y18530833D01*
X10693417Y18423022D01*
X11720395Y19450000D01*
X11706253Y19464142D01*
X11885858Y19643747D01*
X11900000Y19629605D01*
X11914143Y19643747D01*
X12093748Y19464142D01*
X12079605Y19450000D01*
X13106583Y18423022D01*
X13381191Y18530833D01*
X13532052Y18837460D01*
X13620194Y19167628D01*
X13642228Y19508647D01*
X13597310Y19847412D01*
X13487166Y20170905D01*
X13381191Y20369167D01*
X13106585Y20476977D01*
X13222008Y20592400D01*
X13153961Y20660447D01*
X13318984Y20825470D01*
X13460378Y21037082D01*
X16299363Y18198096D01*
X16328091Y18163091D01*
X16363096Y18134363D01*
X16363098Y18134361D01*
X16411692Y18094481D01*
X16467798Y18048436D01*
X16627189Y17963239D01*
X16759886Y17922987D01*
X16800138Y17910776D01*
X16818627Y17908955D01*
X16934931Y17897500D01*
X16934937Y17897500D01*
X16979999Y17893062D01*
X17025061Y17897500D01*
X17195898Y17897500D01*
X17229890Y17785443D01*
X17297397Y17659147D01*
X17388246Y17548446D01*
X17392445Y17545000D01*
X17388246Y17541554D01*
X17297397Y17430853D01*
X17229890Y17304557D01*
X17188320Y17167517D01*
X17174283Y17025000D01*
X17174283Y15525000D01*
X17188320Y15382483D01*
X17229890Y15245443D01*
X17297397Y15119147D01*
X17388246Y15008446D01*
X17498947Y14917597D01*
X17625243Y14850090D01*
X17762283Y14808520D01*
X17904800Y14794483D01*
X19204800Y14794483D01*
X19347317Y14808520D01*
X19484357Y14850090D01*
X19504800Y14861017D01*
X19525243Y14850090D01*
X19662283Y14808520D01*
X19804800Y14794483D01*
X21104800Y14794483D01*
X21247317Y14808520D01*
X21384357Y14850090D01*
X21510653Y14917597D01*
X21621354Y15008446D01*
X21712203Y15119147D01*
X21779710Y15245443D01*
X21813702Y15357500D01*
X22158500Y15357500D01*
X22158501Y14242042D01*
X20663960Y12747500D01*
X18549062Y12747500D01*
X18504000Y12751938D01*
X18458938Y12747500D01*
X18458931Y12747500D01*
X18324139Y12734224D01*
X18151189Y12681761D01*
X17991798Y12596564D01*
X17892951Y12515442D01*
X17852091Y12481909D01*
X17823363Y12446904D01*
X16713101Y11336641D01*
X16678091Y11307909D01*
X16563436Y11168201D01*
X16491141Y11032947D01*
X16478239Y11008810D01*
X16428124Y10843599D01*
X16425776Y10835860D01*
X16412500Y10701068D01*
X16412500Y10701062D01*
X16408062Y10656000D01*
X16412500Y10610938D01*
X16412500Y10319902D01*
X16300443Y10285910D01*
X16174147Y10218403D01*
X16063446Y10127554D01*
X15972597Y10016853D01*
X15905090Y9890557D01*
X15863520Y9753517D01*
X15849483Y9611000D01*
X15849483Y8111000D01*
X15863520Y7968483D01*
X15905090Y7831443D01*
X15972597Y7705147D01*
X16063446Y7594446D01*
X16174147Y7503597D01*
X16300443Y7436090D01*
X16437483Y7394520D01*
X16580000Y7380483D01*
X18080000Y7380483D01*
X18222517Y7394520D01*
X18359557Y7436090D01*
X18485853Y7503597D01*
X18583291Y7583562D01*
X18630378Y7552099D01*
X18899175Y7440760D01*
X19184528Y7384000D01*
X19475472Y7384000D01*
X19760825Y7440760D01*
X20029622Y7552099D01*
X20271533Y7713739D01*
X20390750Y7832956D01*
X20436157Y7787549D01*
X20552613Y7904005D01*
X20618137Y7665140D01*
X20865116Y7549240D01*
X21129960Y7483750D01*
X21402492Y7471188D01*
X21672238Y7512035D01*
X21928832Y7604723D01*
X22041863Y7665140D01*
X22107387Y7904005D01*
X22223843Y7787549D01*
X22269250Y7832956D01*
X22388467Y7713739D01*
X22630378Y7552099D01*
X22899175Y7440760D01*
X23184528Y7384000D01*
X23475472Y7384000D01*
X23760825Y7440760D01*
X24029622Y7552099D01*
X24271533Y7713739D01*
X24477261Y7919467D01*
X24638901Y8161378D01*
X24750240Y8430175D01*
X24807000Y8715528D01*
X24807000Y9006472D01*
X24750240Y9291825D01*
X24638901Y9560622D01*
X24477261Y9802533D01*
X24271533Y10008261D01*
X24058658Y10150500D01*
X27856931Y10150500D01*
X27902000Y10146061D01*
X27947069Y10150500D01*
X29886406Y10150500D01*
X29858446Y10127554D01*
X29767597Y10016853D01*
X29700090Y9890557D01*
X29658520Y9753517D01*
X29644483Y9611000D01*
X29644483Y8111000D01*
X29658520Y7968483D01*
X29700090Y7831443D01*
X29767597Y7705147D01*
X29858446Y7594446D01*
X29969147Y7503597D01*
X30095443Y7436090D01*
X30232483Y7394520D01*
X30375000Y7380483D01*
X31875000Y7380483D01*
X32017517Y7394520D01*
X32154557Y7436090D01*
X32280853Y7503597D01*
X32378291Y7583562D01*
X32425378Y7552099D01*
X32694175Y7440760D01*
X32979528Y7384000D01*
X33270472Y7384000D01*
X33555825Y7440760D01*
X33824622Y7552099D01*
X34066533Y7713739D01*
X34185750Y7832956D01*
X34231157Y7787549D01*
X34347613Y7904005D01*
X34413137Y7665140D01*
X34660116Y7549240D01*
X34924960Y7483750D01*
X35197492Y7471188D01*
X35467238Y7512035D01*
X35723832Y7604723D01*
X35836863Y7665140D01*
X35902387Y7904005D01*
X36018843Y7787549D01*
X36064250Y7832956D01*
X36183467Y7713739D01*
X36425378Y7552099D01*
X36694175Y7440760D01*
X36979528Y7384000D01*
X37270472Y7384000D01*
X37555825Y7440760D01*
X37824622Y7552099D01*
X38066533Y7713739D01*
X38272261Y7919467D01*
X38433901Y8161378D01*
X38545240Y8430175D01*
X38602000Y8715528D01*
X38602000Y9006472D01*
X38545240Y9291825D01*
X38433901Y9560622D01*
X38272261Y9802533D01*
X38066533Y10008261D01*
X38036428Y10028376D01*
X38029224Y10101521D01*
X38016400Y10143799D01*
X37976761Y10274471D01*
X37948427Y10327480D01*
X37891564Y10433862D01*
X37776909Y10573569D01*
X37741904Y10602297D01*
X35262301Y13081899D01*
X35233569Y13116909D01*
X35093862Y13231564D01*
X34934471Y13316761D01*
X34761521Y13369224D01*
X34626729Y13382500D01*
X34626722Y13382500D01*
X34581660Y13386938D01*
X34536598Y13382500D01*
X33997041Y13382500D01*
X33403092Y13976448D01*
X33403092Y16488544D01*
X33493446Y16378446D01*
X33604147Y16287597D01*
X33730443Y16220090D01*
X33867483Y16178520D01*
X34010000Y16164483D01*
X35510000Y16164483D01*
X35652517Y16178520D01*
X35789557Y16220090D01*
X35915853Y16287597D01*
X36026554Y16378446D01*
X36117403Y16489147D01*
X36184910Y16615443D01*
X36226480Y16752483D01*
X36240517Y16895000D01*
X36240517Y18195000D01*
X36226480Y18337517D01*
X36184910Y18474557D01*
X36117403Y18600853D01*
X36115414Y18603276D01*
X36135812Y18670518D01*
X36148072Y18795000D01*
X36145000Y19159250D01*
X35986250Y19318000D01*
X34887000Y19318000D01*
X34887000Y19298000D01*
X34633000Y19298000D01*
X34633000Y19318000D01*
X33533750Y19318000D01*
X33375000Y19159250D01*
X33371928Y18795000D01*
X33384188Y18670518D01*
X33404586Y18603276D01*
X33402597Y18600853D01*
X33335090Y18474557D01*
X33331433Y18462500D01*
X32911650Y18462500D01*
X32866591Y18466938D01*
X32821532Y18462500D01*
X32821523Y18462500D01*
X32781608Y18458569D01*
X32836895Y18513856D01*
X32871909Y18542591D01*
X32986564Y18682298D01*
X33071761Y18841689D01*
X33124224Y19014639D01*
X33137500Y19149431D01*
X33137500Y19149440D01*
X33141938Y19194499D01*
X33137500Y19239558D01*
X33137500Y20095000D01*
X33371928Y20095000D01*
X33375000Y19730750D01*
X33533750Y19572000D01*
X34633000Y19572000D01*
X34633000Y20571250D01*
X34887000Y20571250D01*
X34887000Y19572000D01*
X35986250Y19572000D01*
X36145000Y19730750D01*
X36148072Y20095000D01*
X36135812Y20219482D01*
X36099502Y20339180D01*
X36040537Y20449494D01*
X35961185Y20546185D01*
X35864494Y20625537D01*
X35754180Y20684502D01*
X35634482Y20720812D01*
X35510000Y20733072D01*
X35045750Y20730000D01*
X34887000Y20571250D01*
X34633000Y20571250D01*
X34474250Y20730000D01*
X34010000Y20733072D01*
X33885518Y20720812D01*
X33765820Y20684502D01*
X33655506Y20625537D01*
X33558815Y20546185D01*
X33479463Y20449494D01*
X33420498Y20339180D01*
X33384188Y20219482D01*
X33371928Y20095000D01*
X33137500Y20095000D01*
X33137500Y22536098D01*
X33249557Y22570090D01*
X33375853Y22637597D01*
X33486554Y22728446D01*
X33532655Y22784621D01*
X33620446Y22677646D01*
X33731147Y22586797D01*
X33857443Y22519290D01*
X33994483Y22477720D01*
X34137000Y22463683D01*
X35637000Y22463683D01*
X35779517Y22477720D01*
X35916557Y22519290D01*
X36042853Y22586797D01*
X36153554Y22677646D01*
X36244403Y22788347D01*
X36311910Y22914643D01*
X36353480Y23051683D01*
X36367517Y23194200D01*
X36367517Y24494200D01*
X36353480Y24636717D01*
X36311910Y24773757D01*
X36244403Y24900053D01*
X36242414Y24902476D01*
X36262812Y24969718D01*
X36275072Y25094200D01*
X36272000Y25458450D01*
X36113250Y25617200D01*
X35014000Y25617200D01*
X35014000Y25597200D01*
X34760000Y25597200D01*
X34760000Y25617200D01*
X34740000Y25617200D01*
X34740000Y25871200D01*
X34760000Y25871200D01*
X34760000Y25891200D01*
X35014000Y25891200D01*
X35014000Y25871200D01*
X36113250Y25871200D01*
X36272000Y26029950D01*
X36275072Y26394200D01*
X36262812Y26518682D01*
X36226502Y26638380D01*
X36167537Y26748694D01*
X36088185Y26845385D01*
X35991494Y26924737D01*
X35957327Y26943000D01*
X37173000Y26943000D01*
X37173000Y11830000D01*
X37175440Y11805224D01*
X37182667Y11781399D01*
X37194403Y11759443D01*
X37210197Y11740197D01*
X37223800Y11728400D01*
X39713000Y9861500D01*
X39713000Y6242000D01*
X11952606Y6242000D01*
X5677000Y12517606D01*
X5677000Y18243417D01*
X7698022Y18243417D01*
X7805833Y17968809D01*
X8112460Y17817948D01*
X8442628Y17729806D01*
X8783647Y17707772D01*
X9122412Y17752690D01*
X9445905Y17862834D01*
X9644167Y17968809D01*
X9751978Y18243417D01*
X10873022Y18243417D01*
X10980833Y17968809D01*
X11287460Y17817948D01*
X11617628Y17729806D01*
X11958647Y17707772D01*
X12297412Y17752690D01*
X12620905Y17862834D01*
X12819167Y17968809D01*
X12926978Y18243417D01*
X11900000Y19270395D01*
X10873022Y18243417D01*
X9751978Y18243417D01*
X8725000Y19270395D01*
X7698022Y18243417D01*
X5677000Y18243417D01*
X5677000Y31388000D01*
X7646211Y31388000D01*
X7532193Y31376770D01*
G36*
X21523748Y8875142D02*
G01*
X21509605Y8861000D01*
X21523748Y8846857D01*
X21344143Y8667252D01*
X21330000Y8681395D01*
X21315858Y8667252D01*
X21136253Y8846857D01*
X21150395Y8861000D01*
X21136253Y8875142D01*
X21315858Y9054747D01*
X21330000Y9040605D01*
X21344143Y9054747D01*
X21523748Y8875142D01*
X21523748Y8875142D01*
G37*
X21523748Y8875142D02*
X21509605Y8861000D01*
X21523748Y8846857D01*
X21344143Y8667252D01*
X21330000Y8681395D01*
X21315858Y8667252D01*
X21136253Y8846857D01*
X21150395Y8861000D01*
X21136253Y8875142D01*
X21315858Y9054747D01*
X21330000Y9040605D01*
X21344143Y9054747D01*
X21523748Y8875142D01*
G36*
X35318748Y8875142D02*
G01*
X35304605Y8861000D01*
X35318748Y8846857D01*
X35139143Y8667252D01*
X35125000Y8681395D01*
X35110858Y8667252D01*
X34931253Y8846857D01*
X34945395Y8861000D01*
X34931253Y8875142D01*
X35110858Y9054747D01*
X35125000Y9040605D01*
X35139143Y9054747D01*
X35318748Y8875142D01*
X35318748Y8875142D01*
G37*
X35318748Y8875142D02*
X35304605Y8861000D01*
X35318748Y8846857D01*
X35139143Y8667252D01*
X35125000Y8681395D01*
X35110858Y8667252D01*
X34931253Y8846857D01*
X34945395Y8861000D01*
X34931253Y8875142D01*
X35110858Y9054747D01*
X35125000Y9040605D01*
X35139143Y9054747D01*
X35318748Y8875142D01*
G36*
X28865139Y17275776D02*
G01*
X28999931Y17262500D01*
X28999940Y17262500D01*
X29044999Y17258062D01*
X29090058Y17262500D01*
X29201983Y17262500D01*
X29201983Y17019000D01*
X29216020Y16876483D01*
X29257590Y16739443D01*
X29325097Y16613147D01*
X29415946Y16502446D01*
X29526647Y16411597D01*
X29652943Y16344090D01*
X29789983Y16302520D01*
X29932500Y16288483D01*
X30358003Y16288483D01*
X30452639Y16259776D01*
X30587431Y16246500D01*
X31568093Y16246500D01*
X31568092Y13641470D01*
X31563654Y13596408D01*
X31568092Y13551346D01*
X31568092Y13551340D01*
X31577187Y13459000D01*
X31581368Y13416547D01*
X31615988Y13302420D01*
X31633831Y13243598D01*
X31719028Y13084207D01*
X31833683Y12944499D01*
X31868693Y12915767D01*
X32936363Y11848096D01*
X32965091Y11813091D01*
X33000096Y11784363D01*
X33000098Y11784361D01*
X33043690Y11748586D01*
X33104798Y11698436D01*
X33264189Y11613239D01*
X33437139Y11560776D01*
X33571931Y11547500D01*
X33571938Y11547500D01*
X33617000Y11543062D01*
X33662062Y11547500D01*
X34201620Y11547500D01*
X35571916Y10177203D01*
X35325040Y10238250D01*
X35052508Y10250812D01*
X34782762Y10209965D01*
X34526168Y10117277D01*
X34413137Y10056860D01*
X34347613Y9817995D01*
X34231157Y9934451D01*
X34185750Y9889044D01*
X34066533Y10008261D01*
X34036428Y10028376D01*
X34029224Y10101521D01*
X33976761Y10274471D01*
X33891564Y10433862D01*
X33848059Y10486873D01*
X33805639Y10538562D01*
X33805637Y10538564D01*
X33776909Y10573569D01*
X33741904Y10602297D01*
X32659301Y11684899D01*
X32630569Y11719909D01*
X32490862Y11834564D01*
X32331471Y11919761D01*
X32158521Y11972224D01*
X32023729Y11985500D01*
X32023722Y11985500D01*
X31978660Y11989938D01*
X31933598Y11985500D01*
X28819500Y11985500D01*
X28819500Y17245942D01*
X28823677Y17288353D01*
X28865139Y17275776D01*
X28865139Y17275776D01*
G37*
X28865139Y17275776D02*
X28999931Y17262500D01*
X28999940Y17262500D01*
X29044999Y17258062D01*
X29090058Y17262500D01*
X29201983Y17262500D01*
X29201983Y17019000D01*
X29216020Y16876483D01*
X29257590Y16739443D01*
X29325097Y16613147D01*
X29415946Y16502446D01*
X29526647Y16411597D01*
X29652943Y16344090D01*
X29789983Y16302520D01*
X29932500Y16288483D01*
X30358003Y16288483D01*
X30452639Y16259776D01*
X30587431Y16246500D01*
X31568093Y16246500D01*
X31568092Y13641470D01*
X31563654Y13596408D01*
X31568092Y13551346D01*
X31568092Y13551340D01*
X31577187Y13459000D01*
X31581368Y13416547D01*
X31615988Y13302420D01*
X31633831Y13243598D01*
X31719028Y13084207D01*
X31833683Y12944499D01*
X31868693Y12915767D01*
X32936363Y11848096D01*
X32965091Y11813091D01*
X33000096Y11784363D01*
X33000098Y11784361D01*
X33043690Y11748586D01*
X33104798Y11698436D01*
X33264189Y11613239D01*
X33437139Y11560776D01*
X33571931Y11547500D01*
X33571938Y11547500D01*
X33617000Y11543062D01*
X33662062Y11547500D01*
X34201620Y11547500D01*
X35571916Y10177203D01*
X35325040Y10238250D01*
X35052508Y10250812D01*
X34782762Y10209965D01*
X34526168Y10117277D01*
X34413137Y10056860D01*
X34347613Y9817995D01*
X34231157Y9934451D01*
X34185750Y9889044D01*
X34066533Y10008261D01*
X34036428Y10028376D01*
X34029224Y10101521D01*
X33976761Y10274471D01*
X33891564Y10433862D01*
X33848059Y10486873D01*
X33805639Y10538562D01*
X33805637Y10538564D01*
X33776909Y10573569D01*
X33741904Y10602297D01*
X32659301Y11684899D01*
X32630569Y11719909D01*
X32490862Y11834564D01*
X32331471Y11919761D01*
X32158521Y11972224D01*
X32023729Y11985500D01*
X32023722Y11985500D01*
X31978660Y11989938D01*
X31933598Y11985500D01*
X28819500Y11985500D01*
X28819500Y17245942D01*
X28823677Y17288353D01*
X28865139Y17275776D01*
G36*
X15583000Y27070000D02*
G01*
X15585440Y27045224D01*
X15592667Y27021399D01*
X15604403Y26999443D01*
X15620197Y26980197D01*
X15639443Y26964403D01*
X15661399Y26952667D01*
X15685224Y26945440D01*
X15710000Y26943000D01*
X16767640Y26943000D01*
X16761928Y26885000D01*
X16765000Y26720750D01*
X16923750Y26562000D01*
X18123000Y26562000D01*
X18123000Y26582000D01*
X18377000Y26582000D01*
X18377000Y26562000D01*
X18397000Y26562000D01*
X18397000Y26308000D01*
X18377000Y26308000D01*
X18377000Y25508750D01*
X18535750Y25350000D01*
X19100000Y25346928D01*
X19224482Y25359188D01*
X19309483Y25384973D01*
X19309483Y25145000D01*
X19323520Y25002483D01*
X19365090Y24865443D01*
X19376017Y24845000D01*
X19365090Y24824557D01*
X19346285Y24762564D01*
X19294189Y24746761D01*
X19214616Y24704228D01*
X19100000Y24715517D01*
X17400000Y24715517D01*
X17257483Y24701480D01*
X17120443Y24659910D01*
X16994147Y24592403D01*
X16883446Y24501554D01*
X16792597Y24390853D01*
X16738986Y24290555D01*
X15306710Y25722830D01*
X15306710Y25985000D01*
X16761928Y25985000D01*
X16774188Y25860518D01*
X16810498Y25740820D01*
X16869463Y25630506D01*
X16948815Y25533815D01*
X17045506Y25454463D01*
X17155820Y25395498D01*
X17275518Y25359188D01*
X17400000Y25346928D01*
X17964250Y25350000D01*
X18123000Y25508750D01*
X18123000Y26308000D01*
X16923750Y26308000D01*
X16765000Y26149250D01*
X16761928Y25985000D01*
X15306710Y25985000D01*
X15306710Y30123732D01*
X15311148Y30168791D01*
X15306710Y30213850D01*
X15306710Y30213859D01*
X15293434Y30348651D01*
X15240971Y30521601D01*
X15155774Y30680992D01*
X15041119Y30820699D01*
X15006114Y30849427D01*
X14467540Y31388000D01*
X15583000Y31388000D01*
X15583000Y27070000D01*
X15583000Y27070000D01*
G37*
X15583000Y27070000D02*
X15585440Y27045224D01*
X15592667Y27021399D01*
X15604403Y26999443D01*
X15620197Y26980197D01*
X15639443Y26964403D01*
X15661399Y26952667D01*
X15685224Y26945440D01*
X15710000Y26943000D01*
X16767640Y26943000D01*
X16761928Y26885000D01*
X16765000Y26720750D01*
X16923750Y26562000D01*
X18123000Y26562000D01*
X18123000Y26582000D01*
X18377000Y26582000D01*
X18377000Y26562000D01*
X18397000Y26562000D01*
X18397000Y26308000D01*
X18377000Y26308000D01*
X18377000Y25508750D01*
X18535750Y25350000D01*
X19100000Y25346928D01*
X19224482Y25359188D01*
X19309483Y25384973D01*
X19309483Y25145000D01*
X19323520Y25002483D01*
X19365090Y24865443D01*
X19376017Y24845000D01*
X19365090Y24824557D01*
X19346285Y24762564D01*
X19294189Y24746761D01*
X19214616Y24704228D01*
X19100000Y24715517D01*
X17400000Y24715517D01*
X17257483Y24701480D01*
X17120443Y24659910D01*
X16994147Y24592403D01*
X16883446Y24501554D01*
X16792597Y24390853D01*
X16738986Y24290555D01*
X15306710Y25722830D01*
X15306710Y25985000D01*
X16761928Y25985000D01*
X16774188Y25860518D01*
X16810498Y25740820D01*
X16869463Y25630506D01*
X16948815Y25533815D01*
X17045506Y25454463D01*
X17155820Y25395498D01*
X17275518Y25359188D01*
X17400000Y25346928D01*
X17964250Y25350000D01*
X18123000Y25508750D01*
X18123000Y26308000D01*
X16923750Y26308000D01*
X16765000Y26149250D01*
X16761928Y25985000D01*
X15306710Y25985000D01*
X15306710Y30123732D01*
X15311148Y30168791D01*
X15306710Y30213850D01*
X15306710Y30213859D01*
X15293434Y30348651D01*
X15240971Y30521601D01*
X15155774Y30680992D01*
X15041119Y30820699D01*
X15006114Y30849427D01*
X14467540Y31388000D01*
X15583000Y31388000D01*
X15583000Y27070000D01*
G36*
X27520090Y26889557D02*
G01*
X27478520Y26752517D01*
X27464483Y26610000D01*
X27464483Y25710000D01*
X27478520Y25567483D01*
X27520090Y25430443D01*
X27587597Y25304147D01*
X27678446Y25193446D01*
X27789147Y25102597D01*
X27915443Y25035090D01*
X28052483Y24993520D01*
X28192155Y24979763D01*
X28193239Y24976190D01*
X28204110Y24955853D01*
X28278437Y24816798D01*
X28313760Y24773757D01*
X28364361Y24712099D01*
X28364364Y24712096D01*
X28393092Y24677091D01*
X28428097Y24648363D01*
X28635943Y24440517D01*
X28195000Y24440517D01*
X28052483Y24426480D01*
X27915443Y24384910D01*
X27849095Y24349446D01*
X27681641Y24516899D01*
X27652909Y24551909D01*
X27513202Y24666564D01*
X27353811Y24751761D01*
X27313261Y24764062D01*
X27294910Y24824557D01*
X27227403Y24950853D01*
X27225414Y24953276D01*
X27245812Y25020518D01*
X27258072Y25145000D01*
X27255000Y25509250D01*
X27096250Y25668000D01*
X25997000Y25668000D01*
X25997000Y25648000D01*
X25743000Y25648000D01*
X25743000Y25668000D01*
X25723000Y25668000D01*
X25723000Y25922000D01*
X25743000Y25922000D01*
X25743000Y25942000D01*
X25997000Y25942000D01*
X25997000Y25922000D01*
X27096250Y25922000D01*
X27255000Y26080750D01*
X27258072Y26445000D01*
X27245812Y26569482D01*
X27209502Y26689180D01*
X27150537Y26799494D01*
X27071185Y26896185D01*
X27014141Y26943000D01*
X27548656Y26943000D01*
X27520090Y26889557D01*
X27520090Y26889557D01*
G37*
X27520090Y26889557D02*
X27478520Y26752517D01*
X27464483Y26610000D01*
X27464483Y25710000D01*
X27478520Y25567483D01*
X27520090Y25430443D01*
X27587597Y25304147D01*
X27678446Y25193446D01*
X27789147Y25102597D01*
X27915443Y25035090D01*
X28052483Y24993520D01*
X28192155Y24979763D01*
X28193239Y24976190D01*
X28204110Y24955853D01*
X28278437Y24816798D01*
X28313760Y24773757D01*
X28364361Y24712099D01*
X28364364Y24712096D01*
X28393092Y24677091D01*
X28428097Y24648363D01*
X28635943Y24440517D01*
X28195000Y24440517D01*
X28052483Y24426480D01*
X27915443Y24384910D01*
X27849095Y24349446D01*
X27681641Y24516899D01*
X27652909Y24551909D01*
X27513202Y24666564D01*
X27353811Y24751761D01*
X27313261Y24764062D01*
X27294910Y24824557D01*
X27227403Y24950853D01*
X27225414Y24953276D01*
X27245812Y25020518D01*
X27258072Y25145000D01*
X27255000Y25509250D01*
X27096250Y25668000D01*
X25997000Y25668000D01*
X25997000Y25648000D01*
X25743000Y25648000D01*
X25743000Y25668000D01*
X25723000Y25668000D01*
X25723000Y25922000D01*
X25743000Y25922000D01*
X25743000Y25942000D01*
X25997000Y25942000D01*
X25997000Y25922000D01*
X27096250Y25922000D01*
X27255000Y26080750D01*
X27258072Y26445000D01*
X27245812Y26569482D01*
X27209502Y26689180D01*
X27150537Y26799494D01*
X27071185Y26896185D01*
X27014141Y26943000D01*
X27548656Y26943000D01*
X27520090Y26889557D01*
G36*
X25742998Y26921252D02*
G01*
X25721250Y26943000D01*
X25742998Y26943000D01*
X25742998Y26921252D01*
X25742998Y26921252D01*
G37*
X25742998Y26921252D02*
X25721250Y26943000D01*
X25742998Y26943000D01*
X25742998Y26921252D01*
G36*
X25997002Y26921252D02*
G01*
X25997002Y26943000D01*
X26018750Y26943000D01*
X25997002Y26921252D01*
X25997002Y26921252D01*
G37*
X25997002Y26921252D02*
X25997002Y26943000D01*
X26018750Y26943000D01*
X25997002Y26921252D01*
M02*
